#N canvas 1700 -1037 1147 826 12;
#X obj 490 202 loadbang;
#X text 424 101 input 0..1;
#X msg 690 338 inout-cubic;
#X msg 690 319 inout;
#X msg 690 416 in-cubic;
#X msg 690 397 in;
#X msg 690 494 out-cubic;
#X msg 690 475 out;
#X obj 379 101 inlet;
#X obj 379 619 outlet;
#X obj 453 283 list fromsymbol;
#X obj 453 307 route list;
#X obj 453 371 list tosymbol;
#X text 457 328 check if symbol given;
#X obj 379 141 route float;
#X text 555 201 default to linear;
#X msg 690 280 linear;
#X obj 453 258 symbol linear;
#N canvas 1228 -967 1294 766 ease-function 0;
#X obj 69 58 inlet;
#X obj 69 684 outlet;
#X obj 420 156 expr if($f1 < 0.5 \, 4 * pow($f1 \, 3) \, 1 - pow(-2.0
* $f1 + 2 \, 3) / 2), f 69;
#X obj 420 175 s \$0-value;
#X obj 420 127 s \$0-value;
#X obj 69 318 s;
#X obj 69 660 r \$0-value;
#X obj 163 58 inlet;
#X obj 87 250 symbol;
#X obj 87 203 pack symbol \$0;
#X msg 87 226 \$2-\$1;
#X obj 420 58 s \$0-value;
#X obj 297 156 r \$0-inout-cubic;
#X obj 420 341 s \$0-value;
#X obj 420 293 s \$0-value;
#X obj 317 322 r \$0-in-cubic;
#X obj 263 274 r \$0-in;
#X obj 420 322 expr pow($f1 \, 3);
#X obj 420 504 s \$0-value;
#X obj 420 456 s \$0-value;
#X obj 311 485 r \$0-out-cubic;
#X obj 420 485 expr 1 - pow(1 - $f1 \, 3) \;;
#X obj 332 58 r \$0-linear;
#X obj 259 58 r \$0-line;
#X obj 420 223 s \$0-value;
#X obj 420 389 s \$0-value;
#X obj 420 553 s \$0-value;
#X obj 304 204 r \$0-inout-expo;
#X obj 324 370 r \$0-in-expo;
#X obj 318 534 r \$0-out-expo;
#X obj 220 108 r \$0-inout;
#X obj 303 108 r \$0-inout-sine;
#X obj 324 274 r \$0-in-sine;
#X obj 318 437 r \$0-out-sine;
#X obj 420 630 s \$0-value;
#X obj 420 693 s \$0-value;
#X obj 304 582 r \$0-out-bounce;
#X obj 297 660 r \$0-out-elastic;
#X text 534 58 formulas copied from https://easings.net/en;
#X obj 420 204 expr if($f1 == 0 \, 0 \, if($f1 == 1 \, 1 \, if($f1
< 0.5 \, pow(2 \, 20 * $f1 - 10) / 2 \, (2 - pow(2 \, -20 * $f1 + 10))
/ 2))) \;, f 115;
#X obj 420 370 expr if($f1 == 0 \, 0 \, pow(2 \, 10 * $f1 - 10)) \;
;
#X obj 420 534 expr if($f1 == 1 \, 1 \, 1 - pow(2 \, -10 * $f1)) \;
;
#X obj 420 583 expr if($f1 < 1 / 2.75 \, 7.5625 * $f1 * $f1 \, if($f1
< 2 / 2.75 \, 7.5625 * pow($f1 - 1.5 / 2.75 \, 2) + 0.75 \, if($f1
< 2.5 / 2.75 \, 7.5625 * pow($f1 - 2.25 / 2.75 \, 2) + 0.9375 \, 7.5625
* pow($f1 - 2.625 / 2.75 \, 2) + 0.984375))) \;, f 97;
#X obj 420 660 expr if($f1 == 0 \, 0 \, if($f1 == 1 \, 1 \, pow(2 \,
-10 * $f1) * sin(($f1 * 10 - 0.75) * 2.0944) + 1)) \;;
#X obj 250 437 r \$0-out;
#X obj 420 274 expr 1 - cos(($f1 * 3.14159) / 2) \;;
#X obj 420 437 expr sin(($f1 * 3.14159) / 2) \;;
#X obj 420 108 expr -(cos(3.14159 * $f1) - 1) / 2;
#X connect 0 0 5 0;
#X connect 2 0 3 0;
#X connect 6 0 1 0;
#X connect 7 0 9 0;
#X connect 8 0 5 1;
#X connect 9 0 10 0;
#X connect 10 0 8 0;
#X connect 12 0 2 0;
#X connect 15 0 17 0;
#X connect 16 0 45 0;
#X connect 17 0 13 0;
#X connect 20 0 21 0;
#X connect 21 0 18 0;
#X connect 22 0 11 0;
#X connect 23 0 11 0;
#X connect 27 0 39 0;
#X connect 28 0 40 0;
#X connect 29 0 41 0;
#X connect 30 0 47 0;
#X connect 31 0 47 0;
#X connect 32 0 45 0;
#X connect 33 0 46 0;
#X connect 36 0 42 0;
#X connect 37 0 43 0;
#X connect 39 0 24 0;
#X connect 40 0 25 0;
#X connect 41 0 26 0;
#X connect 42 0 34 0;
#X connect 43 0 35 0;
#X connect 44 0 46 0;
#X connect 45 0 14 0;
#X connect 46 0 19 0;
#X connect 47 0 4 0;
#X restore 379 570 pd ease-function;
#X msg 743 280 line;
#X msg 740 319 inout-sine;
#X msg 726 397 in-sine;
#X msg 726 475 out-sine;
#X msg 690 513 out-expo;
#X msg 690 532 out-bounce;
#X msg 690 435 in-expo;
#X msg 690 357 inout-expo;
#X msg 690 551 out-elastic;
#X connect 0 0 17 0;
#X connect 2 0 18 1;
#X connect 3 0 18 1;
#X connect 4 0 18 1;
#X connect 5 0 18 1;
#X connect 6 0 18 1;
#X connect 7 0 18 1;
#X connect 8 0 14 0;
#X connect 10 0 11 0;
#X connect 11 0 12 0;
#X connect 12 0 18 1;
#X connect 14 0 18 0;
#X connect 14 1 17 0;
#X connect 16 0 18 1;
#X connect 17 0 10 0;
#X connect 18 0 9 0;
#X connect 23 0 18 1;
#X connect 24 0 18 1;
#X connect 25 0 18 1;
#X connect 26 0 18 1;
#X connect 27 0 18 1;
#X coords 0 826 1 825 32 32 0;
