#N canvas -14 6 1920 1037 12;
#X obj 97 20 inlet;
#X obj 1236 45 namecanvas \$0-this-canvas;
#X obj 320 497 savestate;
#X msg 399 548 0, f 1;
#X obj 399 582 array get \$0-seq;
#X obj 464 516 r \$0-length;
#X obj 453 548 f, f 2;
#N canvas -8 -1088 1920 1037 \$0-interface 0;
#X obj 100 100 hradio 15 1 1 16 1051-radio-sender 1051-radio-receiver
empty 0 -8 0 10 -262144 -1 -1 0;
#X obj 100 102 vsl 15 44 0 1 0 0 1051-0-vsl-sender 1051-0-vsl-receiver
empty 0 -9 0 10 -262144 -1 -1 0 1;
#X obj 101 101 cnv 13 13 47 empty empty empty 20 12 0 14 -178924 -178924
0;
#X obj 101 101 cnv 1 13 47 empty 1051-0-vsl-cnv-receiver empty 20 12
0 14 -262144 -262144 0;
#X obj 101 101 cnv 1 13 1 empty 1051-vsl-mark-receiver empty 20 12
0 14 -1 -1 0;
#X obj 115 102 vsl 15 44 0 1 0 0 1051-1-vsl-sender 1051-1-vsl-receiver
empty 0 -9 0 10 -262144 -1 -1 0 1;
#X obj 116 101 cnv 13 13 47 empty empty empty 20 12 0 14 -178924 -178924
0;
#X obj 116 101 cnv 1 13 47 empty 1051-1-vsl-cnv-receiver empty 20 12
0 14 -262144 -262144 0;
#X obj 101 101 cnv 1 13 1 empty 1051-vsl-mark-receiver empty 20 12
0 14 -1 -1 0;
#X obj 130 102 vsl 15 44 0 1 0 0 1051-2-vsl-sender 1051-2-vsl-receiver
empty 0 -9 0 10 -262144 -1 -1 0 1;
#X obj 131 101 cnv 13 13 47 empty empty empty 20 12 0 14 -178924 -178924
0;
#X obj 131 101 cnv 1 13 47 empty 1051-2-vsl-cnv-receiver empty 20 12
0 14 -262144 -262144 0;
#X obj 101 101 cnv 1 13 1 empty 1051-vsl-mark-receiver empty 20 12
0 14 -1 -1 0;
#X obj 145 102 vsl 15 44 0 1 0 0 1051-3-vsl-sender 1051-3-vsl-receiver
empty 0 -9 0 10 -262144 -1 -1 0 1;
#X obj 146 101 cnv 13 13 47 empty empty empty 20 12 0 14 -178924 -178924
0;
#X obj 146 101 cnv 1 13 47 empty 1051-3-vsl-cnv-receiver empty 20 12
0 14 -262144 -262144 0;
#X obj 101 101 cnv 1 13 1 empty 1051-vsl-mark-receiver empty 20 12
0 14 -1 -1 0;
#X obj 160 102 vsl 15 44 0 1 0 0 1051-4-vsl-sender 1051-4-vsl-receiver
empty 0 -9 0 10 -228856 -1 -1 0 1;
#X obj 161 101 cnv 13 13 47 empty empty empty 20 12 0 14 -162280 -162280
0;
#X obj 161 101 cnv 1 13 47 empty 1051-4-vsl-cnv-receiver empty 20 12
0 14 -228856 -228856 0;
#X obj 101 101 cnv 1 13 1 empty 1051-vsl-mark-receiver empty 20 12
0 14 -1 -1 0;
#X obj 175 102 vsl 15 44 0 1 0 0 1051-5-vsl-sender 1051-5-vsl-receiver
empty 0 -9 0 10 -228856 -1 -1 0 1;
#X obj 176 101 cnv 13 13 47 empty empty empty 20 12 0 14 -162280 -162280
0;
#X obj 176 101 cnv 1 13 47 empty 1051-5-vsl-cnv-receiver empty 20 12
0 14 -228856 -228856 0;
#X obj 101 101 cnv 1 13 1 empty 1051-vsl-mark-receiver empty 20 12
0 14 -1 -1 0;
#X obj 190 102 vsl 15 44 0 1 0 0 1051-6-vsl-sender 1051-6-vsl-receiver
empty 0 -9 0 10 -228856 -1 -1 0 1;
#X obj 191 101 cnv 13 13 47 empty empty empty 20 12 0 14 -162280 -162280
0;
#X obj 191 101 cnv 1 13 47 empty 1051-6-vsl-cnv-receiver empty 20 12
0 14 -228856 -228856 0;
#X obj 101 101 cnv 1 13 1 empty 1051-vsl-mark-receiver empty 20 12
0 14 -1 -1 0;
#X obj 205 102 vsl 15 44 0 1 0 0 1051-7-vsl-sender 1051-7-vsl-receiver
empty 0 -9 0 10 -228856 -1 -1 0 1;
#X obj 206 101 cnv 13 13 47 empty empty empty 20 12 0 14 -162280 -162280
0;
#X obj 206 101 cnv 1 13 47 empty 1051-7-vsl-cnv-receiver empty 20 12
0 14 -228856 -228856 0;
#X obj 101 101 cnv 1 13 1 empty 1051-vsl-mark-receiver empty 20 12
0 14 -1 -1 0;
#X obj 220 102 vsl 15 44 0 1 0 0 1051-8-vsl-sender 1051-8-vsl-receiver
empty 0 -9 0 10 -262144 -1 -1 0 1;
#X obj 221 101 cnv 13 13 47 empty empty empty 20 12 0 14 -178924 -178924
0;
#X obj 221 101 cnv 1 13 47 empty 1051-8-vsl-cnv-receiver empty 20 12
0 14 -262144 -262144 0;
#X obj 101 101 cnv 1 13 1 empty 1051-vsl-mark-receiver empty 20 12
0 14 -1 -1 0;
#X obj 235 102 vsl 15 44 0 1 0 0 1051-9-vsl-sender 1051-9-vsl-receiver
empty 0 -9 0 10 -262144 -1 -1 0 1;
#X obj 236 101 cnv 13 13 47 empty empty empty 20 12 0 14 -178924 -178924
0;
#X obj 236 101 cnv 1 13 47 empty 1051-9-vsl-cnv-receiver empty 20 12
0 14 -262144 -262144 0;
#X obj 101 101 cnv 1 13 1 empty 1051-vsl-mark-receiver empty 20 12
0 14 -1 -1 0;
#X obj 250 102 vsl 15 44 0 1 0 0 1051-10-vsl-sender 1051-10-vsl-receiver
empty 0 -9 0 10 -262144 -1 -1 0 1;
#X obj 251 101 cnv 13 13 47 empty empty empty 20 12 0 14 -178924 -178924
0;
#X obj 251 101 cnv 1 13 47 empty 1051-10-vsl-cnv-receiver empty 20
12 0 14 -262144 -262144 0;
#X obj 101 101 cnv 1 13 1 empty 1051-vsl-mark-receiver empty 20 12
0 14 -1 -1 0;
#X obj 265 102 vsl 15 44 0 1 0 0 1051-11-vsl-sender 1051-11-vsl-receiver
empty 0 -9 0 10 -262144 -1 -1 0 1;
#X obj 266 101 cnv 13 13 47 empty empty empty 20 12 0 14 -178924 -178924
0;
#X obj 266 101 cnv 1 13 47 empty 1051-11-vsl-cnv-receiver empty 20
12 0 14 -262144 -262144 0;
#X obj 101 101 cnv 1 13 1 empty 1051-vsl-mark-receiver empty 20 12
0 14 -1 -1 0;
#X obj 280 102 vsl 15 44 0 1 0 0 1051-12-vsl-sender 1051-12-vsl-receiver
empty 0 -9 0 10 -228856 -1 -1 0 1;
#X obj 281 101 cnv 13 13 47 empty empty empty 20 12 0 14 -162280 -162280
0;
#X obj 281 101 cnv 1 13 47 empty 1051-12-vsl-cnv-receiver empty 20
12 0 14 -228856 -228856 0;
#X obj 101 101 cnv 1 13 1 empty 1051-vsl-mark-receiver empty 20 12
0 14 -1 -1 0;
#X obj 295 102 vsl 15 44 0 1 0 0 1051-13-vsl-sender 1051-13-vsl-receiver
empty 0 -9 0 10 -228856 -1 -1 0 1;
#X obj 296 101 cnv 13 13 47 empty empty empty 20 12 0 14 -162280 -162280
0;
#X obj 296 101 cnv 1 13 47 empty 1051-13-vsl-cnv-receiver empty 20
12 0 14 -228856 -228856 0;
#X obj 101 101 cnv 1 13 1 empty 1051-vsl-mark-receiver empty 20 12
0 14 -1 -1 0;
#X obj 310 102 vsl 15 44 0 1 0 0 1051-14-vsl-sender 1051-14-vsl-receiver
empty 0 -9 0 10 -228856 -1 -1 0 1;
#X obj 311 101 cnv 13 13 47 empty empty empty 20 12 0 14 -162280 -162280
0;
#X obj 311 101 cnv 1 13 47 empty 1051-14-vsl-cnv-receiver empty 20
12 0 14 -228856 -228856 0;
#X obj 101 101 cnv 1 13 1 empty 1051-vsl-mark-receiver empty 20 12
0 14 -1 -1 0;
#X obj 325 102 vsl 15 44 0 1 0 0 1051-15-vsl-sender 1051-15-vsl-receiver
empty 0 -9 0 10 -228856 -1 -1 0 1;
#X obj 326 101 cnv 13 13 47 empty empty empty 20 12 0 14 -162280 -162280
0;
#X obj 326 101 cnv 1 13 47 empty 1051-15-vsl-cnv-receiver empty 20
12 0 14 -228856 -228856 0;
#X obj 101 101 cnv 1 13 1 empty 1051-vsl-mark-receiver empty 20 12
0 14 -1 -1 0;
#X coords 0 -1 1 1 240 49 2 100 100;
#X restore 100 100 pd \$0-interface;
#X text 397 496 save state;
#X text 249 541 load state;
#X obj 103 622 until;
#X obj 103 645 f;
#X obj 132 645 + 1;
#X msg 251 721 get \$1 1;
#X obj 251 744 list store;
#X obj 103 847 f;
#X obj 103 721 \$0;
#X obj 103 744 pack;
#X obj 103 807 t b l;
#X obj 103 870 s;
#X obj 253 593 list store;
#X obj 103 560 list length;
#X obj 103 537 t a a;
#X obj 103 599 t f b;
#X msg 147 622 0;
#X obj 701 937 outlet;
#X msg 135 847 symbol \$1-\$2-vsl-receiver;
#X obj 399 516 t b b;
#X obj 701 654 array get \$0-seq;
#X obj 681 497 r \$0-radio-sender;
#X obj 618 654 v \$0-pos;
#X obj 1236 78 array define \$0-seq;
#X msg 701 626 \$1 1;
#X text 989 632 output position;
#X obj 103 683 t b f f;
#X text 260 769 get value;
#X obj 103 497 r \$0-set-seq;
#X obj 253 617 s \$0-set-seq;
#X obj 253 568 r \$0-init-done;
#X obj 701 807 spigot;
#X obj 740 783 > 0;
#X obj 701 717 t f f f;
#X msg 998 654 pos \$1;
#X msg 847 807 val \$1;
#X text 109 769 set slider address;
#N canvas 176 63 1373 821 calculate_color 0;
#X obj 241 303 i;
#X obj 181 303 i;
#X obj 121 169 / 100;
#X obj 121 303 i;
#X obj 241 168 % 10;
#X obj 181 169 / 10;
#X obj 181 193 % 10;
#X obj 63 329 f;
#X obj 63 121 t b f f f;
#X obj 81 389 s \$0-color;
#X obj 63 34 r \$0-input-color;
#X obj 121 257 * 63;
#X obj 121 280 / 9;
#X obj 181 257 * 63;
#X obj 181 280 / 9;
#X obj 241 257 * 63;
#X obj 241 280 / 9;
#X obj 81 359 expr -1-($f1+$f2*64+$f3*4096);
#X obj 241 192 i;
#X obj 181 217 i;
#X obj 121 193 i;
#X text 245 143 R;
#X text 188 144 G;
#X text 128 145 B;
#X obj 564 301 i;
#X obj 504 301 i;
#X obj 444 167 / 100;
#X obj 444 301 i;
#X obj 564 166 % 10;
#X obj 504 167 / 10;
#X obj 504 191 % 10;
#X obj 386 317 f;
#X obj 386 119 t b f f f;
#X obj 404 357 expr -1-($f1+$f2*64+$f3*4096);
#X obj 564 190 i;
#X obj 504 215 i;
#X obj 444 191 i;
#X text 568 141 R;
#X text 511 142 G;
#X text 451 143 B;
#X obj 405 386 s \$0-color-dark;
#X obj 564 278 / 9;
#X obj 504 278 / 9;
#X obj 444 278 / 9;
#X obj 444 255 * 55;
#X obj 504 255 * 55;
#X obj 564 255 * 55;
#X obj 874 296 i;
#X obj 814 296 i;
#X obj 754 162 / 100;
#X obj 754 296 i;
#X obj 874 161 % 10;
#X obj 814 162 / 10;
#X obj 814 186 % 10;
#X obj 696 312 f;
#X obj 696 114 t b f f f;
#X obj 714 352 expr -1-($f1+$f2*64+$f3*4096);
#X obj 874 185 i;
#X obj 814 210 i;
#X obj 754 186 i;
#X text 878 136 R;
#X text 821 137 G;
#X text 761 138 B;
#X obj 874 273 / 9;
#X obj 814 273 / 9;
#X obj 754 273 / 9;
#X obj 715 381 s \$0-color-darker;
#X obj 754 250 * 43;
#X obj 814 250 * 43;
#X obj 874 250 * 43;
#X obj 1164 296 i;
#X obj 1104 296 i;
#X obj 1044 162 / 100;
#X obj 1044 296 i;
#X obj 1164 161 % 10;
#X obj 1104 162 / 10;
#X obj 1104 186 % 10;
#X obj 986 312 f;
#X obj 986 114 t b f f f;
#X obj 1004 352 expr -1-($f1+$f2*64+$f3*4096);
#X obj 1164 185 i;
#X obj 1104 210 i;
#X obj 1044 186 i;
#X text 1168 136 R;
#X text 1111 137 G;
#X text 1051 138 B;
#X obj 1164 273 / 9;
#X obj 1104 273 / 9;
#X obj 1044 273 / 9;
#X obj 1044 250 * 39;
#X obj 1104 250 * 39;
#X obj 1164 250 * 39;
#X obj 63 62 t f f f f;
#X obj 1005 381 s \$0-color-darkest;
#X connect 0 0 7 1;
#X connect 1 0 17 1;
#X connect 2 0 20 0;
#X connect 3 0 17 2;
#X connect 4 0 18 0;
#X connect 5 0 6 0;
#X connect 6 0 19 0;
#X connect 7 0 17 0;
#X connect 8 0 7 0;
#X connect 8 1 2 0;
#X connect 8 2 5 0;
#X connect 8 3 4 0;
#X connect 10 0 92 0;
#X connect 11 0 12 0;
#X connect 12 0 3 0;
#X connect 13 0 14 0;
#X connect 14 0 1 0;
#X connect 15 0 16 0;
#X connect 16 0 0 0;
#X connect 17 0 9 0;
#X connect 18 0 15 0;
#X connect 19 0 13 0;
#X connect 20 0 11 0;
#X connect 24 0 31 1;
#X connect 25 0 33 1;
#X connect 26 0 36 0;
#X connect 27 0 33 2;
#X connect 28 0 34 0;
#X connect 29 0 30 0;
#X connect 30 0 35 0;
#X connect 31 0 33 0;
#X connect 32 0 31 0;
#X connect 32 1 26 0;
#X connect 32 2 29 0;
#X connect 32 3 28 0;
#X connect 33 0 40 0;
#X connect 34 0 46 0;
#X connect 35 0 45 0;
#X connect 36 0 44 0;
#X connect 41 0 24 0;
#X connect 42 0 25 0;
#X connect 43 0 27 0;
#X connect 44 0 43 0;
#X connect 45 0 42 0;
#X connect 46 0 41 0;
#X connect 47 0 54 1;
#X connect 48 0 56 1;
#X connect 49 0 59 0;
#X connect 50 0 56 2;
#X connect 51 0 57 0;
#X connect 52 0 53 0;
#X connect 53 0 58 0;
#X connect 54 0 56 0;
#X connect 55 0 54 0;
#X connect 55 1 49 0;
#X connect 55 2 52 0;
#X connect 55 3 51 0;
#X connect 56 0 66 0;
#X connect 57 0 69 0;
#X connect 58 0 68 0;
#X connect 59 0 67 0;
#X connect 63 0 47 0;
#X connect 64 0 48 0;
#X connect 65 0 50 0;
#X connect 67 0 65 0;
#X connect 68 0 64 0;
#X connect 69 0 63 0;
#X connect 70 0 77 1;
#X connect 71 0 79 1;
#X connect 72 0 82 0;
#X connect 73 0 79 2;
#X connect 74 0 80 0;
#X connect 75 0 76 0;
#X connect 76 0 81 0;
#X connect 77 0 79 0;
#X connect 78 0 77 0;
#X connect 78 1 72 0;
#X connect 78 2 75 0;
#X connect 78 3 74 0;
#X connect 79 0 93 0;
#X connect 80 0 91 0;
#X connect 81 0 90 0;
#X connect 82 0 89 0;
#X connect 86 0 70 0;
#X connect 87 0 71 0;
#X connect 88 0 73 0;
#X connect 89 0 88 0;
#X connect 90 0 87 0;
#X connect 91 0 86 0;
#X connect 92 0 8 0;
#X connect 92 1 32 0;
#X connect 92 2 55 0;
#X connect 92 3 78 0;
#X restore 550 45 pd calculate_color;
#X obj 1148 680 timer;
#X obj 1148 655 t b b;
#X text 1139 632 output duration;
#X msg 1148 704 dur \$1;
#X msg 1488 621 0, f 1;
#X obj 1488 655 array get \$0-seq;
#X obj 1553 589 r \$0-length;
#X obj 1542 621 f, f 2;
#X obj 1488 589 t b b;
#X obj 1488 703 list trim;
#X obj 1488 679 list prepend values;
#X obj 1488 547 r \$0-output;
#X text 1560 703 output list as "values";
#N canvas 315 -1013 1472 876 args 0;
#X obj 487 555 sel 0;
#X obj 487 639 s \$0-height;
#X msg 487 579 3;
#X obj 327 639 s \$0-input-color;
#X obj 327 555 sel 0;
#X msg 327 579 999;
#X text 225 438 length;
#X text 373 438 color;
#X text 533 438 height;
#X obj 181 555 sel 0;
#X msg 181 579 16;
#X obj 213 579 clip 1 32;
#X obj 181 639 s \$0-length;
#X obj 519 579 clip 2 15;
#X obj 635 639 s \$0-grid;
#X text 803 438 receiver;
#X text 681 438 grid;
#X text 963 438 sender;
#X obj 967 639 s \$0-sender-name;
#X obj 807 639 s \$0-receiver-name;
#X obj 871 280 route 1 2 3 4 5 6;
#X obj 807 462 symbol;
#X obj 967 462 symbol;
#X obj 79 61 loadbang;
#X obj 181 532 float 0;
#X obj 327 532 float 0;
#X obj 487 532 float 0;
#X obj 635 532 float 0;
#X obj 79 85 t b b;
#X obj 79 513 t b b b b;
#X obj 227 280 route length color height grid receiver sender;
#X obj 227 462 symbol;
#X obj 373 462 symbol;
#X obj 533 462 symbol;
#X obj 681 462 symbol;
#X obj 681 486 f;
#X obj 533 486 f;
#X obj 373 486 f;
#X obj 227 486 f;
#X text 697 126 positional arguments;
#X text 284 126 named arguments;
#N canvas 187 -1050 1322 874 parse_named_or_positional_arguments 0
;
#X msg 215 107 args 0;
#X obj 215 131 pdcontrol;
#X obj 215 228 until;
#X obj 215 507 list split 1;
#X obj 215 483 list store;
#X obj 289 561 list fromsymbol;
#X obj 625 141 until;
#X obj 604 200 list split 1;
#X obj 604 176 list store;
#X obj 604 242 sel 61;
#X obj 604 485 list store;
#X msg 710 391 append \$1;
#X obj 604 508 list tosymbol;
#X text 856 413 bang value;
#X text 535 417 bang key;
#X obj 664 78 t b l b b;
#X obj 604 418 t b b;
#X obj 738 485 list store;
#X obj 738 508 list tosymbol;
#X obj 604 566 list prepend;
#X obj 604 590 list trim;
#X obj 811 412 t b b;
#X obj 604 794 outlet;
#X text 661 56 input params as ascii-lists;
#X obj 215 532 route float;
#X obj 215 62 t b b;
#X obj 604 264 t b b;
#X obj 215 155 t l l;
#X obj 215 202 list length;
#X obj 215 37 inlet;
#X obj 957 779 outlet;
#X text 958 802 positional arguments as "<n> <argument>";
#X text 604 817 named arguments as "<key> <value>";
#X obj 604 684 s;
#X obj 957 591 r \$0-positioned-argument-receiver;
#X obj 604 772 r \$0-named-argument-receiver;
#X obj 957 711 list prepend;
#X obj 215 252 t b b;
#X obj 622 662 r \$0-argument-receiver-name;
#X obj 247 312 \$0;
#X obj 247 399 s \$0-argument-receiver-name;
#X obj 539 312 \$0;
#X msg 539 335 symbol \$1-named-argument-receiver;
#X msg 247 335 symbol \$1-positioned-argument-receiver;
#X obj 989 670 f;
#X obj 1019 670 + 1;
#X msg 1007 643 1;
#X obj 957 615 t a b;
#X obj 957 735 list trim;
#X connect 0 0 1 0;
#X connect 1 0 27 0;
#X connect 2 0 37 0;
#X connect 3 0 24 0;
#X connect 3 1 4 1;
#X connect 4 0 3 0;
#X connect 5 0 15 0;
#X connect 6 0 8 0;
#X connect 7 0 9 0;
#X connect 7 1 8 1;
#X connect 7 2 21 0;
#X connect 8 0 7 0;
#X connect 9 0 26 0;
#X connect 9 1 11 0;
#X connect 10 0 12 0;
#X connect 11 0 10 0;
#X connect 11 0 17 0;
#X connect 12 0 19 1;
#X connect 15 0 6 0;
#X connect 15 1 8 1;
#X connect 15 2 10 1;
#X connect 15 2 17 1;
#X connect 15 3 19 1;
#X connect 16 0 17 1;
#X connect 16 1 10 0;
#X connect 17 0 18 0;
#X connect 18 0 19 0;
#X connect 19 0 20 0;
#X connect 20 0 33 0;
#X connect 21 0 17 0;
#X connect 21 1 6 1;
#X connect 24 0 33 0;
#X connect 24 1 5 0;
#X connect 25 0 0 0;
#X connect 25 1 46 0;
#X connect 26 0 41 0;
#X connect 26 1 16 0;
#X connect 27 0 28 0;
#X connect 27 1 4 1;
#X connect 28 0 2 0;
#X connect 29 0 25 0;
#X connect 34 0 47 0;
#X connect 35 0 22 0;
#X connect 36 0 48 0;
#X connect 37 0 4 0;
#X connect 37 1 39 0;
#X connect 38 0 33 1;
#X connect 39 0 43 0;
#X connect 41 0 42 0;
#X connect 42 0 40 0;
#X connect 43 0 40 0;
#X connect 44 0 45 0;
#X connect 44 0 36 1;
#X connect 45 0 44 1;
#X connect 46 0 44 1;
#X connect 47 0 36 0;
#X connect 47 1 44 0;
#X connect 48 0 30 0;
#X restore 413 104 pd parse_named_or_positional_arguments;
#X connect 0 0 2 0;
#X connect 0 1 13 0;
#X connect 2 0 1 0;
#X connect 4 0 5 0;
#X connect 4 1 3 0;
#X connect 5 0 3 0;
#X connect 9 0 10 0;
#X connect 9 1 11 0;
#X connect 10 0 12 0;
#X connect 11 0 12 0;
#X connect 13 0 1 0;
#X connect 20 0 24 1;
#X connect 20 1 25 1;
#X connect 20 2 26 1;
#X connect 20 3 27 1;
#X connect 20 4 21 0;
#X connect 20 5 22 0;
#X connect 21 0 19 0;
#X connect 22 0 18 0;
#X connect 23 0 28 0;
#X connect 24 0 9 0;
#X connect 25 0 4 0;
#X connect 26 0 0 0;
#X connect 27 0 14 0;
#X connect 28 0 29 0;
#X connect 28 1 41 0;
#X connect 29 0 24 0;
#X connect 29 1 25 0;
#X connect 29 2 26 0;
#X connect 29 3 27 0;
#X connect 30 0 31 0;
#X connect 30 1 32 0;
#X connect 30 2 33 0;
#X connect 30 3 34 0;
#X connect 30 4 21 0;
#X connect 30 5 22 0;
#X connect 31 0 38 0;
#X connect 32 0 37 0;
#X connect 33 0 36 0;
#X connect 34 0 35 0;
#X connect 35 0 27 1;
#X connect 36 0 26 1;
#X connect 37 0 25 1;
#X connect 38 0 24 1;
#X connect 41 0 30 0;
#X connect 41 1 20 0;
#X restore 332 45 pd args;
#N canvas -8 -8 1920 1037 draw_object 0;
#X obj 127 346 until;
#X obj 127 377 f;
#X obj 160 377 + 1;
#X msg 177 346 0;
#X obj 127 509 + 100;
#X obj 127 487 * 15;
#X obj 127 767 s pd-\$0-interface;
#X obj 375 366 s pd-\$0-interface;
#X obj 1115 232 s pd-\$0-interface;
#X msg 1115 206 clear;
#X obj 107 933 s \$0-this-canvas;
#X obj 107 797 * 15;
#X obj 252 932 s pd-\$0-interface;
#X obj 146 235 array size \$0-seq;
#X obj 107 902 t a a;
#X text 216 347 counter;
#X text 377 608 draw sliders;
#X text 262 797 resize abstraction and subpatch;
#X text 513 307 draw hradio;
#X text 1164 206 clear subpatch;
#X obj 75 265 s \$0-init-done;
#X obj 491 283 r \$0-color;
#X obj 263 559 r \$0-color;
#X obj 285 621 r \$0-height;
#X obj 375 306 pack 1 \$0 -262144;
#X obj 174 798 r \$0-height;
#X obj 107 845 pack 16 64;
#X obj 109 142 r \$0-length;
#X obj 127 428 t f f f;
#X obj 346 559 r \$0-color-dark;
#X obj 245 583 f;
#X obj 328 583 f;
#X obj 127 317 t f f b;
#X obj 244 427 sel 0;
#X obj 204 470 /;
#X obj 204 493 % 2;
#X obj 245 512 sel 0;
#X text 382 440 calculate partitioning \; FIXME;
#X obj 244 403 % 4;
#X msg 244 451 4;
#X obj 291 427 sel 0;
#X obj 291 402 % 3;
#X msg 291 451 3;
#X msg 340 451 4;
#X obj 244 379 t f f b;
#X obj 880 772 s pd-\$0-interface;
#X obj 328 531 bng 15 250 50 0 empty empty empty 17 7 0 10 -262144
-1 -1;
#X text 300 712 <pos> <nr> <\$0> <color> <height>;
#X obj 994 545 r \$0-height;
#X obj 994 567 expr $f1 * 16 - 1;
#X obj 857 551 + 1;
#X obj 245 671 t f;
#X obj 127 712 pack 0 1 \$0 -262144 48;
#X obj 857 629 pack 0 1 \$0 -262144 48 -1;
#X obj 1159 573 f;
#X obj 1312 573 f;
#X obj 1159 512 sel 0;
#X obj 1312 531 bng 15 250 50 0 empty empty empty 17 7 0 10 -262144
-1 -1;
#X obj 1159 610 t f;
#X obj 1177 549 r \$0-color-darker;
#X obj 1330 549 r \$0-color-darkest;
#X obj 109 187 t f f f f b;
#X text 888 869 draw marker;
#X obj 857 918 s pd-\$0-interface;
#X obj 127 532 t f f;
#X obj 857 661 t b l l;
#X obj 857 869 \$0;
#X msg 107 872 donecanvasdialog 0 0 -1 0 -1 1 1 \$1 \$2 100 100 1 \,
dirty 0;
#X obj 174 822 expr ($f1) * 16 + 1;
#X msg 857 894 obj 101 101 cnv 0 13 0 empty \$1-vsl-mark-receiver empty
20 12 0 14 -1 -1 0 \;, f 81;
#X msg 903 740 obj \$1 101 cnv 13 13 \$5 empty empty empty 20 12 0
14 \$6 \$6 0 \;, f 62;
#X obj 285 643 expr $f1 * 16 - 4;
#X msg 127 739 obj \$1 102 vsl 15 \$5 0 1 0 0 \$3-\$2-vsl-sender \$3-\$2-vsl-receiver
empty 0 -9 0 10 \$4 -1 -1 0 1, f 98;
#X msg 375 337 obj 100 100 hradio 15 1 1 \$1 \$2-radio-sender \$2-radio-receiver
empty 0 -8 0 10 \$3 -1 -1 0, f 90;
#X obj 75 235 t b f;
#X msg 880 708 obj \$1 101 cnv 0 13 \$5 empty \$3-\$2-vsl-cnv-receiver
empty 20 12 0 14 \$4 \$4 0 \;, f 79;
#X text 920 660 draw beauty;
#X connect 0 0 1 0;
#X connect 1 0 2 0;
#X connect 1 0 28 0;
#X connect 2 0 1 1;
#X connect 3 0 1 1;
#X connect 4 0 64 0;
#X connect 5 0 4 0;
#X connect 9 0 8 0;
#X connect 11 0 26 0;
#X connect 14 0 10 0;
#X connect 14 1 12 0;
#X connect 21 0 24 2;
#X connect 22 0 30 1;
#X connect 23 0 71 0;
#X connect 24 0 73 0;
#X connect 25 0 68 0;
#X connect 26 0 67 0;
#X connect 27 0 61 0;
#X connect 28 0 5 0;
#X connect 28 1 52 1;
#X connect 28 1 53 1;
#X connect 28 2 34 0;
#X connect 29 0 31 1;
#X connect 30 0 51 0;
#X connect 31 0 51 0;
#X connect 32 0 0 0;
#X connect 32 1 44 0;
#X connect 32 2 3 0;
#X connect 33 0 39 0;
#X connect 34 0 35 0;
#X connect 35 0 36 0;
#X connect 35 0 56 0;
#X connect 36 0 30 0;
#X connect 36 1 46 0;
#X connect 38 0 33 0;
#X connect 39 0 34 1;
#X connect 40 0 42 0;
#X connect 41 0 40 0;
#X connect 42 0 34 1;
#X connect 43 0 34 1;
#X connect 44 0 38 0;
#X connect 44 1 41 0;
#X connect 44 2 43 0;
#X connect 46 0 31 0;
#X connect 48 0 49 0;
#X connect 49 0 53 4;
#X connect 50 0 53 0;
#X connect 51 0 52 3;
#X connect 51 0 53 3;
#X connect 52 0 72 0;
#X connect 53 0 65 0;
#X connect 54 0 58 0;
#X connect 55 0 58 0;
#X connect 56 0 54 0;
#X connect 56 1 57 0;
#X connect 57 0 55 0;
#X connect 58 0 53 5;
#X connect 59 0 54 1;
#X connect 60 0 55 1;
#X connect 61 0 74 0;
#X connect 61 1 32 0;
#X connect 61 2 13 0;
#X connect 61 3 24 0;
#X connect 61 4 9 0;
#X connect 64 0 50 0;
#X connect 64 1 52 0;
#X connect 65 0 66 0;
#X connect 65 1 75 0;
#X connect 65 2 70 0;
#X connect 66 0 69 0;
#X connect 67 0 14 0;
#X connect 68 0 26 1;
#X connect 69 0 63 0;
#X connect 70 0 45 0;
#X connect 71 0 52 4;
#X connect 72 0 6 0;
#X connect 73 0 7 0;
#X connect 74 0 20 0;
#X connect 74 1 11 0;
#X connect 75 0 45 0;
#X restore 708 45 pd draw_object;
#N canvas 301 414 436 277 mark_pos 0;
#X obj 202 160 * 15;
#X obj 202 232 s \$0-vsl-mark-receiver;
#X obj 202 105 r \$0-radio-sender;
#X obj 202 184 + 101;
#X msg 202 208 pos \$1 101;
#X connect 0 0 3 0;
#X connect 2 0 0 0;
#X connect 3 0 4 0;
#X connect 4 0 1 0;
#X restore 843 45 pd mark_pos;
#N canvas -8 -8 1920 1037 sliders_to_array_and_canvases 0;
#X obj 107 59 r \$0-0-vsl-sender;
#X obj 118 79 r \$0-1-vsl-sender;
#X obj 127 99 r \$0-2-vsl-sender;
#X obj 138 120 r \$0-3-vsl-sender;
#X obj 147 139 r \$0-4-vsl-sender;
#X obj 158 159 r \$0-5-vsl-sender;
#X obj 167 179 r \$0-6-vsl-sender;
#X obj 178 199 r \$0-7-vsl-sender;
#X obj 357 59 r \$0-8-vsl-sender;
#X obj 368 79 r \$0-9-vsl-sender;
#X obj 377 99 r \$0-10-vsl-sender;
#X obj 387 119 r \$0-11-vsl-sender;
#X obj 397 139 r \$0-12-vsl-sender;
#X obj 408 159 r \$0-13-vsl-sender;
#X obj 417 179 r \$0-14-vsl-sender;
#X obj 428 199 r \$0-15-vsl-sender;
#X obj 614 59 r \$0-16-vsl-sender;
#X obj 625 79 r \$0-17-vsl-sender;
#X obj 634 99 r \$0-18-vsl-sender;
#X obj 645 119 r \$0-19-vsl-sender;
#X obj 654 139 r \$0-20-vsl-sender;
#X obj 665 159 r \$0-21-vsl-sender;
#X obj 674 179 r \$0-22-vsl-sender;
#X obj 686 199 r \$0-23-vsl-sender;
#X obj 872 59 r \$0-24-vsl-sender;
#X obj 883 79 r \$0-25-vsl-sender;
#X obj 894 99 r \$0-26-vsl-sender;
#X obj 903 119 r \$0-27-vsl-sender;
#X obj 912 139 r \$0-28-vsl-sender;
#X obj 923 159 r \$0-29-vsl-sender;
#X obj 932 180 r \$0-30-vsl-sender;
#X obj 943 199 r \$0-31-vsl-sender;
#X msg 62 59 \$1 0;
#X msg 827 59 \$1 24;
#X msg 837 79 \$1 25;
#X msg 846 99 \$1 26;
#X msg 857 119 \$1 27;
#X msg 867 139 \$1 28;
#X msg 877 159 \$1 29;
#X msg 887 179 \$1 30;
#X msg 897 199 \$1 31;
#X msg 312 59 \$1 8;
#X msg 322 79 \$1 9;
#X msg 332 99 \$1 10;
#X msg 342 119 \$1 11;
#X msg 352 139 \$1 12;
#X msg 362 159 \$1 13;
#X msg 372 179 \$1 14;
#X msg 382 199 \$1 15;
#X msg 569 59 \$1 16;
#X msg 579 79 \$1 17;
#X msg 589 99 \$1 18;
#X msg 599 119 \$1 19;
#X msg 609 139 \$1 20;
#X msg 619 159 \$1 21;
#X msg 629 179 \$1 22;
#X msg 639 199 \$1 23;
#X obj 62 218 t a;
#X obj 312 218 t a;
#X obj 569 218 t a;
#X obj 827 218 t a;
#X msg 72 79 \$1 1;
#X msg 82 99 \$1 2;
#X msg 92 119 \$1 3;
#X msg 102 139 \$1 4;
#X msg 112 159 \$1 5;
#X msg 122 179 \$1 6;
#X msg 132 199 \$1 7;
#X obj 62 440 array set \$0-seq;
#X obj 356 614 *;
#X obj 374 551 r \$0-height;
#X obj 356 770 pack f 13;
#X msg 356 793 vis_size \$2 \$1;
#X obj 356 527 -;
#X msg 356 502 1 \$1;
#X obj 374 576 expr $f1 * 16 - 1;
#X obj 356 816 s;
#X obj 62 314 t a a;
#X obj 62 413 unpack;
#X obj 356 411 unpack;
#X obj 616 775 pack f \$0;
#X msg 616 797 symbol \$2-\$1-vsl-cnv-receiver;
#X obj 397 689 spigot;
#X obj 356 637 t f f f;
#X obj 455 689 sel 0;
#X msg 455 738 13;
#X obj 397 740 * 13;
#X obj 436 664 < 3;
#X obj 397 716 / 2;
#X obj 564 427 r \$0-grid;
#X obj 356 456 expr if($f2 > 0 \, int($f1*$f2)/$f2 \, $f1);
#X connect 0 0 32 0;
#X connect 1 0 61 0;
#X connect 2 0 62 0;
#X connect 3 0 63 0;
#X connect 4 0 64 0;
#X connect 5 0 65 0;
#X connect 6 0 66 0;
#X connect 7 0 67 0;
#X connect 8 0 41 0;
#X connect 9 0 42 0;
#X connect 10 0 43 0;
#X connect 11 0 44 0;
#X connect 12 0 45 0;
#X connect 13 0 46 0;
#X connect 14 0 47 0;
#X connect 15 0 48 0;
#X connect 16 0 49 0;
#X connect 17 0 50 0;
#X connect 18 0 51 0;
#X connect 19 0 52 0;
#X connect 20 0 53 0;
#X connect 21 0 54 0;
#X connect 22 0 55 0;
#X connect 23 0 56 0;
#X connect 24 0 33 0;
#X connect 25 0 34 0;
#X connect 26 0 35 0;
#X connect 27 0 36 0;
#X connect 28 0 37 0;
#X connect 29 0 38 0;
#X connect 30 0 39 0;
#X connect 31 0 40 0;
#X connect 32 0 57 0;
#X connect 33 0 60 0;
#X connect 34 0 60 0;
#X connect 35 0 60 0;
#X connect 36 0 60 0;
#X connect 37 0 60 0;
#X connect 38 0 60 0;
#X connect 39 0 60 0;
#X connect 40 0 60 0;
#X connect 41 0 58 0;
#X connect 42 0 58 0;
#X connect 43 0 58 0;
#X connect 44 0 58 0;
#X connect 45 0 58 0;
#X connect 46 0 58 0;
#X connect 47 0 58 0;
#X connect 48 0 58 0;
#X connect 49 0 59 0;
#X connect 50 0 59 0;
#X connect 51 0 59 0;
#X connect 52 0 59 0;
#X connect 53 0 59 0;
#X connect 54 0 59 0;
#X connect 55 0 59 0;
#X connect 56 0 59 0;
#X connect 57 0 77 0;
#X connect 58 0 77 0;
#X connect 59 0 77 0;
#X connect 60 0 77 0;
#X connect 61 0 57 0;
#X connect 62 0 57 0;
#X connect 63 0 57 0;
#X connect 64 0 57 0;
#X connect 65 0 57 0;
#X connect 66 0 57 0;
#X connect 67 0 57 0;
#X connect 69 0 83 0;
#X connect 70 0 75 0;
#X connect 71 0 72 0;
#X connect 72 0 76 0;
#X connect 73 0 69 0;
#X connect 74 0 73 0;
#X connect 75 0 69 1;
#X connect 77 0 78 0;
#X connect 77 1 79 0;
#X connect 78 0 68 0;
#X connect 78 1 68 1;
#X connect 79 0 90 0;
#X connect 79 1 80 0;
#X connect 80 0 81 0;
#X connect 81 0 76 1;
#X connect 82 0 88 0;
#X connect 83 0 71 0;
#X connect 83 1 82 0;
#X connect 83 2 87 0;
#X connect 84 0 85 0;
#X connect 85 0 71 1;
#X connect 86 0 71 1;
#X connect 87 0 82 1;
#X connect 87 0 84 0;
#X connect 88 0 86 0;
#X connect 89 0 90 1;
#X connect 90 0 74 0;
#X restore 952 45 pd sliders_to_array_and_canvases;
#N canvas -70 295 1920 1037 handle_input 0;
#X obj 204 652 s \$0-radio-receiver;
#X obj 251 383 s \$0-radio-receiver;
#X obj 172 522 v \$0-pos;
#X obj 172 544 + 1;
#X text 225 299 set pos;
#X obj 60 322 s \$0-set-seq;
#X obj 433 483 s \$0-output;
#X obj 269 323 r \$0-length;
#X obj 141 78 r \$0-set-value;
#X obj 454 293 s \$0-reset;
#X obj 125 48 r \$0-input;
#X text 431 457 output values as list;
#X obj 172 569 t f f;
#X obj 92 651 s \$0-pos-abs;
#X obj 219 414 s \$0-pos-abs;
#X obj 219 323 t f f;
#X obj 848 468 array random \$0-seq;
#X obj 848 544 s \$0-random-output;
#X obj 848 492 t f f;
#X obj 993 544 s \$0-radio-sender;
#X obj 848 408 s \$0-run;
#N canvas 368 107 1920 1037 dyn-receive 0;
#X obj 56 308 outlet;
#X obj 123 169 pack s \$0;
#X obj 56 131 sel symbol;
#X msg 123 191 clear \, obj 100 100 r \$1 \, obj 100 150 s \$2-out
\, connect 0 0 1 0, f 62;
#X obj 56 285 r \$0-out;
#X obj 123 213 s pd-\$0-receive;
#N canvas 0 23 450 300 \$0-receive 0;
#X obj 100 100 r;
#X obj 100 150 s 1047-out;
#X connect 0 0 1 0;
#X restore 56 247 pd \$0-receive;
#X obj 56 107 inlet;
#X connect 1 0 3 0;
#X connect 2 1 1 0;
#X connect 3 0 5 0;
#X connect 4 0 0 0;
#X connect 7 0 2 0;
#X restore 159 133 pd dyn-receive;
#X obj 848 352 s \$0-stumble;
#X text 921 400 run through with "run <step_duration> <callback_receiver>"
(default tempo if 0);
#X text 948 345 stumble through with weighted steps "stumble <total_duration>"
;
#X obj 125 180 route values bang float set output list reset random
run stumble sum, f 75;
#X obj 849 271 array sum \$0-seq;
#X obj 849 295 s \$0-sum;
#X obj 222 592 r \$0-length;
#X text 372 548 set value via "set <index> <value> <ramp_time> <ease_mode>"
;
#X obj 423 342 s \$0-set-ramped-sequence;
#X text 53 282 set sequence \; via "values ...";
#X text 423 364 set sequence with ramp \; "<val 1> .. <val n> <ramp_time>
<ease_mode>";
#X text 169 496 increase pos via bang;
#X text 990 467 return random output via "random";
#X text 974 272 output value sum via "sum";
#X obj 395 526 s \$0-set-ramped-value;
#X obj 159 110 r \$0-receiver-name;
#X obj 390 109 r \$0-input-pos-abs;
#X obj 251 353 %;
#X obj 204 617 %;
#X connect 2 0 3 0;
#X connect 3 0 12 0;
#X connect 7 0 39 1;
#X connect 8 0 25 0;
#X connect 10 0 25 0;
#X connect 12 0 13 0;
#X connect 12 1 40 0;
#X connect 15 0 14 0;
#X connect 15 1 39 0;
#X connect 16 0 18 0;
#X connect 18 0 17 0;
#X connect 18 1 19 0;
#X connect 21 0 25 0;
#X connect 25 0 5 0;
#X connect 25 1 2 0;
#X connect 25 2 15 0;
#X connect 25 3 36 0;
#X connect 25 4 6 0;
#X connect 25 5 30 0;
#X connect 25 6 9 0;
#X connect 25 7 16 0;
#X connect 25 8 20 0;
#X connect 25 9 22 0;
#X connect 25 10 26 0;
#X connect 26 0 27 0;
#X connect 28 0 40 1;
#X connect 37 0 21 0;
#X connect 38 0 15 0;
#X connect 39 0 1 0;
#X connect 40 0 0 0;
#X restore 412 45 pd handle_input;
#X obj 97 45 s \$0-input;
#X obj 883 654 r \$0-grid;
#X obj 701 685 expr if($f2 > 0 \, int($f1*$f2) \, $f1);
#X obj 1300 654 r \$0-pos-abs;
#X text 1287 632 output absolute position;
#X msg 1300 680 pos-abs \$1;
#X obj 1661 20 inlet;
#X obj 1661 75 s \$0-input-pos-abs;
#X text 1520 100 right inlet for absolute position only;
#X obj 775 717 r \$0-grid;
#X obj 740 756 +;
#N canvas 475 71 823 593 run 0;
#X obj 273 47 r \$0-run;
#X obj 318 387 s;
#X text 347 387 receiver name;
#X obj 318 361 spigot;
#X msg 519 254 0;
#X msg 357 254 1;
#X obj 296 161 list split 1;
#X obj 336 214 route symbol;
#X obj 363 474 sel 0;
#X obj 296 446 route bang;
#X msg 296 493 200;
#X text 99 515 at end of run;
#X text 233 493 default;
#X text 429 214 callback name;
#X text 375 446 duration;
#X text 555 254 default to not sending callback;
#X text 390 254 allow callback;
#X obj 134 252 del;
#X obj 296 536 s \$0-step-duration;
#X obj 152 206 r \$0-step-duration;
#X obj 57 495 s \$0-input;
#X msg 103 206 1, f 1;
#X obj 57 252 spigot;
#X msg 121 206 0, f 1;
#X obj 57 317 f;
#X obj 57 159 t b b b;
#X msg 80 287 0, f 2;
#X obj 90 317 + 1;
#X obj 89 535 s \$0-run-done;
#X obj 318 300 r \$0-run-done;
#X obj 57 389 <;
#X obj 105 370 r \$0-length;
#X obj 57 414 sel 1;
#X obj 89 439 t b b;
#X obj 57 470 f;
#X obj 57 340 t f f;
#X obj 273 82 t b a b;
#X connect 0 0 36 0;
#X connect 3 0 1 0;
#X connect 4 0 3 1;
#X connect 5 0 3 1;
#X connect 6 0 9 0;
#X connect 6 1 7 0;
#X connect 6 2 9 0;
#X connect 7 0 1 1;
#X connect 7 0 5 0;
#X connect 8 0 10 0;
#X connect 8 1 18 0;
#X connect 9 0 10 0;
#X connect 9 1 8 0;
#X connect 10 0 18 0;
#X connect 17 0 22 0;
#X connect 19 0 17 1;
#X connect 21 0 22 1;
#X connect 22 0 17 0;
#X connect 22 0 24 0;
#X connect 23 0 22 1;
#X connect 24 0 27 0;
#X connect 24 0 35 0;
#X connect 25 0 22 0;
#X connect 25 1 26 0;
#X connect 25 2 21 0;
#X connect 26 0 24 1;
#X connect 27 0 24 1;
#X connect 29 0 3 0;
#X connect 30 0 32 0;
#X connect 31 0 30 1;
#X connect 32 0 34 0;
#X connect 32 1 33 0;
#X connect 33 0 28 0;
#X connect 33 1 23 0;
#X connect 34 0 20 0;
#X connect 35 0 30 0;
#X connect 35 1 34 1;
#X connect 36 0 25 0;
#X connect 36 1 6 0;
#X connect 36 2 4 0;
#X restore 1237 132 pd run;
#X text 1459 262 TODOS maybe \; show grid for int-scale \; correct
handling for duration of first step? \; allow min/max value setting?
\;, f 47;
#N canvas 193 107 1113 812 stumble 0;
#X obj 520 10 r \$0-stumble;
#X obj 273 532 array get \$0-seq;
#X msg 273 508 \$1 1;
#X obj 273 117 array sum \$0-seq;
#X obj 273 79 t b f;
#X obj 330 360 r \$0-length;
#X msg 273 157 1 \$1;
#X obj 273 181 /;
#X text 96 168 normalize duration to 1;
#X obj 301 575 *;
#X obj 273 223 *;
#X text 84 224 normalize to set duration;
#X obj 312 385 <;
#X obj 273 328 f;
#X obj 301 328 + 1;
#X msg 291 303 0;
#X obj 273 270 t b b f;
#X obj 273 410 spigot;
#X obj 406 574 del;
#X obj 362 671 f;
#X obj 273 352 t f f;
#X obj 406 598 t b b;
#X obj 345 468 s \$0-radio-sender;
#X obj 273 434 t f f f f;
#X obj 542 340 s;
#X text 571 340 receiver name;
#X obj 542 314 spigot;
#X msg 743 207 0;
#X msg 581 207 1;
#X obj 520 114 list split 1;
#X obj 560 167 route symbol;
#X obj 587 427 sel 0;
#X obj 520 399 route bang;
#X msg 520 446 200;
#X text 653 167 callback name;
#X text 599 399 duration;
#X text 779 207 default to not sending callback;
#X text 614 207 allow callback;
#X obj 404 650 r \$0-length;
#X obj 362 695 ==;
#X obj 362 719 sel 1;
#X obj 362 753 s \$0-stumble-done;
#X obj 520 489 s \$0-stumble-duration;
#X obj 542 253 r \$0-stumble-done;
#X text 850 18 FIXME: remove redundancy with run;
#X obj 273 55 r \$0-stumble-duration;
#X obj 520 35 t a b;
#X obj 404 674 - 1;
#X connect 0 0 46 0;
#X connect 1 0 9 0;
#X connect 2 0 1 0;
#X connect 3 0 6 0;
#X connect 4 0 3 0;
#X connect 4 1 10 1;
#X connect 5 0 12 1;
#X connect 6 0 7 0;
#X connect 7 0 10 0;
#X connect 9 0 18 0;
#X connect 10 0 16 0;
#X connect 12 0 17 1;
#X connect 13 0 14 0;
#X connect 13 0 20 0;
#X connect 14 0 13 1;
#X connect 15 0 13 1;
#X connect 16 0 13 0;
#X connect 16 1 15 0;
#X connect 16 2 9 1;
#X connect 17 0 23 0;
#X connect 18 0 21 0;
#X connect 19 0 39 0;
#X connect 20 0 17 0;
#X connect 20 1 12 0;
#X connect 21 0 13 0;
#X connect 21 1 19 0;
#X connect 23 0 2 0;
#X connect 23 2 19 1;
#X connect 23 3 22 0;
#X connect 26 0 24 0;
#X connect 27 0 26 1;
#X connect 28 0 26 1;
#X connect 29 0 32 0;
#X connect 29 1 30 0;
#X connect 29 2 32 0;
#X connect 30 0 24 1;
#X connect 30 0 28 0;
#X connect 31 0 33 0;
#X connect 31 1 42 0;
#X connect 32 0 33 0;
#X connect 32 1 31 0;
#X connect 33 0 42 0;
#X connect 38 0 47 0;
#X connect 39 0 40 0;
#X connect 40 0 41 0;
#X connect 43 0 26 0;
#X connect 45 0 4 0;
#X connect 46 0 29 0;
#X connect 46 1 27 0;
#X connect 47 0 39 1;
#X restore 1237 169 pd stumble;
#X msg 1485 825 cycle-done;
#X obj 1485 800 r \$0-run-done;
#X obj 1590 800 r \$0-stumble-done;
#X obj 1147 791 r \$0-sum;
#X msg 1147 815 sum \$1;
#X text 1147 769 output sum;
#N canvas 198 62 307 339 reset 0;
#X obj 47 206 until;
#X obj 47 229 f;
#X obj 76 229 + 1;
#X obj 47 183 t f b;
#X msg 91 206 0;
#X obj 47 156 f;
#X obj 65 132 r \$0-length;
#X text 43 57 reset \; FIXME \; could be done via list;
#X obj 47 290 s \$0-set-value;
#X msg 47 266 set \$1 0;
#X obj 47 109 r \$0-reset;
#X connect 0 0 1 0;
#X connect 1 0 2 0;
#X connect 1 0 9 0;
#X connect 2 0 1 1;
#X connect 3 0 0 0;
#X connect 3 1 4 0;
#X connect 4 0 1 1;
#X connect 5 0 3 0;
#X connect 6 0 5 1;
#X connect 9 0 8 0;
#X connect 10 0 5 0;
#X restore 1237 280 pd reset;
#X text 1482 776 output end of run or stumble run;
#X text 685 964 output only values >0;
#X text 841 784 output values (including 0s);
#X text 771 738 either val>0 OR grid set;
#N canvas 1498 -824 667 481 set_ramped_value 0;
#N canvas 1183 -944 922 356 \$0-dynamic-clone 0;
#X obj 53 48 inlet;
#X obj 53 72 s \$0-in;
#X obj 53 127 r \$0-length;
#X obj 53 149 pack 16 \$0;
#N canvas 1533 -853 450 300 \$0-clone 0;
#X obj 100 100 r 1051-in;
#X obj 100 150 clone 16 -seq-vel-helper-ramp.cl;
#X connect 0 0 1 0;
#X restore 53 257 pd \$0-clone;
#X obj 53 206 s pd-\$0-clone;
#X msg 53 184 clear \, obj 100 100 r \$2-in \, obj 100 150 clone \$1
-seq-vel-helper-ramp.cl \, connect 0 0 1 0, f 92;
#X connect 0 0 1 0;
#X connect 2 0 3 0;
#X connect 3 0 6 0;
#X connect 6 0 5 0;
#X restore 38 339 pd \$0-dynamic-clone;
#X msg 89 216 0;
#X obj 38 272 pack f f 0 s \$0;
#X obj 38 86 t l l;
#X obj 70 111 list length;
#X obj 70 135 sel 2 3;
#X text 133 137 if only 2 or 3 params given;
#X obj 38 54 r \$0-set-ramped-value;
#X msg 139 216 symbol linear;
#X connect 1 0 2 2;
#X connect 2 0 0 0;
#X connect 3 0 2 0;
#X connect 3 1 4 0;
#X connect 4 0 5 0;
#X connect 5 0 1 0;
#X connect 5 0 8 0;
#X connect 5 1 8 0;
#X connect 7 0 3 0;
#X connect 8 0 2 3;
#X restore 1237 206 pd set_ramped_value;
#N canvas 308 34 1488 897 set_ramped_sequence 0;
#X obj 151 534 list length;
#X obj 151 557 - 1;
#X obj 84 583 list split;
#X obj 84 694 until;
#X obj 84 717 f;
#X obj 116 717 + 1;
#X obj 84 671 t f b;
#X msg 128 694 0;
#X msg 276 623 get \$1 1;
#X obj 246 589 t f f;
#X obj 84 646 list length;
#X obj 246 692 pack f f 0 s \$0;
#X obj 51 248 list split;
#X obj 118 161 list length;
#X obj 118 184 - 1;
#X obj 51 46 r \$0-set-ramped-sequence;
#X obj 246 744 s \$0-set-ramped-value;
#X obj 84 308 route symbol;
#X msg 322 589 symbol linear;
#X obj 145 331 t b b;
#X obj 84 332 t b s;
#X text 192 334 if no ease-mode found \, proceed with previous list
and set linear easing, f 37;
#X obj 84 515 t l l;
#X obj 84 606 t l l;
#X obj 276 656 list store;
#X obj 84 486 list store;
#X msg 84 426 get 0 5;
#X obj 118 208 t f f;
#X msg 95 401 set get 0 \$1;
#X obj 51 109 t l l l;
#X text 404 746 set each ramped value;
#X connect 0 0 1 0;
#X connect 1 0 2 1;
#X connect 2 0 23 0;
#X connect 2 1 11 2;
#X connect 3 0 4 0;
#X connect 4 0 9 0;
#X connect 4 0 5 0;
#X connect 5 0 4 1;
#X connect 6 0 3 0;
#X connect 6 1 7 0;
#X connect 7 0 4 1;
#X connect 8 0 24 0;
#X connect 9 0 11 0;
#X connect 9 1 8 0;
#X connect 10 0 6 0;
#X connect 11 0 16 0;
#X connect 12 1 17 0;
#X connect 13 0 14 0;
#X connect 14 0 27 0;
#X connect 15 0 29 0;
#X connect 17 0 20 0;
#X connect 17 1 19 0;
#X connect 18 0 11 3;
#X connect 19 0 25 0;
#X connect 19 1 18 0;
#X connect 20 0 26 0;
#X connect 20 1 11 3;
#X connect 22 0 2 0;
#X connect 22 1 0 0;
#X connect 23 0 10 0;
#X connect 23 1 24 1;
#X connect 24 0 11 1;
#X connect 25 0 22 0;
#X connect 26 0 25 0;
#X connect 27 0 12 1;
#X connect 27 1 28 0;
#X connect 28 0 26 0;
#X connect 29 0 12 0;
#X connect 29 1 13 0;
#X connect 29 2 25 1;
#X restore 1237 243 pd set_ramped_sequence;
#X obj 998 910 t a a;
#X obj 968 937 outlet;
#X obj 1030 937 s;
#X obj 681 541 t f f f b;
#X obj 1048 910 r \$0-sender-name;
#X obj 1661 47 route pos-abs;
#X text 1459 160 TODOS \; init tempo with parameter \; set tempo via
message \; use 24bit colors \;, f 47;
#X connect 0 0 64 0;
#X connect 2 0 20 1;
#X connect 2 1 27 0;
#X connect 3 0 4 0;
#X connect 4 0 2 0;
#X connect 5 0 6 1;
#X connect 6 0 4 1;
#X connect 10 0 11 0;
#X connect 11 0 12 0;
#X connect 11 0 34 0;
#X connect 12 0 11 1;
#X connect 13 0 14 0;
#X connect 14 0 15 1;
#X connect 15 0 19 0;
#X connect 16 0 17 0;
#X connect 17 0 18 0;
#X connect 18 0 15 0;
#X connect 18 1 26 0;
#X connect 20 0 37 0;
#X connect 21 0 23 0;
#X connect 22 0 21 0;
#X connect 22 1 14 1;
#X connect 23 0 10 0;
#X connect 23 1 24 0;
#X connect 24 0 11 1;
#X connect 26 0 19 1;
#X connect 27 0 3 0;
#X connect 27 1 6 0;
#X connect 28 0 66 0;
#X connect 29 0 94 0;
#X connect 32 0 28 0;
#X connect 34 0 16 0;
#X connect 34 1 17 1;
#X connect 34 2 13 0;
#X connect 36 0 22 0;
#X connect 38 0 20 0;
#X connect 39 0 25 0;
#X connect 40 0 39 1;
#X connect 41 0 39 0;
#X connect 41 1 74 0;
#X connect 41 2 43 0;
#X connect 42 0 91 0;
#X connect 43 0 91 0;
#X connect 46 0 49 0;
#X connect 47 0 46 0;
#X connect 47 1 46 1;
#X connect 49 0 91 0;
#X connect 50 0 51 0;
#X connect 51 0 56 0;
#X connect 52 0 53 1;
#X connect 53 0 51 1;
#X connect 54 0 50 0;
#X connect 54 1 53 0;
#X connect 55 0 91 0;
#X connect 56 0 55 0;
#X connect 57 0 54 0;
#X connect 65 0 66 1;
#X connect 66 0 41 0;
#X connect 67 0 69 0;
#X connect 69 0 91 0;
#X connect 70 0 96 0;
#X connect 73 0 74 1;
#X connect 74 0 40 0;
#X connect 78 0 91 0;
#X connect 79 0 78 0;
#X connect 80 0 78 0;
#X connect 81 0 82 0;
#X connect 82 0 91 0;
#X connect 91 0 92 0;
#X connect 91 1 93 0;
#X connect 94 0 30 0;
#X connect 94 1 32 0;
#X connect 94 2 42 0;
#X connect 94 3 47 0;
#X connect 95 0 93 1;
#X connect 96 0 71 0;
#X coords 0 -1 1 1 240 49 2 100 100;
