#N canvas 601 -757 622 634 12;
#X obj 98 78 inlet;
#X obj 175 526 s;
#X msg 193 270 symbol \$1-\$2-vsl-receiver;
#X obj 104 345 line;
#X obj 382 246 pack \$1 1;
#X obj 193 246 pack f \$1;
#X obj 382 273 array get;
#X msg 457 246 symbol \$1-seq;
#X obj 193 169 t f f;
#X obj 382 297 t f f;
#X obj 69 168 t b f b;
#X msg 69 268 1;
#X msg 382 326 set 0;
#X obj 140 482 expr $f3 + ($f2 - $f3) * $f1;
#X text 145 462 $f1: 0..1;
#X text 241 463 $f2: to;
#X text 326 462 $f3: from;
#X obj 98 122 unpack f f s f;
#X obj 140 411 -seq-vel-helper-ease;
#X connect 0 0 17 0;
#X connect 2 0 1 1;
#X connect 3 0 18 0;
#X connect 4 0 6 0;
#X connect 5 0 2 0;
#X connect 6 0 9 0;
#X connect 7 0 6 2;
#X connect 8 0 5 0;
#X connect 8 1 7 0;
#X connect 9 0 12 0;
#X connect 9 1 13 2;
#X connect 10 0 11 0;
#X connect 10 1 13 1;
#X connect 10 2 4 0;
#X connect 11 0 3 0;
#X connect 12 0 3 0;
#X connect 13 0 1 0;
#X connect 17 0 10 0;
#X connect 17 1 3 1;
#X connect 17 2 18 0;
#X connect 17 3 8 0;
#X connect 18 0 13 0;
