#N canvas 1089 278 666 634 12;
#X obj 138 48 inlet;
#X obj 215 486 s;
#X msg 233 241 symbol \$1-\$2-vsl-receiver;
#X obj 144 310 line;
#X obj 432 216 pack \$1 1;
#X obj 233 216 pack f \$1;
#X obj 432 241 array get;
#X msg 507 216 symbol \$1-seq;
#X obj 432 266 t f f;
#X obj 59 138 t b f b;
#X msg 59 241 1;
#X msg 432 291 set 0;
#X obj 180 442 expr $f3 + ($f2 - $f3) * $f1;
#X text 185 422 $f1: 0..1;
#X text 281 423 $f2: to;
#X text 366 422 $f3: from;
#X obj 138 92 unpack f f s f;
#X obj 180 381 -seq-vel-helper-ease;
#X obj 137 194 t f f;
#X obj 57 473 t f b;
#X obj 57 498 del;
#X text 96 574 hide label during automatic transition;
#X msg 89 523 0, f 2;
#X msg 57 523 1, f 2;
#X msg 123 524 symbol \$1-show-slider-label;
#X obj 233 139 t f f f;
#X obj 89 548 s;
#X connect 0 0 16 0;
#X connect 2 0 1 1;
#X connect 3 0 17 0;
#X connect 4 0 6 0;
#X connect 5 0 2 0;
#X connect 6 0 8 0;
#X connect 7 0 6 2;
#X connect 8 0 11 0;
#X connect 8 1 12 2;
#X connect 9 0 10 0;
#X connect 9 1 12 1;
#X connect 9 2 4 0;
#X connect 10 0 3 0;
#X connect 11 0 3 0;
#X connect 12 0 1 0;
#X connect 16 0 9 0;
#X connect 16 1 18 0;
#X connect 16 2 17 0;
#X connect 16 3 25 0;
#X connect 17 0 12 0;
#X connect 18 0 19 0;
#X connect 18 1 3 1;
#X connect 19 0 20 0;
#X connect 19 1 22 0;
#X connect 20 0 23 0;
#X connect 22 0 26 0;
#X connect 23 0 26 0;
#X connect 24 0 26 1;
#X connect 25 0 5 0;
#X connect 25 1 7 0;
#X connect 25 2 24 0;
