#N canvas 53 -952 1147 826 12;
#X obj 599 140 loadbang;
#X msg 631 260 3.14159;
#X obj 631 284 v PI;
#X text 426 102 input 0..1;
#X msg 690 414 inout-cubic;
#X msg 690 438 inout;
#X msg 690 462 in-cubic;
#X msg 690 486 in;
#X msg 690 510 out-cubic;
#X msg 690 534 out;
#X obj 379 101 inlet;
#X obj 379 619 outlet;
#X obj 599 167 t b b;
#X obj 453 283 list fromsymbol;
#X obj 453 307 route list;
#X obj 453 351 list tosymbol;
#X text 458 329 check if symbol given;
#X obj 379 141 route float;
#X text 466 236 default to linear;
#X msg 690 390 linear;
#X obj 453 258 symbol linear;
#N canvas -8 -1088 1920 1037 ease-function 0;
#X obj 69 56 inlet;
#X obj 68 650 outlet;
#X obj 420 86 expr if($f1 < 0.5 \, 4 * pow($f1 \, 3) \, 1 - pow(-2.0
* $f1 + 2 \, 3) / 2), f 69;
#X obj 420 139 expr -(cos(PI * $f1) - 1) / 2, f 31;
#X obj 420 110 s \$0-value;
#X obj 420 163 s \$0-value;
#X obj 69 318 s;
#X obj 68 626 r \$0-value;
#X obj 167 56 inlet;
#X obj 87 250 symbol;
#X obj 87 203 pack symbol \$0;
#X msg 87 226 \$2-\$1;
#X obj 420 57 s \$0-value;
#X obj 297 86 r \$0-inout-cubic;
#X obj 338 139 r \$0-inout;
#X obj 420 223 s \$0-value;
#X obj 420 276 s \$0-value;
#X obj 314 199 r \$0-in-cubic;
#X obj 358 252 r \$0-in;
#X obj 420 252 expr 1 - cos(($f1 * PI) / 2) \;, f 30;
#X obj 420 199 expr pow($f1 \, 3);
#X obj 420 343 s \$0-value;
#X obj 420 396 s \$0-value;
#X obj 311 319 r \$0-out-cubic;
#X obj 348 372 r \$0-out;
#X obj 420 372 expr sin(($f1 * PI) / 2) \;, f 30;
#X obj 420 319 expr 1 - pow(1 - $f1 \, 3) \;;
#X obj 332 57 r \$0-linear;
#X connect 0 0 6 0;
#X connect 2 0 4 0;
#X connect 3 0 5 0;
#X connect 7 0 1 0;
#X connect 8 0 10 0;
#X connect 9 0 6 1;
#X connect 10 0 11 0;
#X connect 11 0 9 0;
#X connect 13 0 2 0;
#X connect 14 0 3 0;
#X connect 17 0 20 0;
#X connect 18 0 19 0;
#X connect 19 0 16 0;
#X connect 20 0 15 0;
#X connect 23 0 26 0;
#X connect 24 0 25 0;
#X connect 25 0 22 0;
#X connect 26 0 21 0;
#X connect 27 0 12 0;
#X restore 379 570 pd ease-function;
#X connect 0 0 12 0;
#X connect 1 0 2 0;
#X connect 4 0 21 1;
#X connect 5 0 21 1;
#X connect 6 0 21 1;
#X connect 7 0 21 1;
#X connect 8 0 21 1;
#X connect 9 0 21 1;
#X connect 10 0 17 0;
#X connect 12 0 20 0;
#X connect 12 1 1 0;
#X connect 13 0 14 0;
#X connect 14 0 15 0;
#X connect 15 0 21 1;
#X connect 17 0 21 0;
#X connect 17 1 20 0;
#X connect 19 0 21 1;
#X connect 20 0 13 0;
#X connect 21 0 11 0;
#X coords 0 826 1 825 32 32 0;
