#N canvas 25 14 1851 1001 12;
#X obj 99 20 inlet;
#X obj 1226 45 namecanvas \$0-this-canvas;
#X obj 320 497 savestate;
#N canvas -310 55 1920 1037 \$0-interface 0;
#X obj 100 100 hradio 15 1 1 16 14045-radio-sender 14045-radio-receiver
empty 0 -8 0 10 #fcfcfc #000000 #000000 0;
#X obj 100 102 vsl 15 44 0 1 0 0 14045-0-vsl-sender 14045-0-vsl-receiver
empty 0 -9 0 10 #fcfcfc #000000 #000000 0 1;
#X obj 101 101 cnv 13 13 47 empty empty empty 20 12 0 14 #acacac #acacac
0;
#X obj 101 101 cnv 1 13 47 empty 14045-0-vsl-cnv-receiver empty 20
12 0 14 #fcfcfc #fcfcfc 0;
#X obj 101 101 cnv 1 13 1 empty 14045-vsl-mark-receiver empty 20 12
0 14 #000000 #000000 0;
#X obj 115 102 vsl 15 44 0 1 0 0 14045-1-vsl-sender 14045-1-vsl-receiver
empty 0 -9 0 10 #fcfcfc #000000 #000000 0 1;
#X obj 116 101 cnv 13 13 47 empty empty empty 20 12 0 14 #acacac #acacac
0;
#X obj 116 101 cnv 1 13 47 empty 14045-1-vsl-cnv-receiver empty 20
12 0 14 #fcfcfc #fcfcfc 0;
#X obj 101 101 cnv 1 13 1 empty 14045-vsl-mark-receiver empty 20 12
0 14 #000000 #000000 0;
#X obj 130 102 vsl 15 44 0 1 0 0 14045-2-vsl-sender 14045-2-vsl-receiver
empty 0 -9 0 10 #fcfcfc #000000 #000000 0 1;
#X obj 131 101 cnv 13 13 47 empty empty empty 20 12 0 14 #acacac #acacac
0;
#X obj 131 101 cnv 1 13 47 empty 14045-2-vsl-cnv-receiver empty 20
12 0 14 #fcfcfc #fcfcfc 0;
#X obj 101 101 cnv 1 13 1 empty 14045-vsl-mark-receiver empty 20 12
0 14 #000000 #000000 0;
#X obj 145 102 vsl 15 44 0 1 0 0 14045-3-vsl-sender 14045-3-vsl-receiver
empty 0 -9 0 10 #fcfcfc #000000 #000000 0 1;
#X obj 146 101 cnv 13 13 47 empty empty empty 20 12 0 14 #acacac #acacac
0;
#X obj 146 101 cnv 1 13 47 empty 14045-3-vsl-cnv-receiver empty 20
12 0 14 #fcfcfc #fcfcfc 0;
#X obj 101 101 cnv 1 13 1 empty 14045-vsl-mark-receiver empty 20 12
0 14 #000000 #000000 0;
#X obj 160 102 vsl 15 44 0 1 0 0 14045-4-vsl-sender 14045-4-vsl-receiver
empty 0 -9 0 10 #dcdcdc #000000 #000000 0 1;
#X obj 161 101 cnv 13 13 47 empty empty empty 20 12 0 14 #9c9c9c #9c9c9c
0;
#X obj 161 101 cnv 1 13 47 empty 14045-4-vsl-cnv-receiver empty 20
12 0 14 #dcdcdc #dcdcdc 0;
#X obj 101 101 cnv 1 13 1 empty 14045-vsl-mark-receiver empty 20 12
0 14 #000000 #000000 0;
#X obj 175 102 vsl 15 44 0 1 0 0 14045-5-vsl-sender 14045-5-vsl-receiver
empty 0 -9 0 10 #dcdcdc #000000 #000000 0 1;
#X obj 176 101 cnv 13 13 47 empty empty empty 20 12 0 14 #9c9c9c #9c9c9c
0;
#X obj 176 101 cnv 1 13 47 empty 14045-5-vsl-cnv-receiver empty 20
12 0 14 #dcdcdc #dcdcdc 0;
#X obj 101 101 cnv 1 13 1 empty 14045-vsl-mark-receiver empty 20 12
0 14 #000000 #000000 0;
#X obj 190 102 vsl 15 44 0 1 0 0 14045-6-vsl-sender 14045-6-vsl-receiver
empty 0 -9 0 10 #dcdcdc #000000 #000000 0 1;
#X obj 191 101 cnv 13 13 47 empty empty empty 20 12 0 14 #9c9c9c #9c9c9c
0;
#X obj 191 101 cnv 1 13 47 empty 14045-6-vsl-cnv-receiver empty 20
12 0 14 #dcdcdc #dcdcdc 0;
#X obj 101 101 cnv 1 13 1 empty 14045-vsl-mark-receiver empty 20 12
0 14 #000000 #000000 0;
#X obj 205 102 vsl 15 44 0 1 0 0 14045-7-vsl-sender 14045-7-vsl-receiver
empty 0 -9 0 10 #dcdcdc #000000 #000000 0 1;
#X obj 206 101 cnv 13 13 47 empty empty empty 20 12 0 14 #9c9c9c #9c9c9c
0;
#X obj 206 101 cnv 1 13 47 empty 14045-7-vsl-cnv-receiver empty 20
12 0 14 #dcdcdc #dcdcdc 0;
#X obj 101 101 cnv 1 13 1 empty 14045-vsl-mark-receiver empty 20 12
0 14 #000000 #000000 0;
#X obj 220 102 vsl 15 44 0 1 0 0 14045-8-vsl-sender 14045-8-vsl-receiver
empty 0 -9 0 10 #fcfcfc #000000 #000000 0 1;
#X obj 221 101 cnv 13 13 47 empty empty empty 20 12 0 14 #acacac #acacac
0;
#X obj 221 101 cnv 1 13 47 empty 14045-8-vsl-cnv-receiver empty 20
12 0 14 #fcfcfc #fcfcfc 0;
#X obj 101 101 cnv 1 13 1 empty 14045-vsl-mark-receiver empty 20 12
0 14 #000000 #000000 0;
#X obj 235 102 vsl 15 44 0 1 0 0 14045-9-vsl-sender 14045-9-vsl-receiver
empty 0 -9 0 10 #fcfcfc #000000 #000000 0 1;
#X obj 236 101 cnv 13 13 47 empty empty empty 20 12 0 14 #acacac #acacac
0;
#X obj 236 101 cnv 1 13 47 empty 14045-9-vsl-cnv-receiver empty 20
12 0 14 #fcfcfc #fcfcfc 0;
#X obj 101 101 cnv 1 13 1 empty 14045-vsl-mark-receiver empty 20 12
0 14 #000000 #000000 0;
#X obj 250 102 vsl 15 44 0 1 0 0 14045-10-vsl-sender 14045-10-vsl-receiver
empty 0 -9 0 10 #fcfcfc #000000 #000000 0 1;
#X obj 251 101 cnv 13 13 47 empty empty empty 20 12 0 14 #acacac #acacac
0;
#X obj 251 101 cnv 1 13 47 empty 14045-10-vsl-cnv-receiver empty 20
12 0 14 #fcfcfc #fcfcfc 0;
#X obj 101 101 cnv 1 13 1 empty 14045-vsl-mark-receiver empty 20 12
0 14 #000000 #000000 0;
#X obj 265 102 vsl 15 44 0 1 0 0 14045-11-vsl-sender 14045-11-vsl-receiver
empty 0 -9 0 10 #fcfcfc #000000 #000000 0 1;
#X obj 266 101 cnv 13 13 47 empty empty empty 20 12 0 14 #acacac #acacac
0;
#X obj 266 101 cnv 1 13 47 empty 14045-11-vsl-cnv-receiver empty 20
12 0 14 #fcfcfc #fcfcfc 0;
#X obj 101 101 cnv 1 13 1 empty 14045-vsl-mark-receiver empty 20 12
0 14 #000000 #000000 0;
#X obj 280 102 vsl 15 44 0 1 0 0 14045-12-vsl-sender 14045-12-vsl-receiver
empty 0 -9 0 10 #dcdcdc #000000 #000000 0 1;
#X obj 281 101 cnv 13 13 47 empty empty empty 20 12 0 14 #9c9c9c #9c9c9c
0;
#X obj 281 101 cnv 1 13 47 empty 14045-12-vsl-cnv-receiver empty 20
12 0 14 #dcdcdc #dcdcdc 0;
#X obj 101 101 cnv 1 13 1 empty 14045-vsl-mark-receiver empty 20 12
0 14 #000000 #000000 0;
#X obj 295 102 vsl 15 44 0 1 0 0 14045-13-vsl-sender 14045-13-vsl-receiver
empty 0 -9 0 10 #dcdcdc #000000 #000000 0 1;
#X obj 296 101 cnv 13 13 47 empty empty empty 20 12 0 14 #9c9c9c #9c9c9c
0;
#X obj 296 101 cnv 1 13 47 empty 14045-13-vsl-cnv-receiver empty 20
12 0 14 #dcdcdc #dcdcdc 0;
#X obj 101 101 cnv 1 13 1 empty 14045-vsl-mark-receiver empty 20 12
0 14 #000000 #000000 0;
#X obj 310 102 vsl 15 44 0 1 0 0 14045-14-vsl-sender 14045-14-vsl-receiver
empty 0 -9 0 10 #dcdcdc #000000 #000000 0 1;
#X obj 311 101 cnv 13 13 47 empty empty empty 20 12 0 14 #9c9c9c #9c9c9c
0;
#X obj 311 101 cnv 1 13 47 empty 14045-14-vsl-cnv-receiver empty 20
12 0 14 #dcdcdc #dcdcdc 0;
#X obj 101 101 cnv 1 13 1 empty 14045-vsl-mark-receiver empty 20 12
0 14 #000000 #000000 0;
#X obj 325 102 vsl 15 44 0 1 0 0 14045-15-vsl-sender 14045-15-vsl-receiver
empty 0 -9 0 10 #dcdcdc #000000 #000000 0 1;
#X obj 326 101 cnv 13 13 47 empty empty empty 20 12 0 14 #9c9c9c #9c9c9c
0;
#X obj 326 101 cnv 1 13 47 empty 14045-15-vsl-cnv-receiver empty 20
12 0 14 #dcdcdc #dcdcdc 0;
#X obj 101 101 cnv 1 13 1 empty 14045-vsl-mark-receiver empty 20 12
0 14 #000000 #000000 0;
#X coords 0 -1 1 1 240 49 2 100 100;
#X restore 100 100 pd \$0-interface;
#X text 397 496 save state;
#X text 249 541 load state;
#X obj 103 622 until;
#X obj 103 645 f;
#X obj 132 645 + 1;
#X msg 256 721 get \$1 1;
#X obj 256 744 list store;
#X obj 103 847 f;
#X obj 103 721 \$0;
#X obj 103 744 pack;
#X obj 103 807 t b l;
#X obj 103 870 s;
#X obj 253 593 list store;
#X obj 103 560 list length;
#X obj 103 599 t f b;
#X msg 147 622 0;
#X obj 621 935 outlet;
#X msg 135 847 symbol \$1-\$2-vsl-receiver;
#X obj 621 497 r \$0-radio-sender;
#X obj 1226 78 array define \$0-seq;
#X text 915 602 output position;
#X obj 103 683 t b f f;
#X text 265 769 get value;
#X obj 103 497 r \$0-set-seq;
#X obj 253 617 s \$0-set-seq;
#X obj 253 568 r \$0-init-done;
#X obj 621 777 spigot;
#X obj 660 753 > 0;
#X obj 621 687 t f f f;
#X msg 918 624 pos \$1;
#X msg 785 788 val \$1;
#X text 109 769 set slider address;
#N canvas 176 63 1373 821 calculate_color 0;
#X obj 241 303 i;
#X obj 181 303 i;
#X obj 121 169 / 100;
#X obj 121 303 i;
#X obj 241 168 % 10;
#X obj 181 169 / 10;
#X obj 181 193 % 10;
#X obj 63 329 f;
#X obj 63 121 t b f f f;
#X obj 81 389 s \$0-color;
#X obj 63 34 r \$0-input-color;
#X obj 121 257 * 63;
#X obj 121 280 / 9;
#X obj 181 257 * 63;
#X obj 181 280 / 9;
#X obj 241 257 * 63;
#X obj 241 280 / 9;
#X obj 81 359 expr -1-($f1+$f2*64+$f3*4096);
#X obj 241 192 i;
#X obj 181 217 i;
#X obj 121 193 i;
#X text 245 143 R;
#X text 188 144 G;
#X text 128 145 B;
#X obj 564 301 i;
#X obj 504 301 i;
#X obj 444 167 / 100;
#X obj 444 301 i;
#X obj 564 166 % 10;
#X obj 504 167 / 10;
#X obj 504 191 % 10;
#X obj 386 317 f;
#X obj 386 119 t b f f f;
#X obj 404 357 expr -1-($f1+$f2*64+$f3*4096);
#X obj 564 190 i;
#X obj 504 215 i;
#X obj 444 191 i;
#X text 568 141 R;
#X text 511 142 G;
#X text 451 143 B;
#X obj 405 386 s \$0-color-dark;
#X obj 564 278 / 9;
#X obj 504 278 / 9;
#X obj 444 278 / 9;
#X obj 444 255 * 55;
#X obj 504 255 * 55;
#X obj 564 255 * 55;
#X obj 874 296 i;
#X obj 814 296 i;
#X obj 754 162 / 100;
#X obj 754 296 i;
#X obj 874 161 % 10;
#X obj 814 162 / 10;
#X obj 814 186 % 10;
#X obj 696 312 f;
#X obj 696 114 t b f f f;
#X obj 714 352 expr -1-($f1+$f2*64+$f3*4096);
#X obj 874 185 i;
#X obj 814 210 i;
#X obj 754 186 i;
#X text 878 136 R;
#X text 821 137 G;
#X text 761 138 B;
#X obj 874 273 / 9;
#X obj 814 273 / 9;
#X obj 754 273 / 9;
#X obj 715 381 s \$0-color-darker;
#X obj 754 250 * 43;
#X obj 814 250 * 43;
#X obj 874 250 * 43;
#X obj 1164 296 i;
#X obj 1104 296 i;
#X obj 1044 162 / 100;
#X obj 1044 296 i;
#X obj 1164 161 % 10;
#X obj 1104 162 / 10;
#X obj 1104 186 % 10;
#X obj 986 312 f;
#X obj 986 114 t b f f f;
#X obj 1004 352 expr -1-($f1+$f2*64+$f3*4096);
#X obj 1164 185 i;
#X obj 1104 210 i;
#X obj 1044 186 i;
#X text 1168 136 R;
#X text 1111 137 G;
#X text 1051 138 B;
#X obj 1164 273 / 9;
#X obj 1104 273 / 9;
#X obj 1044 273 / 9;
#X obj 1044 250 * 39;
#X obj 1104 250 * 39;
#X obj 1164 250 * 39;
#X obj 63 62 t f f f f;
#X obj 1005 381 s \$0-color-darkest;
#X connect 0 0 7 1;
#X connect 1 0 17 1;
#X connect 2 0 20 0;
#X connect 3 0 17 2;
#X connect 4 0 18 0;
#X connect 5 0 6 0;
#X connect 6 0 19 0;
#X connect 7 0 17 0;
#X connect 8 0 7 0;
#X connect 8 1 2 0;
#X connect 8 2 5 0;
#X connect 8 3 4 0;
#X connect 10 0 92 0;
#X connect 11 0 12 0;
#X connect 12 0 3 0;
#X connect 13 0 14 0;
#X connect 14 0 1 0;
#X connect 15 0 16 0;
#X connect 16 0 0 0;
#X connect 17 0 9 0;
#X connect 18 0 15 0;
#X connect 19 0 13 0;
#X connect 20 0 11 0;
#X connect 24 0 31 1;
#X connect 25 0 33 1;
#X connect 26 0 36 0;
#X connect 27 0 33 2;
#X connect 28 0 34 0;
#X connect 29 0 30 0;
#X connect 30 0 35 0;
#X connect 31 0 33 0;
#X connect 32 0 31 0;
#X connect 32 1 26 0;
#X connect 32 2 29 0;
#X connect 32 3 28 0;
#X connect 33 0 40 0;
#X connect 34 0 46 0;
#X connect 35 0 45 0;
#X connect 36 0 44 0;
#X connect 41 0 24 0;
#X connect 42 0 25 0;
#X connect 43 0 27 0;
#X connect 44 0 43 0;
#X connect 45 0 42 0;
#X connect 46 0 41 0;
#X connect 47 0 54 1;
#X connect 48 0 56 1;
#X connect 49 0 59 0;
#X connect 50 0 56 2;
#X connect 51 0 57 0;
#X connect 52 0 53 0;
#X connect 53 0 58 0;
#X connect 54 0 56 0;
#X connect 55 0 54 0;
#X connect 55 1 49 0;
#X connect 55 2 52 0;
#X connect 55 3 51 0;
#X connect 56 0 66 0;
#X connect 57 0 69 0;
#X connect 58 0 68 0;
#X connect 59 0 67 0;
#X connect 63 0 47 0;
#X connect 64 0 48 0;
#X connect 65 0 50 0;
#X connect 67 0 65 0;
#X connect 68 0 64 0;
#X connect 69 0 63 0;
#X connect 70 0 77 1;
#X connect 71 0 79 1;
#X connect 72 0 82 0;
#X connect 73 0 79 2;
#X connect 74 0 80 0;
#X connect 75 0 76 0;
#X connect 76 0 81 0;
#X connect 77 0 79 0;
#X connect 78 0 77 0;
#X connect 78 1 72 0;
#X connect 78 2 75 0;
#X connect 78 3 74 0;
#X connect 79 0 93 0;
#X connect 80 0 91 0;
#X connect 81 0 90 0;
#X connect 82 0 89 0;
#X connect 86 0 70 0;
#X connect 87 0 71 0;
#X connect 88 0 73 0;
#X connect 89 0 88 0;
#X connect 90 0 87 0;
#X connect 91 0 86 0;
#X connect 92 0 8 0;
#X connect 92 1 32 0;
#X connect 92 2 55 0;
#X connect 92 3 78 0;
#X restore 551 45 pd calculate_color;
#X text 1358 602 output duration;
#X msg 1392 700 dur \$1;
#X obj 1573 708 list trim;
#X obj 1573 684 list prepend values;
#X obj 1573 552 r \$0-output;
#X text 1645 708 output list as "values";
#N canvas 389 263 1340 716 args 0;
#X obj 487 555 sel 0;
#X obj 487 639 s \$0-height;
#X msg 487 579 3;
#X obj 327 639 s \$0-input-color;
#X obj 327 555 sel 0;
#X msg 327 579 999;
#X text 224 418 length;
#X text 371 418 color;
#X text 531 418 height;
#X obj 181 555 sel 0;
#X msg 181 579 16;
#X obj 213 579 clip 1 32;
#X obj 181 639 s \$0-length;
#X obj 519 579 clip 2 15;
#X obj 635 639 s \$0-grid;
#X text 804 418 receiver;
#X text 679 418 grid;
#X text 965 418 sender;
#X obj 967 639 s \$0-sender-name;
#X obj 807 639 s \$0-receiver-name;
#X obj 871 280 route 1 2 3 4 5 6;
#X obj 807 442 symbol;
#X obj 967 442 symbol;
#X obj 79 61 loadbang;
#X obj 181 532 float 0;
#X obj 327 532 float 0;
#X obj 487 532 float 0;
#X obj 635 532 float 0;
#X obj 79 85 t b b;
#X obj 227 442 symbol;
#X obj 533 442 symbol;
#X obj 681 442 symbol;
#X obj 681 466 f;
#X obj 533 466 f;
#X obj 227 466 f;
#X text 704 123 positional arguments;
#X text 284 126 named arguments;
#N canvas 211 71 1322 874 parse_named_or_positional_arguments 0;
#X msg 215 107 args 0;
#X obj 215 131 pdcontrol;
#X obj 215 228 until;
#X obj 215 507 list split 1;
#X obj 215 483 list store;
#X obj 289 561 list fromsymbol;
#X obj 625 141 until;
#X obj 604 200 list split 1;
#X obj 604 176 list store;
#X obj 604 242 sel 61;
#X obj 604 485 list store;
#X msg 710 391 append \$1;
#X obj 604 508 list tosymbol;
#X text 856 413 bang value;
#X text 535 417 bang key;
#X obj 664 78 t b l b b;
#X obj 604 418 t b b;
#X obj 738 485 list store;
#X obj 738 508 list tosymbol;
#X obj 604 566 list prepend;
#X obj 604 590 list trim;
#X obj 811 412 t b b;
#X obj 604 794 outlet;
#X text 661 56 input params as ascii-lists;
#X obj 215 532 route float;
#X obj 215 62 t b b;
#X obj 604 264 t b b;
#X obj 215 155 t l l;
#X obj 215 202 list length;
#X obj 215 37 inlet;
#X obj 957 779 outlet;
#X text 958 802 positional arguments as "<n> <argument>";
#X text 604 817 named arguments as "<key> <value>";
#X obj 604 684 s;
#X obj 957 591 r \$0-positioned-argument-receiver;
#X obj 604 772 r \$0-named-argument-receiver;
#X obj 957 711 list prepend;
#X obj 215 252 t b b;
#X obj 622 662 r \$0-argument-receiver-name;
#X obj 247 312 \$0;
#X obj 247 399 s \$0-argument-receiver-name;
#X obj 539 312 \$0;
#X msg 539 335 symbol \$1-named-argument-receiver;
#X msg 247 335 symbol \$1-positioned-argument-receiver;
#X obj 989 670 f;
#X obj 1019 670 + 1;
#X msg 1007 643 1;
#X obj 957 615 t a b;
#X obj 957 735 list trim;
#X text 500 242 check for "=";
#X text 735 138 FIXME: might look simpler with [list length]->[until]
\; (fewer connections);
#X connect 0 0 1 0;
#X connect 1 0 27 0;
#X connect 2 0 37 0;
#X connect 3 0 24 0;
#X connect 3 1 4 1;
#X connect 4 0 3 0;
#X connect 5 0 15 0;
#X connect 6 0 8 0;
#X connect 7 0 9 0;
#X connect 7 1 8 1;
#X connect 7 2 21 0;
#X connect 8 0 7 0;
#X connect 9 0 26 0;
#X connect 9 1 11 0;
#X connect 10 0 12 0;
#X connect 11 0 10 0;
#X connect 11 0 17 0;
#X connect 12 0 19 1;
#X connect 15 0 6 0;
#X connect 15 1 8 1;
#X connect 15 2 10 1;
#X connect 15 2 17 1;
#X connect 15 3 19 1;
#X connect 16 0 17 1;
#X connect 16 1 10 0;
#X connect 17 0 18 0;
#X connect 18 0 19 0;
#X connect 19 0 20 0;
#X connect 20 0 33 0;
#X connect 21 0 17 0;
#X connect 21 1 6 1;
#X connect 24 0 33 0;
#X connect 24 1 5 0;
#X connect 25 0 0 0;
#X connect 25 1 46 0;
#X connect 26 0 41 0;
#X connect 26 1 16 0;
#X connect 27 0 28 0;
#X connect 27 1 4 1;
#X connect 28 0 2 0;
#X connect 29 0 25 0;
#X connect 34 0 47 0;
#X connect 35 0 22 0;
#X connect 36 0 48 0;
#X connect 37 0 4 0;
#X connect 37 1 39 0;
#X connect 38 0 33 1;
#X connect 39 0 43 0;
#X connect 41 0 42 0;
#X connect 42 0 40 0;
#X connect 43 0 40 0;
#X connect 44 0 45 0;
#X connect 44 0 36 1;
#X connect 45 0 44 1;
#X connect 46 0 44 1;
#X connect 47 0 36 0;
#X connect 47 1 44 0;
#X connect 48 0 30 0;
#X restore 413 104 pd parse_named_or_positional_arguments;
#X obj 227 280 route length color height grid receiver sender partition
;
#X obj 1113 442 symbol;
#X obj 1113 639 s \$0-partition-length;
#X text 1111 418 partition length;
#X obj 1113 467 f;
#X obj 79 466 t b b b b b;
#N canvas 155 71 500 883 color_mapping 0;
#X obj 117 37 inlet;
#X obj 51 739 outlet;
#X obj 387 720 f;
#X obj 387 696 symbol;
#X obj 117 61 route red bright-red;
#X obj 117 124 route orange bright-orange;
#X obj 117 187 route yellow bright-yellow;
#X obj 117 250 route lime bright-lime;
#X obj 117 313 route cyan bright-cyan;
#X obj 117 376 route pink bright-pink;
#X obj 117 439 route blue bright-blue;
#X obj 117 565 route green bright-green;
#X obj 51 104 t f;
#X msg 117 148 950;
#X msg 117 211 980;
#X msg 206 211 996;
#X obj 51 167 t f;
#X obj 51 230 t f;
#X obj 51 356 t f;
#X obj 51 419 t f;
#X obj 51 482 t f;
#X obj 51 608 t f;
#X obj 51 671 t f;
#X obj 51 293 t f;
#X msg 117 400 909;
#X msg 192 400 969;
#X msg 192 463 679;
#X msg 117 85 910;
#X msg 185 85 966;
#X msg 206 148 975;
#X msg 279 652 888;
#X msg 225 652 666;
#X msg 171 652 333;
#X msg 117 652 24;
#X msg 117 589 80;
#X msg 117 337 89;
#X msg 117 463 39;
#X msg 192 337 699;
#X msg 117 274 792;
#X msg 199 589 696;
#X msg 192 274 896;
#X obj 117 628 route navy black gray bright-gray white;
#X msg 333 652 999;
#X obj 51 545 t f;
#X obj 117 502 route violet bright-violet;
#X msg 192 526 879;
#X msg 117 526 519;
#X connect 0 0 4 0;
#X connect 2 0 1 0;
#X connect 3 0 2 0;
#X connect 4 0 27 0;
#X connect 4 1 28 0;
#X connect 4 2 5 0;
#X connect 5 0 13 0;
#X connect 5 1 29 0;
#X connect 5 2 6 0;
#X connect 6 0 14 0;
#X connect 6 1 15 0;
#X connect 6 2 7 0;
#X connect 7 0 38 0;
#X connect 7 1 40 0;
#X connect 7 2 8 0;
#X connect 8 0 35 0;
#X connect 8 1 37 0;
#X connect 8 2 9 0;
#X connect 9 0 24 0;
#X connect 9 1 25 0;
#X connect 9 2 10 0;
#X connect 10 0 36 0;
#X connect 10 1 26 0;
#X connect 10 2 44 0;
#X connect 11 0 34 0;
#X connect 11 1 39 0;
#X connect 11 2 41 0;
#X connect 12 0 1 0;
#X connect 13 0 16 0;
#X connect 14 0 17 0;
#X connect 15 0 17 0;
#X connect 16 0 1 0;
#X connect 17 0 1 0;
#X connect 18 0 1 0;
#X connect 19 0 1 0;
#X connect 20 0 1 0;
#X connect 21 0 1 0;
#X connect 22 0 1 0;
#X connect 23 0 1 0;
#X connect 24 0 19 0;
#X connect 25 0 19 0;
#X connect 26 0 20 0;
#X connect 27 0 12 0;
#X connect 28 0 12 0;
#X connect 29 0 16 0;
#X connect 30 0 22 0;
#X connect 31 0 22 0;
#X connect 32 0 22 0;
#X connect 33 0 22 0;
#X connect 34 0 21 0;
#X connect 35 0 18 0;
#X connect 36 0 20 0;
#X connect 37 0 18 0;
#X connect 38 0 23 0;
#X connect 39 0 21 0;
#X connect 40 0 23 0;
#X connect 41 0 33 0;
#X connect 41 1 32 0;
#X connect 41 2 31 0;
#X connect 41 3 30 0;
#X connect 41 4 42 0;
#X connect 41 5 3 0;
#X connect 42 0 22 0;
#X connect 43 0 1 0;
#X connect 44 0 46 0;
#X connect 44 1 45 0;
#X connect 44 2 11 0;
#X connect 45 0 43 0;
#X connect 46 0 43 0;
#X restore 373 442 pd color_mapping;
#X connect 0 0 2 0;
#X connect 0 1 13 0;
#X connect 2 0 1 0;
#X connect 4 0 5 0;
#X connect 4 1 3 0;
#X connect 5 0 3 0;
#X connect 9 0 10 0;
#X connect 9 1 11 0;
#X connect 10 0 12 0;
#X connect 11 0 12 0;
#X connect 13 0 1 0;
#X connect 20 0 24 1;
#X connect 20 1 25 1;
#X connect 20 2 26 1;
#X connect 20 3 27 1;
#X connect 20 4 21 0;
#X connect 20 5 22 0;
#X connect 21 0 19 0;
#X connect 22 0 18 0;
#X connect 23 0 28 0;
#X connect 24 0 9 0;
#X connect 25 0 4 0;
#X connect 26 0 0 0;
#X connect 27 0 14 0;
#X connect 28 0 43 0;
#X connect 28 1 37 0;
#X connect 29 0 34 0;
#X connect 30 0 33 0;
#X connect 31 0 32 0;
#X connect 32 0 27 1;
#X connect 33 0 26 1;
#X connect 34 0 24 1;
#X connect 37 0 38 0;
#X connect 37 1 20 0;
#X connect 38 0 29 0;
#X connect 38 1 44 0;
#X connect 38 2 30 0;
#X connect 38 3 31 0;
#X connect 38 4 21 0;
#X connect 38 5 22 0;
#X connect 38 6 39 0;
#X connect 39 0 42 0;
#X connect 42 0 40 0;
#X connect 43 0 24 0;
#X connect 43 1 25 0;
#X connect 43 2 26 0;
#X connect 43 3 27 0;
#X connect 44 0 25 1;
#X restore 332 45 pd args;
#N canvas 82 58 1793 940 draw_object 0;
#X obj 105 248 until;
#X obj 105 279 f;
#X obj 138 279 + 1;
#X msg 155 248 0;
#X obj 105 411 + 100;
#X obj 105 389 * 15;
#X obj 105 669 s pd-\$0-interface;
#X obj 1090 264 s pd-\$0-interface;
#X obj 1093 134 s pd-\$0-interface;
#X msg 1093 108 clear;
#X obj 85 835 s \$0-this-canvas;
#X obj 85 699 * 15;
#X obj 230 834 s pd-\$0-interface;
#X obj 124 137 array size \$0-seq;
#X obj 85 804 t a a;
#X text 194 249 counter;
#X text 355 510 draw sliders;
#X text 240 699 resize abstraction and subpatch;
#X text 1228 205 draw hradio;
#X text 1142 108 clear subpatch;
#X obj 53 167 s \$0-init-done;
#X obj 1206 181 r \$0-color;
#X obj 241 461 r \$0-color;
#X obj 263 523 r \$0-height;
#X obj 1090 204 pack 1 \$0 -262144;
#X obj 152 700 r \$0-height;
#X obj 85 747 pack 16 64;
#X obj 87 44 r \$0-length;
#X obj 105 330 t f f f;
#X obj 324 461 r \$0-color-dark;
#X obj 223 485 f;
#X obj 306 485 f;
#X obj 182 372 /;
#X obj 182 395 % 2;
#X obj 223 414 sel 0;
#X obj 858 674 s pd-\$0-interface;
#X obj 306 433 bng 15 250 50 0 empty empty empty 17 7 0 10 #fcfcfc
#000000 #000000;
#X obj 972 447 r \$0-height;
#X obj 972 469 expr $f1 * 16 - 1;
#X obj 835 453 + 1;
#X obj 223 573 t f;
#X obj 835 531 pack 0 1 \$0 -262144 48 -1;
#X obj 1137 475 f;
#X obj 1290 475 f;
#X obj 1137 414 sel 0;
#X obj 1290 433 bng 15 250 50 0 empty empty empty 17 7 0 10 #fcfcfc
#000000 #000000;
#X obj 1137 512 t f;
#X obj 1155 451 r \$0-color-darker;
#X obj 1308 451 r \$0-color-darkest;
#X obj 87 89 t f f f f b;
#X text 866 771 draw marker;
#X obj 835 820 s pd-\$0-interface;
#X obj 105 434 t f f;
#X obj 835 563 t b l l;
#X obj 835 771 \$0;
#X msg 85 774 donecanvasdialog 0 0 -1 0 -1 1 1 \$1 \$2 100 100 1 \,
dirty 0;
#X obj 152 724 expr ($f1) * 16 + 1;
#X msg 835 796 obj 101 101 cnv 0 13 0 empty \$1-vsl-mark-receiver empty
20 12 0 14 -1 -1 0 \;, f 81;
#X msg 881 642 obj \$1 101 cnv 13 13 \$5 empty empty empty 20 12 0
14 \$6 \$6 0 \;, f 62;
#X obj 263 545 expr $f1 * 16 - 4;
#X msg 1090 235 obj 100 100 hradio 15 1 1 \$1 \$2-radio-sender \$2-radio-receiver
empty 0 -8 0 10 \$3 -1 -1 0, f 90;
#X obj 53 137 t b f;
#X msg 858 610 obj \$1 101 cnv 0 13 \$5 empty \$3-\$2-vsl-cnv-receiver
empty 20 12 0 14 \$4 \$4 0 \;, f 79;
#X text 898 562 draw beauty;
#X obj 105 219 t f f b;
#X obj 332 301 sel 0;
#X obj 332 277 % 4;
#X msg 332 325 4;
#X obj 378 301 sel 0;
#X obj 378 277 % 3;
#X msg 378 325 3;
#X obj 273 291 f;
#X obj 305 353 f;
#X obj 309 253 t b f f;
#X text 451 216 use argument partitioning or fallback \; to 3 or 4
if length is multiple of these.;
#X obj 273 315 sel 0;
#X obj 291 222 r \$0-partition-length;
#X text 287 615 <pos> <nr> <\$0> <color> <height> <grid>;
#X obj 105 614 pack 0 1 \$0 -262144 48 1;
#X msg 105 641 obj \$1 102 vsl 15 \$5 0 \$6 0 0 \$3-\$2-vsl-sender
\$3-\$2-vsl-receiver empty 0 -9 0 10 \$4 -1 -1 0 1, f 98;
#X obj 481 515 r \$0-grid;
#X obj 481 539 t f f;
#X obj 481 585 spigot;
#X obj 520 562 > 0;
#X text 553 565 set slider range >1 if grid set;
#X connect 0 0 1 0;
#X connect 1 0 2 0;
#X connect 1 0 28 0;
#X connect 2 0 1 1;
#X connect 3 0 1 1;
#X connect 4 0 52 0;
#X connect 5 0 4 0;
#X connect 9 0 8 0;
#X connect 11 0 26 0;
#X connect 14 0 10 0;
#X connect 14 1 12 0;
#X connect 21 0 24 2;
#X connect 22 0 30 1;
#X connect 23 0 59 0;
#X connect 24 0 60 0;
#X connect 25 0 56 0;
#X connect 26 0 55 0;
#X connect 27 0 49 0;
#X connect 28 0 5 0;
#X connect 28 1 41 1;
#X connect 28 1 78 1;
#X connect 28 2 32 0;
#X connect 29 0 31 1;
#X connect 30 0 40 0;
#X connect 31 0 40 0;
#X connect 32 0 33 0;
#X connect 33 0 34 0;
#X connect 33 0 44 0;
#X connect 34 0 30 0;
#X connect 34 1 36 0;
#X connect 36 0 31 0;
#X connect 37 0 38 0;
#X connect 38 0 41 4;
#X connect 39 0 41 0;
#X connect 40 0 41 3;
#X connect 40 0 78 3;
#X connect 41 0 53 0;
#X connect 42 0 46 0;
#X connect 43 0 46 0;
#X connect 44 0 42 0;
#X connect 44 1 45 0;
#X connect 45 0 43 0;
#X connect 46 0 41 5;
#X connect 47 0 42 1;
#X connect 48 0 43 1;
#X connect 49 0 61 0;
#X connect 49 1 64 0;
#X connect 49 2 13 0;
#X connect 49 3 24 0;
#X connect 49 4 9 0;
#X connect 52 0 39 0;
#X connect 52 1 78 0;
#X connect 53 0 54 0;
#X connect 53 1 62 0;
#X connect 53 2 58 0;
#X connect 54 0 57 0;
#X connect 55 0 14 0;
#X connect 56 0 26 1;
#X connect 57 0 51 0;
#X connect 58 0 35 0;
#X connect 59 0 78 4;
#X connect 60 0 7 0;
#X connect 61 0 20 0;
#X connect 61 1 11 0;
#X connect 62 0 35 0;
#X connect 64 0 0 0;
#X connect 64 1 73 0;
#X connect 64 2 3 0;
#X connect 65 0 67 0;
#X connect 66 0 65 0;
#X connect 67 0 72 1;
#X connect 68 0 70 0;
#X connect 69 0 68 0;
#X connect 70 0 72 1;
#X connect 71 0 75 0;
#X connect 72 0 32 1;
#X connect 73 0 71 0;
#X connect 73 1 66 0;
#X connect 73 2 69 0;
#X connect 75 0 72 0;
#X connect 75 1 72 0;
#X connect 76 0 71 1;
#X connect 78 0 79 0;
#X connect 79 0 6 0;
#X connect 80 0 81 0;
#X connect 81 0 82 0;
#X connect 81 1 83 0;
#X connect 82 0 78 5;
#X connect 83 0 82 1;
#X restore 711 45 pd draw_object;
#N canvas 83 57 1645 897 sliders_to_array_and_canvases 0;
#X obj 107 59 r \$0-0-vsl-sender;
#X obj 118 79 r \$0-1-vsl-sender;
#X obj 127 99 r \$0-2-vsl-sender;
#X obj 138 120 r \$0-3-vsl-sender;
#X obj 147 139 r \$0-4-vsl-sender;
#X obj 158 159 r \$0-5-vsl-sender;
#X obj 167 179 r \$0-6-vsl-sender;
#X obj 178 199 r \$0-7-vsl-sender;
#X obj 357 59 r \$0-8-vsl-sender;
#X obj 368 79 r \$0-9-vsl-sender;
#X obj 377 99 r \$0-10-vsl-sender;
#X obj 387 119 r \$0-11-vsl-sender;
#X obj 397 139 r \$0-12-vsl-sender;
#X obj 408 159 r \$0-13-vsl-sender;
#X obj 417 179 r \$0-14-vsl-sender;
#X obj 428 199 r \$0-15-vsl-sender;
#X obj 614 59 r \$0-16-vsl-sender;
#X obj 625 79 r \$0-17-vsl-sender;
#X obj 634 99 r \$0-18-vsl-sender;
#X obj 645 119 r \$0-19-vsl-sender;
#X obj 654 139 r \$0-20-vsl-sender;
#X obj 665 159 r \$0-21-vsl-sender;
#X obj 674 179 r \$0-22-vsl-sender;
#X obj 686 199 r \$0-23-vsl-sender;
#X obj 872 59 r \$0-24-vsl-sender;
#X obj 883 79 r \$0-25-vsl-sender;
#X obj 894 99 r \$0-26-vsl-sender;
#X obj 903 119 r \$0-27-vsl-sender;
#X obj 912 139 r \$0-28-vsl-sender;
#X obj 923 159 r \$0-29-vsl-sender;
#X obj 932 180 r \$0-30-vsl-sender;
#X obj 943 199 r \$0-31-vsl-sender;
#X msg 62 59 \$1 0;
#X msg 827 59 \$1 24;
#X msg 837 79 \$1 25;
#X msg 846 99 \$1 26;
#X msg 857 119 \$1 27;
#X msg 867 139 \$1 28;
#X msg 877 159 \$1 29;
#X msg 887 179 \$1 30;
#X msg 897 199 \$1 31;
#X msg 312 59 \$1 8;
#X msg 322 79 \$1 9;
#X msg 332 99 \$1 10;
#X msg 342 119 \$1 11;
#X msg 352 139 \$1 12;
#X msg 362 159 \$1 13;
#X msg 372 179 \$1 14;
#X msg 382 199 \$1 15;
#X msg 569 59 \$1 16;
#X msg 579 79 \$1 17;
#X msg 589 99 \$1 18;
#X msg 599 119 \$1 19;
#X msg 609 139 \$1 20;
#X msg 619 159 \$1 21;
#X msg 629 179 \$1 22;
#X msg 639 199 \$1 23;
#X msg 72 79 \$1 1;
#X msg 82 99 \$1 2;
#X msg 92 119 \$1 3;
#X msg 102 139 \$1 4;
#X msg 112 159 \$1 5;
#X msg 122 179 \$1 6;
#X msg 132 199 \$1 7;
#X obj 1305 515 array set \$0-seq;
#X obj 566 614 *;
#X obj 584 557 r \$0-height;
#X obj 566 770 pack f 13;
#X msg 566 793 vis_size \$2 \$1;
#X obj 566 527 -;
#X msg 566 502 1 \$1;
#X obj 584 582 expr $f1 * 16 - 1;
#X obj 566 816 s;
#X obj 1305 416 unpack;
#X obj 566 416 unpack;
#X obj 826 774 pack f \$0;
#X msg 826 797 symbol \$2-\$1-vsl-cnv-receiver;
#X obj 607 689 spigot;
#X obj 566 637 t f f f;
#X obj 665 689 sel 0;
#X msg 665 738 13;
#X obj 607 740 * 13;
#X obj 646 664 < 3;
#X obj 607 716 / 2;
#X obj 808 447 r \$0-grid;
#X obj 94 811 s \$0-radio-receiver;
#X msg 62 760 label;
#X obj 62 626 t b f;
#X msg 94 707 label \\\ \$1;
#X text 69 387 draw value as label;
#X obj 62 556 unpack;
#X msg 259 627 label_pos \$1 -8;
#X text 295 602 position label;
#X text 108 625 write value;
#X text 1304 387 write to array;
#X text 565 387 visualize as canvas;
#X obj 259 575 * 15;
#X obj 259 601 - 2;
#X obj 62 737 del 1200;
#X text 105 760 remove after 1.2 seconds;
#X obj 62 493 spigot;
#X obj 147 462 loadbang;
#X text 216 464 default to showing label;
#X obj 101 462 == 0;
#X msg 147 484 1;
#X obj 101 439 array sum \$0-slider-transitions-ongoing;
#N canvas 52 52 476 222 initialize_transistion_array 0;
#X obj 59 126 array define \$0-slider-transitions-ongoing;
#X msg 59 102 resize \$1;
#X obj 59 78 r \$0-length;
#X connect 1 0 0 0;
#X connect 2 0 1 0;
#X restore 147 515 pd initialize_transistion_array;
#X obj 101 416 r \$0-slider-transition-check;
#X obj 427 659 r \$0-grid;
#X obj 922 592 s \$0-edit-value;
#X text 919 387 output edited values;
#X obj 62 312 t l l l l;
#X obj 62 218 t l;
#X obj 312 218 t l;
#X obj 569 218 t l;
#X obj 827 218 t l;
#X obj 922 415 unpack;
#X obj 1519 443 r \$0-grid;
#X obj 566 471 expr if($f2 > 0 \, int($f1)/$f2 \, $f1);
#X obj 1305 467 expr if($f2 > 0 \, int($f1) \, $f1);
#X obj 94 683 expr if($f2 > 0 \, int($f1) \, int($f1 * 100) / 100)
;
#X text 201 706 display grid position or only 2 decimal digits \; and
int-value for gridded version;
#X obj 922 540 clone 32 -seq-vel-helper-output-edited.cl;
#X obj 922 471 swap;
#X obj 922 496 pack;
#X obj 1206 476 r \$0-grid;
#X msg 1206 500 all \$1;
#X connect 0 0 32 0;
#X connect 1 0 57 0;
#X connect 2 0 58 0;
#X connect 3 0 59 0;
#X connect 4 0 60 0;
#X connect 5 0 61 0;
#X connect 6 0 62 0;
#X connect 7 0 63 0;
#X connect 8 0 41 0;
#X connect 9 0 42 0;
#X connect 10 0 43 0;
#X connect 11 0 44 0;
#X connect 12 0 45 0;
#X connect 13 0 46 0;
#X connect 14 0 47 0;
#X connect 15 0 48 0;
#X connect 16 0 49 0;
#X connect 17 0 50 0;
#X connect 18 0 51 0;
#X connect 19 0 52 0;
#X connect 20 0 53 0;
#X connect 21 0 54 0;
#X connect 22 0 55 0;
#X connect 23 0 56 0;
#X connect 24 0 33 0;
#X connect 25 0 34 0;
#X connect 26 0 35 0;
#X connect 27 0 36 0;
#X connect 28 0 37 0;
#X connect 29 0 38 0;
#X connect 30 0 39 0;
#X connect 31 0 40 0;
#X connect 32 0 112 0;
#X connect 33 0 115 0;
#X connect 34 0 115 0;
#X connect 35 0 115 0;
#X connect 36 0 115 0;
#X connect 37 0 115 0;
#X connect 38 0 115 0;
#X connect 39 0 115 0;
#X connect 40 0 115 0;
#X connect 41 0 113 0;
#X connect 42 0 113 0;
#X connect 43 0 113 0;
#X connect 44 0 113 0;
#X connect 45 0 113 0;
#X connect 46 0 113 0;
#X connect 47 0 113 0;
#X connect 48 0 113 0;
#X connect 49 0 114 0;
#X connect 50 0 114 0;
#X connect 51 0 114 0;
#X connect 52 0 114 0;
#X connect 53 0 114 0;
#X connect 54 0 114 0;
#X connect 55 0 114 0;
#X connect 56 0 114 0;
#X connect 57 0 112 0;
#X connect 58 0 112 0;
#X connect 59 0 112 0;
#X connect 60 0 112 0;
#X connect 61 0 112 0;
#X connect 62 0 112 0;
#X connect 63 0 112 0;
#X connect 65 0 78 0;
#X connect 66 0 71 0;
#X connect 67 0 68 0;
#X connect 68 0 72 0;
#X connect 69 0 65 0;
#X connect 70 0 69 0;
#X connect 71 0 65 1;
#X connect 73 0 119 0;
#X connect 73 1 64 1;
#X connect 74 0 118 0;
#X connect 74 1 75 0;
#X connect 75 0 76 0;
#X connect 76 0 72 1;
#X connect 77 0 83 0;
#X connect 78 0 67 0;
#X connect 78 1 77 0;
#X connect 78 2 82 0;
#X connect 79 0 80 0;
#X connect 80 0 67 1;
#X connect 81 0 67 1;
#X connect 82 0 77 1;
#X connect 82 0 79 0;
#X connect 83 0 81 0;
#X connect 84 0 118 1;
#X connect 86 0 85 0;
#X connect 87 0 98 0;
#X connect 87 1 120 0;
#X connect 88 0 85 0;
#X connect 90 0 87 0;
#X connect 90 1 96 0;
#X connect 91 0 85 0;
#X connect 96 0 97 0;
#X connect 97 0 91 0;
#X connect 98 0 86 0;
#X connect 100 0 90 0;
#X connect 101 0 104 0;
#X connect 103 0 100 1;
#X connect 104 0 100 1;
#X connect 105 0 103 0;
#X connect 107 0 105 0;
#X connect 108 0 120 1;
#X connect 111 0 100 0;
#X connect 111 1 74 0;
#X connect 111 2 116 0;
#X connect 111 3 73 0;
#X connect 112 0 111 0;
#X connect 113 0 111 0;
#X connect 114 0 111 0;
#X connect 115 0 111 0;
#X connect 116 0 123 0;
#X connect 116 1 123 1;
#X connect 117 0 119 1;
#X connect 118 0 70 0;
#X connect 119 0 64 0;
#X connect 120 0 88 0;
#X connect 122 0 109 0;
#X connect 123 0 124 0;
#X connect 123 1 124 1;
#X connect 124 0 122 0;
#X connect 125 0 126 0;
#X connect 126 0 122 1;
#X restore 952 45 pd sliders_to_array_and_canvases;
#N canvas 320 145 1357 710 handle_input 0;
#X obj 45 495 v \$0-pos;
#X obj 45 517 + 1;
#X text 105 252 set pos;
#X obj 45 37 r \$0-input;
#X obj 45 624 s \$0-pos-abs;
#X obj 99 277 s \$0-pos-abs;
#X obj 556 568 array random \$0-seq;
#X obj 601 508 s \$0-run;
#N canvas 347 187 841 618 dyn-receive 0;
#X obj 56 308 outlet;
#X obj 123 169 pack s \$0;
#X obj 56 131 sel symbol;
#X msg 123 191 clear \, obj 100 100 r \$1 \, obj 100 150 s \$2-out
\, connect 0 0 1 0, f 62;
#X obj 56 285 r \$0-out;
#X obj 123 213 s pd-\$0-receive;
#N canvas 0 23 450 300 \$0-receive 0;
#X obj 100 100 r list;
#X obj 100 150 s 1306-out;
#X connect 0 0 1 0;
#X restore 56 247 pd \$0-receive;
#X obj 56 107 inlet;
#X connect 1 0 3 0;
#X connect 2 1 1 0;
#X connect 3 0 5 0;
#X connect 4 0 0 0;
#X connect 7 0 2 0;
#X restore 59 90 pd dyn-receive;
#X obj 647 452 s \$0-stumble;
#X text 669 500 run through with "run <step_duration> <callback_receiver>"
(default tempo if 0);
#X text 743 445 stumble through with weighted steps "stumble <total_duration>"
;
#X obj 692 371 array sum \$0-seq;
#X obj 692 395 s \$0-sum;
#X obj 381 279 s \$0-set-ramped-sequence;
#X text 386 241 set sequence with ramp \; "<val 1> .. <val n> <ramp_time>
<ease_mode>";
#X text 48 469 increase pos via bang;
#X text 700 567 return random output via "random";
#X text 817 371 output value sum via "sum";
#X obj 333 363 s \$0-set-ramped-value;
#X obj 59 67 r \$0-receiver-name;
#X obj 205 91 r \$0-input-pos-abs;
#X obj 285 449 s \$0-set-seq;
#X text 289 411 set sequence \; via "values ...";
#X obj 285 160 route values set list;
#X obj 909 249 s \$0-output;
#X text 907 225 output values as list;
#X obj 970 191 s \$0-reset;
#X obj 45 160 route bang float;
#X obj 556 624 s \$0-pos-abs;
#X text 338 325 set value via \; "set <index> <value> <ramp_time> <ease_mode>"
;
#X obj 909 159 route output reset;
#X obj 738 313 s \$0-sort;
#X text 812 313 sort values (asc via -1 or desc by default);
#X obj 556 160 route random run stumble sum sort;
#X connect 0 0 1 0;
#X connect 1 0 4 0;
#X connect 3 0 28 0;
#X connect 6 0 29 0;
#X connect 8 0 28 0;
#X connect 12 0 13 0;
#X connect 20 0 8 0;
#X connect 21 0 5 0;
#X connect 24 0 22 0;
#X connect 24 1 19 0;
#X connect 24 2 14 0;
#X connect 24 3 34 0;
#X connect 28 0 0 0;
#X connect 28 1 5 0;
#X connect 28 2 24 0;
#X connect 31 0 25 0;
#X connect 31 1 27 0;
#X connect 34 0 6 0;
#X connect 34 1 7 0;
#X connect 34 2 9 0;
#X connect 34 3 12 0;
#X connect 34 4 32 0;
#X connect 34 5 31 0;
#X restore 414 45 pd handle_input;
#X obj 99 45 s \$0-input;
#X text 1113 603 output absolute position;
#X msg 1000 702 pos-abs \$1;
#X obj 1661 20 inlet;
#X obj 1661 70 s \$0-input-pos-abs;
#X obj 695 687 r \$0-grid;
#X obj 660 726 +;
#N canvas 968 15 908 856 run 0;
#X obj 343 47 r \$0-run;
#X obj 388 377 s;
#X text 417 377 receiver name;
#X obj 388 351 spigot;
#X msg 589 254 0;
#X msg 427 254 1;
#X obj 366 161 list split 1;
#X obj 406 214 route symbol;
#X obj 433 455 sel 0;
#X obj 366 426 route bang;
#X msg 366 474 200;
#X text 165 595 at end of run;
#X text 372 494 default;
#X text 499 214 callback name;
#X text 445 426 duration;
#X text 625 254 default to not sending callback;
#X text 460 254 allow callback;
#X obj 134 252 del;
#X msg 103 206 1, f 1;
#X obj 57 252 spigot;
#X msg 121 206 0, f 1;
#X obj 57 317 f;
#X obj 57 159 t b b b;
#X msg 80 287 0, f 2;
#X obj 90 317 + 1;
#X obj 155 615 s \$0-run-done;
#X obj 388 300 r \$0-run-done;
#X obj 57 389 <;
#X obj 105 370 r \$0-length;
#X obj 57 414 sel 1;
#X obj 89 439 t b b;
#X obj 57 470 f;
#X obj 57 340 t f f;
#X obj 343 82 t b a b;
#X obj 57 785 s \$0-input;
#X obj 155 521 f;
#X obj 57 494 t f b;
#X obj 155 545 v \$0-duration;
#X obj 153 714 r \$0-length;
#X obj 497 517 < 0;
#X obj 465 493 t f f;
#X obj 497 541 s \$0-run-negative;
#X obj 250 714 r \$0-run-negative;
#X obj 465 517 abs;
#X text 261 748 invert values if negative run got triggered;
#X obj 57 748 expr if($f3 \, $f2-$f1-1 \, $f1);
#X text 626 541 detect negative run;
#X obj 366 575 s \$0-run-duration;
#X obj 173 174 r \$0-run-duration;
#X obj 173 233 /;
#X obj 191 205 r \$0-length;
#X connect 0 0 33 0;
#X connect 3 0 1 0;
#X connect 4 0 3 1;
#X connect 5 0 3 1;
#X connect 6 0 9 0;
#X connect 6 1 7 0;
#X connect 6 2 9 0;
#X connect 7 0 1 1;
#X connect 7 0 5 0;
#X connect 8 0 10 0;
#X connect 8 1 40 0;
#X connect 9 0 10 0;
#X connect 9 1 8 0;
#X connect 10 0 47 0;
#X connect 17 0 19 0;
#X connect 18 0 19 1;
#X connect 19 0 17 0;
#X connect 19 0 21 0;
#X connect 20 0 19 1;
#X connect 21 0 24 0;
#X connect 21 0 32 0;
#X connect 22 0 19 0;
#X connect 22 1 23 0;
#X connect 22 2 18 0;
#X connect 23 0 21 1;
#X connect 24 0 21 1;
#X connect 26 0 3 0;
#X connect 27 0 29 0;
#X connect 28 0 27 1;
#X connect 29 0 31 0;
#X connect 29 1 30 0;
#X connect 30 0 25 0;
#X connect 30 1 20 0;
#X connect 31 0 36 0;
#X connect 32 0 27 0;
#X connect 32 1 31 1;
#X connect 33 0 22 0;
#X connect 33 1 6 0;
#X connect 33 2 4 0;
#X connect 35 0 37 0;
#X connect 36 0 45 0;
#X connect 36 1 35 0;
#X connect 38 0 45 1;
#X connect 39 0 41 0;
#X connect 40 0 43 0;
#X connect 40 1 39 0;
#X connect 42 0 45 2;
#X connect 43 0 47 0;
#X connect 45 0 34 0;
#X connect 48 0 49 0;
#X connect 49 0 35 1;
#X connect 49 0 17 1;
#X connect 50 0 49 1;
#X restore 1227 132 pd run;
#N canvas 6 13 975 1003 stumble 0;
#X obj 465 50 r \$0-stumble;
#X obj 59 117 array sum \$0-seq;
#X obj 59 79 t b f;
#X obj 109 365 r \$0-length;
#X msg 59 155 1 \$1;
#X obj 59 179 /;
#X text 103 168 normalize duration to 1;
#X obj 108 712 *;
#X obj 59 217 *;
#X text 90 217 normalize to set duration;
#X obj 91 390 <;
#X obj 59 313 f;
#X obj 87 313 + 1;
#X msg 77 288 0;
#X obj 59 255 t b b f, f 10;
#X obj 59 415 spigot;
#X obj 108 773 del;
#X obj 169 828 f;
#X obj 59 347 t f f;
#X obj 487 333 s;
#X text 516 333 receiver name;
#X obj 487 307 spigot;
#X msg 688 200 0;
#X msg 526 200 1;
#X obj 465 117 list split 1;
#X obj 505 160 route symbol;
#X obj 465 376 route bang;
#X text 598 160 callback name;
#X text 544 376 duration;
#X text 724 200 default to not sending callback;
#X text 559 200 allow callback;
#X obj 211 809 r \$0-length;
#X obj 169 852 ==;
#X obj 169 876 sel 1, f 6;
#X obj 169 915 s \$0-stumble-done;
#X obj 487 246 r \$0-stumble-done;
#X obj 59 55 r \$0-stumble-duration;
#X obj 465 75 t a b;
#X obj 211 833 - 1;
#X obj 338 809 t b;
#X obj 108 797 t b;
#X obj 59 915 s \$0-input;
#X obj 108 736 t f f;
#X obj 158 773 v \$0-duration;
#X obj 108 669 array get \$0-seq 0 1;
#X text 669 50 FIXME: remove redundancy with run?;
#X obj 155 556 r \$0-length;
#X obj 59 590 expr if($f3 \, $f2-$f1-1 \, $f1);
#X obj 252 556 r \$0-stumble-negative;
#X obj 532 404 sel 0;
#X msg 465 423 200;
#X text 471 443 default;
#X obj 596 466 < 0;
#X obj 564 442 t f f;
#X obj 564 466 abs;
#X obj 465 532 s \$0-stumble-duration;
#X text 753 490 detect negative stumble;
#X obj 596 490 s \$0-stumble-negative;
#X text 263 590 invert values if negative stumble got triggered;
#X obj 59 439 t f f;
#X obj 59 629 t f f;
#X connect 0 0 37 0;
#X connect 1 0 4 0;
#X connect 2 0 1 0;
#X connect 2 1 8 1;
#X connect 3 0 10 1;
#X connect 4 0 5 0;
#X connect 5 0 8 0;
#X connect 7 0 42 0;
#X connect 8 0 14 0;
#X connect 10 0 15 1;
#X connect 11 0 12 0;
#X connect 11 0 18 0;
#X connect 12 0 11 1;
#X connect 13 0 11 1;
#X connect 14 0 11 0;
#X connect 14 1 13 0;
#X connect 14 2 7 1;
#X connect 15 0 59 0;
#X connect 16 0 40 0;
#X connect 17 0 32 0;
#X connect 18 0 15 0;
#X connect 18 1 10 0;
#X connect 21 0 19 0;
#X connect 22 0 21 1;
#X connect 23 0 21 1;
#X connect 24 0 26 0;
#X connect 24 1 25 0;
#X connect 24 2 26 0;
#X connect 25 0 19 1;
#X connect 25 0 23 0;
#X connect 26 0 50 0;
#X connect 26 1 49 0;
#X connect 31 0 38 0;
#X connect 32 0 33 0;
#X connect 33 0 34 0;
#X connect 33 1 39 0;
#X connect 35 0 21 0;
#X connect 36 0 2 0;
#X connect 37 0 24 0;
#X connect 37 1 22 0;
#X connect 38 0 32 1;
#X connect 39 0 11 0;
#X connect 40 0 17 0;
#X connect 42 0 16 0;
#X connect 42 1 43 0;
#X connect 44 0 7 0;
#X connect 46 0 47 1;
#X connect 47 0 60 0;
#X connect 48 0 47 2;
#X connect 49 0 50 0;
#X connect 49 1 53 0;
#X connect 50 0 55 0;
#X connect 52 0 57 0;
#X connect 53 0 54 0;
#X connect 53 1 52 0;
#X connect 54 0 55 0;
#X connect 59 0 47 0;
#X connect 59 1 17 1;
#X connect 60 0 41 0;
#X connect 60 1 44 0;
#X restore 1227 169 pd stumble;
#X msg 1570 828 cycle-done;
#X obj 1570 780 r \$0-run-done;
#X obj 1675 780 r \$0-stumble-done;
#X obj 1001 787 r \$0-sum;
#X msg 1001 811 sum \$1;
#X text 999 765 output sum;
#X text 1567 756 output end of run or stumble run;
#X text 617 958 output only values >0;
#X text 721 765 output values (including 0s);
#X text 691 708 either val>0 OR grid set;
#N canvas 819 103 697 814 set_ramped_value 0;
#X msg 89 216 0, f 1;
#X obj 38 710 pack f f 0 s \$0;
#X obj 89 145 list length;
#X obj 89 169 sel 2 3;
#X obj 38 44 r \$0-set-ramped-value;
#X msg 114 216 symbol linear;
#N canvas 656 339 922 356 dynamic-clone 0;
#X obj 53 48 inlet;
#X obj 53 72 s \$0-in;
#X obj 53 127 r \$0-length;
#X obj 53 149 pack 16 \$0;
#N canvas 811 387 450 300 \$0-clone 0;
#X obj 100 100 r 14045-in;
#X obj 100 150 clone 16 -seq-vel-helper-ramp.cl;
#X connect 0 0 1 0;
#X restore 53 257 pd \$0-clone;
#X obj 53 206 s pd-\$0-clone;
#X msg 53 184 clear \, obj 100 100 r \$2-in \, obj 100 150 clone \$1
-seq-vel-helper-ramp.cl \, connect 0 0 1 0, f 92;
#X connect 0 0 1 0;
#X connect 2 0 3 0;
#X connect 3 0 6 0;
#X connect 6 0 5 0;
#X restore 38 749 pd dynamic-clone;
#X obj 288 254 r \$0-grid;
#X obj 38 86 t l l l;
#X obj 249 344 unpack f f;
#X obj 249 302 spigot;
#X obj 288 278 > 0;
#X text 152 170 fallback to 0 duration and linear easing \; if only
2 or 3 params given;
#X text 300 303 only if grid active;
#X obj 249 498 sel 1;
#X obj 65 655 +;
#X msg 249 589 0.99999;
#X obj 249 545 t b b;
#X obj 321 588 + 0.99999;
#X obj 321 612 array set \$0-seq;
#X obj 249 405 array get \$0-seq 0 1;
#X obj 321 564 f;
#X obj 249 429 t f f;
#X obj 249 368 t f f;
#X text 294 369 index;
#X text 295 430 start value;
#X obj 249 473 >;
#X text 99 656 target value correction;
#X text 442 612 start value correction;
#X obj 38 594 unpack f f f s;
#X text 361 543 handle gridded downwards ramp \; FIXME: quite ugly
with 0.99999;
#X connect 0 0 1 2;
#X connect 1 0 6 0;
#X connect 2 0 3 0;
#X connect 3 0 0 0;
#X connect 3 0 5 0;
#X connect 3 1 5 0;
#X connect 4 0 8 0;
#X connect 5 0 1 3;
#X connect 7 0 11 0;
#X connect 8 0 29 0;
#X connect 8 1 10 0;
#X connect 8 2 2 0;
#X connect 9 0 23 0;
#X connect 9 1 26 1;
#X connect 10 0 9 0;
#X connect 11 0 10 1;
#X connect 14 0 17 0;
#X connect 14 1 15 1;
#X connect 15 0 1 1;
#X connect 16 0 15 1;
#X connect 17 0 16 0;
#X connect 17 1 21 0;
#X connect 18 0 19 0;
#X connect 20 0 22 0;
#X connect 21 0 18 0;
#X connect 22 0 26 0;
#X connect 22 1 21 1;
#X connect 23 0 20 0;
#X connect 23 1 19 1;
#X connect 26 0 14 0;
#X connect 29 0 1 0;
#X connect 29 1 15 0;
#X connect 29 2 1 2;
#X connect 29 3 1 3;
#X restore 1227 206 pd set_ramped_value;
#N canvas 308 34 629 817 set_ramped_sequence 0;
#X obj 151 534 list length;
#X obj 151 557 - 1;
#X obj 84 583 list split;
#X obj 84 694 until;
#X obj 84 717 f;
#X obj 116 717 + 1;
#X obj 84 671 t f b;
#X msg 128 694 0;
#X msg 273 623 get \$1 1;
#X obj 246 589 t f f;
#X obj 84 646 list length;
#X obj 51 248 list split;
#X obj 118 161 list length;
#X obj 118 184 - 1;
#X obj 51 46 r \$0-set-ramped-sequence;
#X obj 246 744 s \$0-set-ramped-value;
#X obj 84 308 route symbol;
#X msg 327 589 symbol linear;
#X obj 145 331 t b b;
#X obj 84 332 t b s;
#X text 192 334 if no ease-mode found \, proceed with previous list
and set linear easing, f 37;
#X obj 84 515 t l l;
#X obj 84 606 t l l;
#X obj 273 656 list store;
#X obj 84 486 list store;
#X msg 84 426 get 0 4;
#X obj 118 208 t f f;
#X msg 95 401 set get 0 \$1;
#X obj 51 109 t l l l;
#X text 404 746 set each ramped value;
#X obj 246 692 pack f f 0 s;
#X connect 0 0 1 0;
#X connect 1 0 2 1;
#X connect 2 0 22 0;
#X connect 2 1 30 2;
#X connect 3 0 4 0;
#X connect 4 0 9 0;
#X connect 4 0 5 0;
#X connect 5 0 4 1;
#X connect 6 0 3 0;
#X connect 6 1 7 0;
#X connect 7 0 4 1;
#X connect 8 0 23 0;
#X connect 9 0 30 0;
#X connect 9 1 8 0;
#X connect 10 0 6 0;
#X connect 11 1 16 0;
#X connect 12 0 13 0;
#X connect 13 0 26 0;
#X connect 14 0 28 0;
#X connect 16 0 19 0;
#X connect 16 1 18 0;
#X connect 17 0 30 3;
#X connect 18 0 24 0;
#X connect 18 1 17 0;
#X connect 19 0 25 0;
#X connect 19 1 30 3;
#X connect 21 0 2 0;
#X connect 21 1 0 0;
#X connect 22 0 10 0;
#X connect 22 1 23 1;
#X connect 23 0 30 1;
#X connect 24 0 21 0;
#X connect 25 0 24 0;
#X connect 26 0 11 1;
#X connect 26 1 27 0;
#X connect 27 0 25 0;
#X connect 28 0 11 0;
#X connect 28 1 12 0;
#X connect 28 2 24 1;
#X connect 30 0 15 0;
#X restore 1227 243 pd set_ramped_sequence;
#X obj 918 880 t a a;
#X obj 888 935 outlet;
#X obj 950 935 s;
#X obj 1018 880 r \$0-sender-name;
#X obj 1661 45 route pos-abs;
#X obj 950 909 spigot;
#X msg 1000 909 1, f 1;
#X obj 1018 909 t b s;
#X text 1520 100 right inlet for absolute position only \; (to connect
multiple sequencers easily);
#X text 949 958 send to defined sender name;
#X text 749 497 receiving signal from sequencer hradio;
#X text 1063 910 only let through if sender name is defined;
#N canvas 1008 90 659 477 position 0;
#X obj 47 339 * 15;
#X obj 47 411 s \$0-vsl-mark-receiver;
#X obj 47 363 + 101;
#X msg 47 387 pos \$1 101;
#X obj 47 226 s \$0-radio-receiver;
#X obj 254 136 r \$0-length;
#X obj 79 98 v \$0-pos;
#X obj 47 67 t f f;
#X obj 47 307 r \$0-radio-sender;
#X obj 47 39 r \$0-pos-abs;
#X text 180 308 mark position;
#X text 265 178 wrap values to available range;
#X obj 47 155 %;
#X obj 47 180 expr if($f1 < 0 \, $f1+$f2 \, $f1);
#X connect 0 0 2 0;
#X connect 2 0 3 0;
#X connect 3 0 1 0;
#X connect 5 0 12 1;
#X connect 5 0 13 1;
#X connect 7 0 12 0;
#X connect 7 1 6 0;
#X connect 8 0 0 0;
#X connect 9 0 7 0;
#X connect 12 0 13 0;
#X connect 13 0 4 0;
#X restore 843 45 pd position;
#X obj 1116 624 v \$0-pos;
#N canvas 364 142 576 586 reset_values 0;
#X obj 47 279 until;
#X obj 47 322 f;
#X obj 76 322 + 1;
#X obj 47 246 t f b;
#X msg 91 279 0;
#X obj 47 210 f;
#X obj 65 186 r \$0-length;
#X obj 47 81 r \$0-reset;
#X msg 162 322 0;
#X obj 162 246 list length;
#X msg 195 322 symbol linear;
#X obj 47 506 s \$0-set-ramped-value;
#X obj 47 105 t b l;
#X text 241 271 if duration and/or ease mode not given;
#X text 43 38 great reset;
#X obj 130 124 t l l;
#X obj 162 270 sel 0 1, f 10;
#X obj 130 361 pack 0 s;
#X obj 130 385 unpack 0 s;
#X obj 47 478 pack f 0 0 s;
#X connect 0 0 1 0;
#X connect 1 0 2 0;
#X connect 1 0 19 0;
#X connect 2 0 1 1;
#X connect 3 0 0 0;
#X connect 3 1 4 0;
#X connect 4 0 1 1;
#X connect 5 0 3 0;
#X connect 6 0 5 1;
#X connect 7 0 12 0;
#X connect 8 0 17 0;
#X connect 9 0 16 0;
#X connect 10 0 17 1;
#X connect 12 0 5 0;
#X connect 12 1 15 0;
#X connect 15 0 17 0;
#X connect 15 1 9 0;
#X connect 16 0 10 0;
#X connect 16 0 8 0;
#X connect 16 1 10 0;
#X connect 17 0 18 0;
#X connect 18 0 19 2;
#X connect 18 1 19 3;
#X connect 19 0 11 0;
#X restore 1227 280 pd reset_values;
#X obj 1360 624 v \$0-duration;
#X obj 621 541 t f f b b;
#X obj 1360 648 sel 0;
#X obj 1360 672 v \$0-last-duration;
#N canvas 627 191 441 252 measure_last_duration 0;
#X obj 73 50 r \$0-radio-sender;
#X obj 73 110 timer;
#X obj 73 76 t b b;
#X obj 73 135 v \$0-last-duration;
#X connect 0 0 2 0;
#X connect 1 0 3 0;
#X connect 2 0 1 0;
#X connect 2 1 1 1;
#X restore 953 75 pd measure_last_duration;
#X obj 1570 804 t b b;
#X msg 1667 823 0;
#X obj 1667 847 v \$0-duration;
#X text 1405 648 fallback to last;
#X msg 749 867 hit \$1;
#X obj 621 801 t f f;
#X text 1299 739 output edited value;
#X obj 1300 761 r \$0-edit-value;
#X obj 103 537 t l l;
#X obj 621 655 expr if($f2 > 0 \, int($f1+0.5) \, $f1);
#X obj 803 624 r \$0-grid;
#X obj 1300 809 list trim;
#X obj 1300 785 list prepend edit;
#X obj 621 624 array get \$0-seq 0 1;
#X obj 380 568 array get \$0-seq 0 -1;
#X obj 1573 660 array get \$0-seq 0 -1;
#X obj 1148 732 change;
#X obj 1148 702 div;
#X obj 1166 648 r \$0-length;
#X obj 1116 648 t f f;
#X msg 1148 756 cycle \$1;
#X msg 1198 702 -1;
#X obj 1166 672 t f b;
#N canvas 558 142 675 747 sort 1;
#X obj 54 220 f;
#X obj 54 38 r \$0-sort;
#X obj 451 37 array define \$0-sort-temp;
#X obj 358 220 array get \$0-seq;
#X obj 358 244 array set \$0-sort-temp;
#X obj 450 90 r \$0-length;
#X obj 450 113 array size \$0-sort-temp;
#X obj 185 488 array min \$0-sort-temp;
#X obj 54 274 until;
#X obj 72 196 r \$0-length;
#X obj 54 307 f;
#X obj 84 307 + 1;
#X obj 54 245 t f b;
#X msg 98 275 0;
#X obj 54 331 t b f, f 9;
#X obj 261 536 array set \$0-sort-temp;
#X msg 261 512 1;
#X obj 54 648 f;
#X obj 54 548 t b l;
#X obj 54 671 s;
#X msg 86 648 symbol \$1-\$2-vsl-receiver;
#X obj 54 457 pack \$0 f;
#X obj 54 60 t b f b;
#X obj 185 512 t b f;
#X obj 511 536 array set \$0-sort-temp;
#X obj 435 512 t b f;
#X obj 185 457 spigot;
#X obj 253 335 t f f, f 12;
#X obj 435 457 spigot;
#X obj 54 392 t b b b;
#X obj 435 488 array max \$0-sort-temp;
#X msg 511 512 0;
#X text 380 360 select path for asc/desc;
#X text 481 220 copy to temporary table;
#X obj 253 359 != -1;
#X obj 334 359 == -1;
#X connect 0 0 12 0;
#X connect 1 0 22 0;
#X connect 3 0 4 0;
#X connect 5 0 6 0;
#X connect 7 0 23 0;
#X connect 7 1 15 1;
#X connect 8 0 10 0;
#X connect 9 0 0 1;
#X connect 10 0 11 0;
#X connect 10 0 14 0;
#X connect 11 0 10 1;
#X connect 12 0 8 0;
#X connect 12 1 13 0;
#X connect 13 0 10 1;
#X connect 14 0 29 0;
#X connect 14 1 21 1;
#X connect 16 0 15 0;
#X connect 17 0 19 0;
#X connect 18 0 17 0;
#X connect 18 1 20 0;
#X connect 20 0 19 1;
#X connect 21 0 18 0;
#X connect 22 0 0 0;
#X connect 22 1 27 0;
#X connect 22 2 3 0;
#X connect 23 0 16 0;
#X connect 23 1 17 1;
#X connect 25 0 31 0;
#X connect 25 1 17 1;
#X connect 26 0 7 0;
#X connect 27 0 34 0;
#X connect 27 1 35 0;
#X connect 28 0 30 0;
#X connect 29 0 21 0;
#X connect 29 1 26 0;
#X connect 29 2 28 0;
#X connect 30 0 25 0;
#X connect 30 1 24 1;
#X connect 31 0 24 0;
#X connect 34 0 26 1;
#X connect 35 0 28 1;
#X restore 1227 317 pd sort;
#X text 1427 332 TODOS maybe \; use more variables instead of sends?
length? 24bit colors? \; show grid for int-scale? \; correct handling
for duration of first step? \; allow min/max value setting? \; optional
dyn-route? \; stable duration despite stumble_mode transitions? \;
addon for markov chains \; addon for signal output? (needs output of
next values) \;;
#X text 1427 201 TODOS \; "permutate" to reorder randomly or by index-list
\; random run and stumble via additional "random" param \;;
#X connect 0 0 47 0;
#X connect 2 0 16 1;
#X connect 2 1 102 0;
#X connect 6 0 7 0;
#X connect 7 0 8 0;
#X connect 7 0 25 0;
#X connect 8 0 7 1;
#X connect 9 0 10 0;
#X connect 10 0 11 1;
#X connect 11 0 15 0;
#X connect 12 0 13 0;
#X connect 13 0 14 0;
#X connect 14 0 11 0;
#X connect 14 1 21 0;
#X connect 16 0 28 0;
#X connect 17 0 18 0;
#X connect 18 0 6 0;
#X connect 18 1 19 0;
#X connect 19 0 7 1;
#X connect 21 0 15 1;
#X connect 22 0 84 0;
#X connect 25 0 12 0;
#X connect 25 1 13 1;
#X connect 25 2 9 0;
#X connect 27 0 96 0;
#X connect 29 0 16 0;
#X connect 30 0 93 0;
#X connect 31 0 30 1;
#X connect 32 0 30 0;
#X connect 32 1 53 0;
#X connect 32 2 34 0;
#X connect 33 0 68 0;
#X connect 34 0 68 0;
#X connect 38 0 68 0;
#X connect 39 0 68 0;
#X connect 40 0 39 0;
#X connect 41 0 103 0;
#X connect 49 0 68 0;
#X connect 50 0 72 0;
#X connect 52 0 53 1;
#X connect 53 0 31 0;
#X connect 56 0 68 0;
#X connect 57 0 88 0;
#X connect 58 0 88 0;
#X connect 59 0 60 0;
#X connect 60 0 68 0;
#X connect 68 0 69 0;
#X connect 68 1 73 0;
#X connect 71 0 75 0;
#X connect 72 0 51 0;
#X connect 73 0 70 0;
#X connect 74 0 73 1;
#X connect 75 0 74 0;
#X connect 75 1 70 1;
#X connect 81 0 107 0;
#X connect 83 0 85 0;
#X connect 84 0 101 0;
#X connect 84 1 33 0;
#X connect 84 2 81 0;
#X connect 84 3 83 0;
#X connect 85 0 86 0;
#X connect 85 1 38 0;
#X connect 86 0 38 0;
#X connect 88 0 56 0;
#X connect 88 1 89 0;
#X connect 89 0 90 0;
#X connect 92 0 69 0;
#X connect 93 0 20 0;
#X connect 93 1 92 0;
#X connect 95 0 100 0;
#X connect 96 0 17 0;
#X connect 96 1 10 1;
#X connect 97 0 32 0;
#X connect 98 0 97 1;
#X connect 99 0 68 0;
#X connect 100 0 99 0;
#X connect 101 0 97 0;
#X connect 102 0 2 0;
#X connect 103 0 40 0;
#X connect 104 0 108 0;
#X connect 105 0 104 0;
#X connect 106 0 110 0;
#X connect 107 0 49 0;
#X connect 107 1 105 0;
#X connect 108 0 68 0;
#X connect 109 0 104 0;
#X connect 110 0 105 1;
#X connect 110 1 109 0;
#X coords 0 -1 1 1 240 49 2 100 100;
