#N canvas -2 -1071 1920 1037 12;
#X obj 97 20 inlet;
#X obj 1236 45 namecanvas \$0-this-canvas;
#X obj 320 547 savestate;
#X msg 399 598 0, f 1;
#X obj 399 632 array get \$0-seq;
#X obj 464 565 r \$0-length;
#X obj 453 598 f, f 2;
#N canvas -8 -1088 1920 1037 \$0-interface 0;
#X obj 100 100 hradio 15 1 1 16 3348-radio-sender 3348-radio-receiver
empty 0 -8 0 10 -262144 -1 -1 0;
#X obj 100 102 vsl 15 44 0 1 0 0 3348-0-vsl-sender 3348-0-vsl-receiver
empty 0 -9 0 10 -262144 -1 -1 0 1;
#X obj 101 101 cnv 13 13 47 empty empty empty 20 12 0 14 -178924 -178924
0;
#X obj 101 101 cnv 1 13 47 empty 3348-0-vsl-cnv-receiver empty 20 12
0 14 -262144 -262144 0;
#X obj 101 101 cnv 1 13 1 empty 3348-vsl-mark-receiver empty 20 12
0 14 -1 -1 0;
#X obj 115 102 vsl 15 44 0 1 0 0 3348-1-vsl-sender 3348-1-vsl-receiver
empty 0 -9 0 10 -262144 -1 -1 0 1;
#X obj 116 101 cnv 13 13 47 empty empty empty 20 12 0 14 -178924 -178924
0;
#X obj 116 101 cnv 1 13 47 empty 3348-1-vsl-cnv-receiver empty 20 12
0 14 -262144 -262144 0;
#X obj 101 101 cnv 1 13 1 empty 3348-vsl-mark-receiver empty 20 12
0 14 -1 -1 0;
#X obj 130 102 vsl 15 44 0 1 0 0 3348-2-vsl-sender 3348-2-vsl-receiver
empty 0 -9 0 10 -262144 -1 -1 4300 1;
#X obj 131 101 cnv 13 13 47 empty empty empty 20 12 0 14 -178924 -178924
0;
#X obj 131 101 cnv 1 1 1 empty 3348-2-vsl-cnv-receiver empty 20 12
0 14 -262144 -262144 0;
#X obj 101 101 cnv 1 13 1 empty 3348-vsl-mark-receiver empty 20 12
0 14 -1 -1 0;
#X obj 145 102 vsl 15 44 0 1 0 0 3348-3-vsl-sender 3348-3-vsl-receiver
empty 0 -9 0 10 -262144 -1 -1 0 1;
#X obj 146 101 cnv 13 13 47 empty empty empty 20 12 0 14 -178924 -178924
0;
#X obj 146 101 cnv 1 13 47 empty 3348-3-vsl-cnv-receiver empty 20 12
0 14 -262144 -262144 0;
#X obj 101 101 cnv 1 13 1 empty 3348-vsl-mark-receiver empty 20 12
0 14 -1 -1 0;
#X obj 160 102 vsl 15 44 0 1 0 0 3348-4-vsl-sender 3348-4-vsl-receiver
empty 0 -9 0 10 -228856 -1 -1 0 1;
#X obj 161 101 cnv 13 13 47 empty empty empty 20 12 0 14 -162280 -162280
0;
#X obj 161 101 cnv 1 13 47 empty 3348-4-vsl-cnv-receiver empty 20 12
0 14 -228856 -228856 0;
#X obj 101 101 cnv 1 13 1 empty 3348-vsl-mark-receiver empty 20 12
0 14 -1 -1 0;
#X obj 175 102 vsl 15 44 0 1 0 0 3348-5-vsl-sender 3348-5-vsl-receiver
empty 0 -9 0 10 -228856 -1 -1 0 1;
#X obj 176 101 cnv 13 13 47 empty empty empty 20 12 0 14 -162280 -162280
0;
#X obj 176 101 cnv 1 13 47 empty 3348-5-vsl-cnv-receiver empty 20 12
0 14 -228856 -228856 0;
#X obj 101 101 cnv 1 13 1 empty 3348-vsl-mark-receiver empty 20 12
0 14 -1 -1 0;
#X obj 190 102 vsl 15 44 0 1 0 0 3348-6-vsl-sender 3348-6-vsl-receiver
empty 0 -9 0 10 -228856 -1 -1 0 1;
#X obj 191 101 cnv 13 13 47 empty empty empty 20 12 0 14 -162280 -162280
0;
#X obj 191 101 cnv 1 13 47 empty 3348-6-vsl-cnv-receiver empty 20 12
0 14 -228856 -228856 0;
#X obj 101 101 cnv 1 13 1 empty 3348-vsl-mark-receiver empty 20 12
0 14 -1 -1 0;
#X obj 205 102 vsl 15 44 0 1 0 0 3348-7-vsl-sender 3348-7-vsl-receiver
empty 0 -9 0 10 -228856 -1 -1 0 1;
#X obj 206 101 cnv 13 13 47 empty empty empty 20 12 0 14 -162280 -162280
0;
#X obj 206 101 cnv 1 13 47 empty 3348-7-vsl-cnv-receiver empty 20 12
0 14 -228856 -228856 0;
#X obj 101 101 cnv 1 13 1 empty 3348-vsl-mark-receiver empty 20 12
0 14 -1 -1 0;
#X obj 220 102 vsl 15 44 0 1 0 0 3348-8-vsl-sender 3348-8-vsl-receiver
empty 0 -9 0 10 -262144 -1 -1 0 1;
#X obj 221 101 cnv 13 13 47 empty empty empty 20 12 0 14 -178924 -178924
0;
#X obj 221 101 cnv 1 13 47 empty 3348-8-vsl-cnv-receiver empty 20 12
0 14 -262144 -262144 0;
#X obj 101 101 cnv 1 13 1 empty 3348-vsl-mark-receiver empty 20 12
0 14 -1 -1 0;
#X obj 235 102 vsl 15 44 0 1 0 0 3348-9-vsl-sender 3348-9-vsl-receiver
empty 0 -9 0 10 -262144 -1 -1 0 1;
#X obj 236 101 cnv 13 13 47 empty empty empty 20 12 0 14 -178924 -178924
0;
#X obj 236 101 cnv 1 13 47 empty 3348-9-vsl-cnv-receiver empty 20 12
0 14 -262144 -262144 0;
#X obj 101 101 cnv 1 13 1 empty 3348-vsl-mark-receiver empty 20 12
0 14 -1 -1 0;
#X obj 250 102 vsl 15 44 0 1 0 0 3348-10-vsl-sender 3348-10-vsl-receiver
empty 0 -9 0 10 -262144 -1 -1 0 1;
#X obj 251 101 cnv 13 13 47 empty empty empty 20 12 0 14 -178924 -178924
0;
#X obj 251 101 cnv 1 13 47 empty 3348-10-vsl-cnv-receiver empty 20
12 0 14 -262144 -262144 0;
#X obj 101 101 cnv 1 13 1 empty 3348-vsl-mark-receiver empty 20 12
0 14 -1 -1 0;
#X obj 265 102 vsl 15 44 0 1 0 0 3348-11-vsl-sender 3348-11-vsl-receiver
empty 0 -9 0 10 -262144 -1 -1 0 1;
#X obj 266 101 cnv 13 13 47 empty empty empty 20 12 0 14 -178924 -178924
0;
#X obj 266 101 cnv 1 13 47 empty 3348-11-vsl-cnv-receiver empty 20
12 0 14 -262144 -262144 0;
#X obj 101 101 cnv 1 13 1 empty 3348-vsl-mark-receiver empty 20 12
0 14 -1 -1 0;
#X obj 280 102 vsl 15 44 0 1 0 0 3348-12-vsl-sender 3348-12-vsl-receiver
empty 0 -9 0 10 -228856 -1 -1 0 1;
#X obj 281 101 cnv 13 13 47 empty empty empty 20 12 0 14 -162280 -162280
0;
#X obj 281 101 cnv 1 13 47 empty 3348-12-vsl-cnv-receiver empty 20
12 0 14 -228856 -228856 0;
#X obj 101 101 cnv 1 13 1 empty 3348-vsl-mark-receiver empty 20 12
0 14 -1 -1 0;
#X obj 295 102 vsl 15 44 0 1 0 0 3348-13-vsl-sender 3348-13-vsl-receiver
empty 0 -9 0 10 -228856 -1 -1 0 1;
#X obj 296 101 cnv 13 13 47 empty empty empty 20 12 0 14 -162280 -162280
0;
#X obj 296 101 cnv 1 13 47 empty 3348-13-vsl-cnv-receiver empty 20
12 0 14 -228856 -228856 0;
#X obj 101 101 cnv 1 13 1 empty 3348-vsl-mark-receiver empty 20 12
0 14 -1 -1 0;
#X obj 310 102 vsl 15 44 0 1 0 0 3348-14-vsl-sender 3348-14-vsl-receiver
empty 0 -9 0 10 -228856 -1 -1 0 1;
#X obj 311 101 cnv 13 13 47 empty empty empty 20 12 0 14 -162280 -162280
0;
#X obj 311 101 cnv 1 13 47 empty 3348-14-vsl-cnv-receiver empty 20
12 0 14 -228856 -228856 0;
#X obj 101 101 cnv 1 13 1 empty 3348-vsl-mark-receiver empty 20 12
0 14 -1 -1 0;
#X obj 325 102 vsl 15 44 0 1 0 0 3348-15-vsl-sender 3348-15-vsl-receiver
empty 0 -9 0 10 -228856 -1 -1 0 1;
#X obj 326 101 cnv 13 13 47 empty empty empty 20 12 0 14 -162280 -162280
0;
#X obj 326 101 cnv 1 13 47 empty 3348-15-vsl-cnv-receiver empty 20
12 0 14 -228856 -228856 0;
#X obj 101 101 cnv 1 13 1 empty 3348-vsl-mark-receiver empty 20 12
0 14 -1 -1 0;
#X coords 0 -1 1 1 240 49 2 100 100;
#X restore 100 100 pd \$0-interface;
#X text 402 543 save state;
#X text 249 591 load state;
#X obj 103 672 until;
#X obj 103 695 f;
#X obj 132 695 + 1;
#X msg 251 771 get \$1 1;
#X obj 251 794 list store;
#X obj 103 888 f;
#X obj 103 771 \$0;
#X obj 103 794 pack;
#X obj 103 857 t b l;
#X obj 103 911 s;
#X obj 253 643 list store;
#X obj 103 610 list length;
#X obj 103 587 t a a;
#X obj 103 649 t f b;
#X msg 147 672 0;
#X obj 699 937 outlet;
#X msg 135 888 symbol \$1-\$2-vsl-receiver;
#X obj 399 566 t b b;
#X obj 699 734 array get \$0-seq;
#X obj 681 628 r \$0-radio-sender;
#X obj 618 734 v \$0-pos;
#X obj 1236 70 array define \$0-seq;
#X msg 699 706 \$1 1;
#X obj 998 926 outlet;
#X text 1007 761 output position;
#X obj 103 733 t b f f;
#X text 258 819 get value;
#X obj 103 544 r \$0-set-seq;
#X obj 253 667 s \$0-set-seq;
#X obj 253 618 r \$0-init-done;
#X obj 699 887 spigot;
#X obj 738 863 > 0;
#X obj 699 797 t f f f;
#X text 683 964 output only >0;
#X msg 998 735 pos \$1;
#X msg 886 860 val \$1;
#X text 109 820 set slider address;
#N canvas 176 63 1373 821 calculate_color 0;
#X obj 241 303 i;
#X obj 181 303 i;
#X obj 121 169 / 100;
#X obj 121 303 i;
#X obj 241 168 % 10;
#X obj 181 169 / 10;
#X obj 181 193 % 10;
#X obj 63 329 f;
#X obj 63 121 t b f f f;
#X obj 81 389 s \$0-color;
#X obj 63 34 r \$0-input-color;
#X obj 121 257 * 63;
#X obj 121 280 / 9;
#X obj 181 257 * 63;
#X obj 181 280 / 9;
#X obj 241 257 * 63;
#X obj 241 280 / 9;
#X obj 81 359 expr -1-($f1+$f2*64+$f3*4096);
#X obj 241 192 i;
#X obj 181 217 i;
#X obj 121 193 i;
#X text 245 143 R;
#X text 188 144 G;
#X text 128 145 B;
#X obj 564 301 i;
#X obj 504 301 i;
#X obj 444 167 / 100;
#X obj 444 301 i;
#X obj 564 166 % 10;
#X obj 504 167 / 10;
#X obj 504 191 % 10;
#X obj 386 317 f;
#X obj 386 119 t b f f f;
#X obj 404 357 expr -1-($f1+$f2*64+$f3*4096);
#X obj 564 190 i;
#X obj 504 215 i;
#X obj 444 191 i;
#X text 568 141 R;
#X text 511 142 G;
#X text 451 143 B;
#X obj 405 386 s \$0-color-dark;
#X obj 564 278 / 9;
#X obj 504 278 / 9;
#X obj 444 278 / 9;
#X obj 444 255 * 55;
#X obj 504 255 * 55;
#X obj 564 255 * 55;
#X obj 874 296 i;
#X obj 814 296 i;
#X obj 754 162 / 100;
#X obj 754 296 i;
#X obj 874 161 % 10;
#X obj 814 162 / 10;
#X obj 814 186 % 10;
#X obj 696 312 f;
#X obj 696 114 t b f f f;
#X obj 714 352 expr -1-($f1+$f2*64+$f3*4096);
#X obj 874 185 i;
#X obj 814 210 i;
#X obj 754 186 i;
#X text 878 136 R;
#X text 821 137 G;
#X text 761 138 B;
#X obj 874 273 / 9;
#X obj 814 273 / 9;
#X obj 754 273 / 9;
#X obj 715 381 s \$0-color-darker;
#X obj 754 250 * 43;
#X obj 814 250 * 43;
#X obj 874 250 * 43;
#X obj 1164 296 i;
#X obj 1104 296 i;
#X obj 1044 162 / 100;
#X obj 1044 296 i;
#X obj 1164 161 % 10;
#X obj 1104 162 / 10;
#X obj 1104 186 % 10;
#X obj 986 312 f;
#X obj 986 114 t b f f f;
#X obj 1004 352 expr -1-($f1+$f2*64+$f3*4096);
#X obj 1164 185 i;
#X obj 1104 210 i;
#X obj 1044 186 i;
#X text 1168 136 R;
#X text 1111 137 G;
#X text 1051 138 B;
#X obj 1164 273 / 9;
#X obj 1104 273 / 9;
#X obj 1044 273 / 9;
#X obj 1044 250 * 39;
#X obj 1104 250 * 39;
#X obj 1164 250 * 39;
#X obj 63 62 t f f f f;
#X obj 1005 381 s \$0-color-darkest;
#X connect 0 0 7 1;
#X connect 1 0 17 1;
#X connect 2 0 20 0;
#X connect 3 0 17 2;
#X connect 4 0 18 0;
#X connect 5 0 6 0;
#X connect 6 0 19 0;
#X connect 7 0 17 0;
#X connect 8 0 7 0;
#X connect 8 1 2 0;
#X connect 8 2 5 0;
#X connect 8 3 4 0;
#X connect 10 0 92 0;
#X connect 11 0 12 0;
#X connect 12 0 3 0;
#X connect 13 0 14 0;
#X connect 14 0 1 0;
#X connect 15 0 16 0;
#X connect 16 0 0 0;
#X connect 17 0 9 0;
#X connect 18 0 15 0;
#X connect 19 0 13 0;
#X connect 20 0 11 0;
#X connect 24 0 31 1;
#X connect 25 0 33 1;
#X connect 26 0 36 0;
#X connect 27 0 33 2;
#X connect 28 0 34 0;
#X connect 29 0 30 0;
#X connect 30 0 35 0;
#X connect 31 0 33 0;
#X connect 32 0 31 0;
#X connect 32 1 26 0;
#X connect 32 2 29 0;
#X connect 32 3 28 0;
#X connect 33 0 40 0;
#X connect 34 0 46 0;
#X connect 35 0 45 0;
#X connect 36 0 44 0;
#X connect 41 0 24 0;
#X connect 42 0 25 0;
#X connect 43 0 27 0;
#X connect 44 0 43 0;
#X connect 45 0 42 0;
#X connect 46 0 41 0;
#X connect 47 0 54 1;
#X connect 48 0 56 1;
#X connect 49 0 59 0;
#X connect 50 0 56 2;
#X connect 51 0 57 0;
#X connect 52 0 53 0;
#X connect 53 0 58 0;
#X connect 54 0 56 0;
#X connect 55 0 54 0;
#X connect 55 1 49 0;
#X connect 55 2 52 0;
#X connect 55 3 51 0;
#X connect 56 0 66 0;
#X connect 57 0 69 0;
#X connect 58 0 68 0;
#X connect 59 0 67 0;
#X connect 63 0 47 0;
#X connect 64 0 48 0;
#X connect 65 0 50 0;
#X connect 67 0 65 0;
#X connect 68 0 64 0;
#X connect 69 0 63 0;
#X connect 70 0 77 1;
#X connect 71 0 79 1;
#X connect 72 0 82 0;
#X connect 73 0 79 2;
#X connect 74 0 80 0;
#X connect 75 0 76 0;
#X connect 76 0 81 0;
#X connect 77 0 79 0;
#X connect 78 0 77 0;
#X connect 78 1 72 0;
#X connect 78 2 75 0;
#X connect 78 3 74 0;
#X connect 79 0 93 0;
#X connect 80 0 91 0;
#X connect 81 0 90 0;
#X connect 82 0 89 0;
#X connect 86 0 70 0;
#X connect 87 0 71 0;
#X connect 88 0 73 0;
#X connect 89 0 88 0;
#X connect 90 0 87 0;
#X connect 91 0 86 0;
#X connect 92 0 8 0;
#X connect 92 1 32 0;
#X connect 92 2 55 0;
#X connect 92 3 78 0;
#X restore 550 45 pd calculate_color;
#X obj 1158 761 timer;
#X obj 1158 736 t b b;
#X text 1162 811 output duration;
#X msg 1158 785 dur \$1;
#X msg 1488 722 0, f 1;
#X obj 1488 756 array get \$0-seq;
#X obj 1553 690 r \$0-length;
#X obj 1542 722 f, f 2;
#X obj 1488 690 t b b;
#X obj 1488 804 list trim;
#X obj 1488 780 list prepend values;
#X obj 1488 637 r \$0-output;
#X text 880 837 output value (including 0s);
#X text 1560 805 output list as "values";
#N canvas 2127 -865 1591 523 args 0;
#X obj 691 75 \$3;
#X obj 691 98 sel 0;
#X obj 691 152 s \$0-height;
#X msg 691 123 3;
#X obj 107 33 loadbang;
#X obj 531 75 \$2;
#X obj 531 152 s \$0-input-color;
#X obj 531 98 sel 0;
#X msg 531 123 999;
#X text 337 52 length;
#X text 528 53 color;
#X text 688 53 height;
#X obj 345 75 \$1;
#X obj 345 98 sel 0;
#X msg 345 122 16;
#X obj 377 122 clip 1 32;
#X obj 345 152 s \$0-length;
#X obj 723 123 clip 2 15;
#X obj 107 56 t b b b b b;
#X text 998 53 divider;
#X obj 1001 75 \$5;
#X text 818 52 \$4 is receive_name;
#X obj 1129 59 cnv 15 100 60 empty empty empty 20 12 0 14 -261234 -66577
0;
#X obj 1131 101 v \$0-pos;
#X msg 1131 75 0;
#X text 1128 53 set start pos?;
#X obj 1001 152 s \$0-grid;
#X connect 0 0 1 0;
#X connect 1 0 3 0;
#X connect 1 1 17 0;
#X connect 3 0 2 0;
#X connect 4 0 18 0;
#X connect 5 0 7 0;
#X connect 7 0 8 0;
#X connect 7 1 6 0;
#X connect 8 0 6 0;
#X connect 12 0 13 0;
#X connect 13 0 14 0;
#X connect 13 1 15 0;
#X connect 14 0 16 0;
#X connect 15 0 16 0;
#X connect 17 0 2 0;
#X connect 18 0 12 0;
#X connect 18 1 5 0;
#X connect 18 2 0 0;
#X connect 18 3 20 0;
#X connect 20 0 26 0;
#X connect 24 0 23 0;
#X restore 332 45 pd args;
#N canvas 1898 -1058 1920 1037 draw_object 0;
#X obj 127 346 until;
#X obj 127 377 f;
#X obj 160 377 + 1;
#X msg 177 346 0;
#X obj 127 509 + 100;
#X obj 127 487 * 15;
#X obj 127 767 s pd-\$0-interface;
#X obj 375 366 s pd-\$0-interface;
#X obj 1115 232 s pd-\$0-interface;
#X msg 1115 206 clear;
#X obj 107 933 s \$0-this-canvas;
#X obj 107 797 * 15;
#X obj 252 932 s pd-\$0-interface;
#X obj 146 235 array size \$0-seq;
#X obj 107 902 t a a;
#X text 216 347 counter;
#X text 377 608 draw sliders;
#X text 262 797 resize abstraction and subpatch;
#X text 513 307 draw hradio;
#X text 1164 206 clear subpatch;
#X obj 75 265 s \$0-init-done;
#X obj 491 283 r \$0-color;
#X obj 263 559 r \$0-color;
#X obj 285 621 r \$0-height;
#X obj 375 306 pack 1 \$0 -262144;
#X obj 174 798 r \$0-height;
#X obj 107 845 pack 16 64;
#X obj 109 142 r \$0-length;
#X obj 127 428 t f f f;
#X obj 346 559 r \$0-color-dark;
#X obj 245 583 f;
#X obj 328 583 f;
#X obj 127 317 t f f b;
#X obj 244 427 sel 0;
#X obj 204 470 /;
#X obj 204 493 % 2;
#X obj 245 512 sel 0;
#X text 382 440 calculate partitioning \; FIXME;
#X obj 244 403 % 4;
#X msg 244 451 4;
#X obj 291 427 sel 0;
#X obj 291 402 % 3;
#X msg 291 451 3;
#X msg 340 451 4;
#X obj 244 379 t f f b;
#X obj 880 772 s pd-\$0-interface;
#X obj 328 531 bng 15 250 50 0 empty empty empty 17 7 0 10 -262144
-1 -1;
#X text 300 712 <pos> <nr> <\$0> <color> <height>;
#X obj 994 545 r \$0-height;
#X obj 994 567 expr $f1 * 16 - 1;
#X obj 857 551 + 1;
#X obj 245 671 t f;
#X obj 127 712 pack 0 1 \$0 -262144 48;
#X obj 857 629 pack 0 1 \$0 -262144 48 -1;
#X obj 1159 573 f;
#X obj 1312 573 f;
#X obj 1159 512 sel 0;
#X obj 1312 531 bng 15 250 50 0 empty empty empty 17 7 0 10 -262144
-1 -1;
#X obj 1159 610 t f;
#X obj 1177 549 r \$0-color-darker;
#X obj 1330 549 r \$0-color-darkest;
#X obj 109 187 t f f f f b;
#X text 888 869 draw marker;
#X obj 857 918 s pd-\$0-interface;
#X obj 127 532 t f f;
#X obj 857 661 t b l l;
#X obj 857 869 \$0;
#X msg 107 872 donecanvasdialog 0 0 -1 0 -1 1 1 \$1 \$2 100 100 1 \,
dirty 0;
#X obj 174 822 expr ($f1) * 16 + 1;
#X msg 857 894 obj 101 101 cnv 0 13 0 empty \$1-vsl-mark-receiver empty
20 12 0 14 -1 -1 0 \;, f 81;
#X msg 903 740 obj \$1 101 cnv 13 13 \$5 empty empty empty 20 12 0
14 \$6 \$6 0 \;, f 62;
#X obj 285 643 expr $f1 * 16 - 4;
#X msg 127 739 obj \$1 102 vsl 15 \$5 0 1 0 0 \$3-\$2-vsl-sender \$3-\$2-vsl-receiver
empty 0 -9 0 10 \$4 -1 -1 0 1, f 98;
#X msg 375 337 obj 100 100 hradio 15 1 1 \$1 \$2-radio-sender \$2-radio-receiver
empty 0 -8 0 10 \$3 -1 -1 0, f 90;
#X obj 75 235 t b f;
#X msg 880 708 obj \$1 101 cnv 0 13 \$5 empty \$3-\$2-vsl-cnv-receiver
empty 20 12 0 14 \$4 \$4 0 \;, f 79;
#X text 920 660 draw beauty;
#X connect 0 0 1 0;
#X connect 1 0 2 0;
#X connect 1 0 28 0;
#X connect 2 0 1 1;
#X connect 3 0 1 1;
#X connect 4 0 64 0;
#X connect 5 0 4 0;
#X connect 9 0 8 0;
#X connect 11 0 26 0;
#X connect 14 0 10 0;
#X connect 14 1 12 0;
#X connect 21 0 24 2;
#X connect 22 0 30 1;
#X connect 23 0 71 0;
#X connect 24 0 73 0;
#X connect 25 0 68 0;
#X connect 26 0 67 0;
#X connect 27 0 61 0;
#X connect 28 0 5 0;
#X connect 28 1 52 1;
#X connect 28 1 53 1;
#X connect 28 2 34 0;
#X connect 29 0 31 1;
#X connect 30 0 51 0;
#X connect 31 0 51 0;
#X connect 32 0 0 0;
#X connect 32 1 44 0;
#X connect 32 2 3 0;
#X connect 33 0 39 0;
#X connect 34 0 35 0;
#X connect 35 0 36 0;
#X connect 35 0 56 0;
#X connect 36 0 30 0;
#X connect 36 1 46 0;
#X connect 38 0 33 0;
#X connect 39 0 34 1;
#X connect 40 0 42 0;
#X connect 41 0 40 0;
#X connect 42 0 34 1;
#X connect 43 0 34 1;
#X connect 44 0 38 0;
#X connect 44 1 41 0;
#X connect 44 2 43 0;
#X connect 46 0 31 0;
#X connect 48 0 49 0;
#X connect 49 0 53 4;
#X connect 50 0 53 0;
#X connect 51 0 52 3;
#X connect 51 0 53 3;
#X connect 52 0 72 0;
#X connect 53 0 65 0;
#X connect 54 0 58 0;
#X connect 55 0 58 0;
#X connect 56 0 54 0;
#X connect 56 1 57 0;
#X connect 57 0 55 0;
#X connect 58 0 53 5;
#X connect 59 0 54 1;
#X connect 60 0 55 1;
#X connect 61 0 74 0;
#X connect 61 1 32 0;
#X connect 61 2 13 0;
#X connect 61 3 24 0;
#X connect 61 4 9 0;
#X connect 64 0 50 0;
#X connect 64 1 52 0;
#X connect 65 0 66 0;
#X connect 65 1 75 0;
#X connect 65 2 70 0;
#X connect 66 0 69 0;
#X connect 67 0 14 0;
#X connect 68 0 26 1;
#X connect 69 0 63 0;
#X connect 70 0 45 0;
#X connect 71 0 52 4;
#X connect 72 0 6 0;
#X connect 73 0 7 0;
#X connect 74 0 20 0;
#X connect 74 1 11 0;
#X connect 75 0 45 0;
#X restore 708 45 pd draw_object;
#N canvas -700 73 1920 1037 mark_pos 0;
#X obj 202 160 * 15;
#X obj 202 232 s \$0-vsl-mark-receiver;
#X obj 202 105 r \$0-radio-sender;
#X obj 202 184 + 101;
#X msg 202 208 pos \$1 101;
#X connect 0 0 3 0;
#X connect 2 0 0 0;
#X connect 3 0 4 0;
#X connect 4 0 1 0;
#X restore 843 45 pd mark_pos;
#N canvas -8 -8 1920 1037 sliders_to_array_and_canvases 0;
#X obj 107 59 r \$0-0-vsl-sender;
#X obj 118 79 r \$0-1-vsl-sender;
#X obj 127 99 r \$0-2-vsl-sender;
#X obj 138 120 r \$0-3-vsl-sender;
#X obj 147 139 r \$0-4-vsl-sender;
#X obj 158 159 r \$0-5-vsl-sender;
#X obj 167 179 r \$0-6-vsl-sender;
#X obj 178 199 r \$0-7-vsl-sender;
#X obj 357 59 r \$0-8-vsl-sender;
#X obj 368 79 r \$0-9-vsl-sender;
#X obj 377 99 r \$0-10-vsl-sender;
#X obj 387 119 r \$0-11-vsl-sender;
#X obj 397 139 r \$0-12-vsl-sender;
#X obj 408 159 r \$0-13-vsl-sender;
#X obj 417 179 r \$0-14-vsl-sender;
#X obj 428 199 r \$0-15-vsl-sender;
#X obj 614 59 r \$0-16-vsl-sender;
#X obj 625 79 r \$0-17-vsl-sender;
#X obj 634 99 r \$0-18-vsl-sender;
#X obj 645 119 r \$0-19-vsl-sender;
#X obj 654 139 r \$0-20-vsl-sender;
#X obj 665 159 r \$0-21-vsl-sender;
#X obj 674 179 r \$0-22-vsl-sender;
#X obj 686 199 r \$0-23-vsl-sender;
#X obj 872 59 r \$0-24-vsl-sender;
#X obj 883 79 r \$0-25-vsl-sender;
#X obj 894 99 r \$0-26-vsl-sender;
#X obj 903 119 r \$0-27-vsl-sender;
#X obj 912 139 r \$0-28-vsl-sender;
#X obj 923 159 r \$0-29-vsl-sender;
#X obj 932 180 r \$0-30-vsl-sender;
#X obj 943 199 r \$0-31-vsl-sender;
#X msg 62 59 \$1 0;
#X msg 827 59 \$1 24;
#X msg 837 79 \$1 25;
#X msg 846 99 \$1 26;
#X msg 857 119 \$1 27;
#X msg 867 139 \$1 28;
#X msg 877 159 \$1 29;
#X msg 887 179 \$1 30;
#X msg 897 199 \$1 31;
#X msg 312 59 \$1 8;
#X msg 322 79 \$1 9;
#X msg 332 99 \$1 10;
#X msg 342 119 \$1 11;
#X msg 352 139 \$1 12;
#X msg 362 159 \$1 13;
#X msg 372 179 \$1 14;
#X msg 382 199 \$1 15;
#X msg 569 59 \$1 16;
#X msg 579 79 \$1 17;
#X msg 589 99 \$1 18;
#X msg 599 119 \$1 19;
#X msg 609 139 \$1 20;
#X msg 619 159 \$1 21;
#X msg 629 179 \$1 22;
#X msg 639 199 \$1 23;
#X obj 62 218 t a;
#X obj 312 218 t a;
#X obj 569 218 t a;
#X obj 827 218 t a;
#X msg 72 79 \$1 1;
#X msg 82 99 \$1 2;
#X msg 92 119 \$1 3;
#X msg 102 139 \$1 4;
#X msg 112 159 \$1 5;
#X msg 122 179 \$1 6;
#X msg 132 199 \$1 7;
#X obj 62 440 array set \$0-seq;
#X obj 356 614 *;
#X obj 374 551 r \$0-height;
#X obj 356 770 pack f 13;
#X msg 356 793 vis_size \$2 \$1;
#X obj 356 527 -;
#X msg 356 502 1 \$1;
#X obj 374 576 expr $f1 * 16 - 1;
#X obj 356 816 s;
#X obj 62 314 t a a;
#X obj 62 413 unpack;
#X obj 356 411 unpack;
#X obj 616 775 pack f \$0;
#X msg 616 797 symbol \$2-\$1-vsl-cnv-receiver;
#X obj 397 689 spigot;
#X obj 356 637 t f f f;
#X obj 455 689 sel 0;
#X msg 455 738 13;
#X obj 397 740 * 13;
#X obj 436 664 < 3;
#X obj 397 716 / 2;
#X obj 564 427 r \$0-grid;
#X obj 356 456 expr if($f2 > 0 \, int($f1*$f2)/$f2 \, $f1);
#X connect 0 0 32 0;
#X connect 1 0 61 0;
#X connect 2 0 62 0;
#X connect 3 0 63 0;
#X connect 4 0 64 0;
#X connect 5 0 65 0;
#X connect 6 0 66 0;
#X connect 7 0 67 0;
#X connect 8 0 41 0;
#X connect 9 0 42 0;
#X connect 10 0 43 0;
#X connect 11 0 44 0;
#X connect 12 0 45 0;
#X connect 13 0 46 0;
#X connect 14 0 47 0;
#X connect 15 0 48 0;
#X connect 16 0 49 0;
#X connect 17 0 50 0;
#X connect 18 0 51 0;
#X connect 19 0 52 0;
#X connect 20 0 53 0;
#X connect 21 0 54 0;
#X connect 22 0 55 0;
#X connect 23 0 56 0;
#X connect 24 0 33 0;
#X connect 25 0 34 0;
#X connect 26 0 35 0;
#X connect 27 0 36 0;
#X connect 28 0 37 0;
#X connect 29 0 38 0;
#X connect 30 0 39 0;
#X connect 31 0 40 0;
#X connect 32 0 57 0;
#X connect 33 0 60 0;
#X connect 34 0 60 0;
#X connect 35 0 60 0;
#X connect 36 0 60 0;
#X connect 37 0 60 0;
#X connect 38 0 60 0;
#X connect 39 0 60 0;
#X connect 40 0 60 0;
#X connect 41 0 58 0;
#X connect 42 0 58 0;
#X connect 43 0 58 0;
#X connect 44 0 58 0;
#X connect 45 0 58 0;
#X connect 46 0 58 0;
#X connect 47 0 58 0;
#X connect 48 0 58 0;
#X connect 49 0 59 0;
#X connect 50 0 59 0;
#X connect 51 0 59 0;
#X connect 52 0 59 0;
#X connect 53 0 59 0;
#X connect 54 0 59 0;
#X connect 55 0 59 0;
#X connect 56 0 59 0;
#X connect 57 0 77 0;
#X connect 58 0 77 0;
#X connect 59 0 77 0;
#X connect 60 0 77 0;
#X connect 61 0 57 0;
#X connect 62 0 57 0;
#X connect 63 0 57 0;
#X connect 64 0 57 0;
#X connect 65 0 57 0;
#X connect 66 0 57 0;
#X connect 67 0 57 0;
#X connect 69 0 83 0;
#X connect 70 0 75 0;
#X connect 71 0 72 0;
#X connect 72 0 76 0;
#X connect 73 0 69 0;
#X connect 74 0 73 0;
#X connect 75 0 69 1;
#X connect 77 0 78 0;
#X connect 77 1 79 0;
#X connect 78 0 68 0;
#X connect 78 1 68 1;
#X connect 79 0 90 0;
#X connect 79 1 80 0;
#X connect 80 0 81 0;
#X connect 81 0 76 1;
#X connect 82 0 88 0;
#X connect 83 0 71 0;
#X connect 83 1 82 0;
#X connect 83 2 87 0;
#X connect 84 0 85 0;
#X connect 85 0 71 1;
#X connect 86 0 71 1;
#X connect 87 0 82 1;
#X connect 87 0 84 0;
#X connect 88 0 86 0;
#X connect 89 0 90 1;
#X connect 90 0 74 0;
#X restore 952 45 pd sliders_to_array_and_canvases;
#N canvas 96 -1041 1920 1037 handle_input 1;
#X obj 200 605 % \$1;
#X obj 243 334 % \$1;
#X obj 200 640 s \$0-radio-receiver;
#X obj 243 364 s \$0-radio-receiver;
#X obj 168 510 v \$0-pos;
#X obj 168 532 + 1;
#X text 165 484 increase pos;
#X text 286 335 set pos;
#X obj 52 362 s \$0-set-seq;
#X text 49 333 set sequence;
#X obj 413 364 s \$0-output;
#X text 306 485 set value via "set <index> <value> <ramp_time>";
#X obj 732 385 list length;
#X obj 732 408 - 1;
#X obj 665 434 list split;
#X obj 665 366 t a a;
#X obj 665 545 until;
#X obj 665 568 f;
#X obj 694 568 + 1;
#X obj 665 522 t f b;
#X msg 709 545 0;
#X msg 856 474 get \$1 1;
#X obj 856 507 list store;
#X obj 827 440 t f f;
#X obj 665 457 t a a;
#X obj 376 614 pack f f 0 \$0;
#X obj 827 543 pack f f 0 \$0;
#X obj 1113 479 until;
#X obj 1113 502 f;
#X obj 1142 502 + 1;
#X obj 1113 456 t f b;
#X msg 1157 479 0;
#X obj 1113 429 f;
#X obj 1131 405 r \$0-length;
#X text 1108 332 reset \; FIXME \; could be done via list;
#X obj 260 303 r \$0-length;
#X obj 665 497 list length;
#X obj 1113 563 s \$0-set-value;
#X msg 1113 539 set \$1 0;
#X obj 141 78 r \$0-set-value;
#X obj 473 225 s \$0-reset;
#X obj 1113 382 r \$0-reset;
#X obj 125 48 r \$0-input;
#X text 411 338 output values as list;
#X obj 168 557 t f f;
#X obj 88 639 s \$0-pos-abs;
#X obj 211 395 s \$0-pos-abs;
#X obj 211 304 t f f;
#X text 664 344 set sequence with ramp "list <list> <ramp_time>";
#X obj 450 108 r \$0-input-pos-abs;
#X obj 450 132 route pos-abs;
#X obj 576 225 array random \$0-seq;
#X obj 576 281 s \$0-random-output;
#X obj 576 249 t f f;
#X obj 733 281 s \$0-radio-sender;
#X obj 125 180 route values bang float set output list reset random
run;
#X obj 760 225 s \$0-run;
#X text 575 302 return random output;
#X text 833 217 run through with "run <tempo> <callback_receiver>"
(default tempo if 0;
#N canvas -8 -8 1920 1037 dyn-receive 0;
#X obj 56 80 loadbang;
#X obj 56 308 outlet;
#X obj 123 169 pack s \$0;
#X obj 56 131 sel symbol;
#X msg 123 191 clear \, obj 100 100 r \$1 \, obj 100 150 s \$2-out
\, connect 0 0 1 0, f 62;
#X obj 56 285 r \$0-out;
#X obj 123 213 s pd-\$0-receive;
#N canvas 0 23 450 300 \$0-receive 0;
#X obj 100 100 r ;
#X obj 100 150 s 3348-out;
#X connect 0 0 1 0;
#X restore 56 247 pd \$0-receive;
#X obj 56 108 symbol \$4;
#X connect 0 0 8 0;
#X connect 2 0 4 0;
#X connect 3 1 2 0;
#X connect 4 0 6 0;
#X connect 5 0 1 0;
#X connect 8 0 3 0;
#X restore 159 110 pd dyn-receive;
#X text 270 111 handle \$4;
#N canvas 783 -958 922 332 \$0-dynamic-clone 0;
#X obj 53 48 inlet;
#X obj 53 72 s \$0-in;
#X obj 53 127 r \$0-length;
#X obj 53 149 pack 16 \$0;
#N canvas 0 23 450 300 \$0-clone 0;
#X obj 100 100 r 3348-in;
#X obj 100 150 clone 16 -seq-vel-helper-ramp.cl;
#X connect 0 0 1 0;
#X restore 53 257 pd \$0-clone;
#X obj 53 206 s pd-\$0-clone;
#X msg 53 184 clear \, obj 100 100 r \$2-in \, obj 100 150 clone \$1
-seq-vel-helper-ramp.cl \, connect 0 0 1 0, f 92;
#X connect 0 0 1 0;
#X connect 2 0 3 0;
#X connect 3 0 6 0;
#X connect 6 0 5 0;
#X restore 827 567 pd \$0-dynamic-clone;
#N canvas 783 -958 922 332 \$0-dynamic-clone 0;
#X obj 53 48 inlet;
#X obj 53 72 s \$0-in;
#X obj 53 127 r \$0-length;
#X obj 53 149 pack 16 \$0;
#N canvas 0 23 450 300 \$0-clone 0;
#X obj 100 100 r 3348-in;
#X obj 100 150 clone 16 -seq-vel-helper-ramp.cl;
#X connect 0 0 1 0;
#X restore 53 257 pd \$0-clone;
#X obj 53 206 s pd-\$0-clone;
#X msg 53 184 clear \, obj 100 100 r \$2-in \, obj 100 150 clone \$1
-seq-vel-helper-ramp.cl \, connect 0 0 1 0, f 92;
#X connect 0 0 1 0;
#X connect 2 0 3 0;
#X connect 3 0 6 0;
#X connect 6 0 5 0;
#X restore 376 640 pd \$0-dynamic-clone;
#X obj 376 508 list split 2;
#X obj 434 545 route bang;
#X text 441 565 if only 2 parameters given \;;
#X connect 0 0 2 0;
#X connect 1 0 3 0;
#X connect 4 0 5 0;
#X connect 5 0 44 0;
#X connect 12 0 13 0;
#X connect 13 0 14 1;
#X connect 14 0 24 0;
#X connect 14 1 26 2;
#X connect 15 0 14 0;
#X connect 15 1 12 0;
#X connect 16 0 17 0;
#X connect 17 0 18 0;
#X connect 17 0 23 0;
#X connect 18 0 17 1;
#X connect 19 0 16 0;
#X connect 19 1 20 0;
#X connect 20 0 17 1;
#X connect 21 0 22 0;
#X connect 22 0 26 1;
#X connect 23 0 26 0;
#X connect 23 1 21 0;
#X connect 24 0 36 0;
#X connect 24 1 22 1;
#X connect 25 0 62 0;
#X connect 26 0 61 0;
#X connect 27 0 28 0;
#X connect 28 0 29 0;
#X connect 28 0 38 0;
#X connect 29 0 28 1;
#X connect 30 0 27 0;
#X connect 30 1 31 0;
#X connect 31 0 28 1;
#X connect 32 0 30 0;
#X connect 33 0 32 1;
#X connect 35 0 1 1;
#X connect 35 0 0 1;
#X connect 36 0 19 0;
#X connect 38 0 37 0;
#X connect 39 0 55 0;
#X connect 41 0 32 0;
#X connect 42 0 55 0;
#X connect 44 0 45 0;
#X connect 44 1 0 0;
#X connect 47 0 46 0;
#X connect 47 1 1 0;
#X connect 49 0 50 0;
#X connect 50 0 47 0;
#X connect 51 0 53 0;
#X connect 53 0 52 0;
#X connect 53 1 54 0;
#X connect 55 0 8 0;
#X connect 55 1 4 0;
#X connect 55 2 47 0;
#X connect 55 3 63 0;
#X connect 55 4 10 0;
#X connect 55 5 15 0;
#X connect 55 6 40 0;
#X connect 55 7 51 0;
#X connect 55 8 56 0;
#X connect 59 0 55 0;
#X connect 63 0 25 0;
#X connect 63 1 64 0;
#X connect 64 0 25 2;
#X restore 412 45 pd handle_input;
#X obj 97 45 s \$0-input;
#X obj 881 734 r \$0-grid;
#X obj 699 765 expr if($f2 > 0 \, int($f1*$f2) \, $f1);
#X obj 681 671 t f f f b b;
#X obj 1310 738 r \$0-pos-abs;
#X text 1262 713 output absolute position;
#X msg 1310 764 pos-abs \$1;
#X obj 1751 45 inlet;
#X obj 1661 70 s \$0-input-pos-abs;
#X text 1521 19 right inlet for absolute position only;
#X obj 773 797 r \$0-grid;
#X obj 738 836 +;
#X text 769 818 either val OR grid > 0;
#X obj 1311 854 r \$0-random-output;
#X text 1107 875 output index by probability;
#X msg 1311 877 index \$1;
#N canvas 690 -953 823 593 run 0;
#X obj 273 47 r \$0-run;
#X obj 318 387 s;
#X text 347 387 receiver name;
#X obj 318 361 spigot;
#X msg 519 254 0;
#X msg 357 254 1;
#X obj 296 161 list split 1;
#X obj 336 214 route symbol;
#X obj 363 474 sel 0;
#X obj 296 446 route bang;
#X msg 296 493 200;
#X text 99 515 at end of run;
#X text 233 493 default;
#X text 429 214 callback name;
#X text 375 446 duration;
#X text 555 254 default to not sending callback;
#X text 390 254 allow callback;
#X obj 134 252 del;
#X obj 296 536 s \$0-step-duration;
#X obj 152 206 r \$0-step-duration;
#X obj 57 495 s \$0-input;
#X msg 103 206 1, f 1;
#X obj 57 252 spigot;
#X msg 121 206 0, f 1;
#X obj 57 317 f;
#X obj 57 159 t b b b;
#X msg 80 287 0, f 2;
#X obj 90 317 + 1;
#X obj 89 535 s \$0-run-done;
#X obj 318 300 r \$0-run-done;
#X obj 57 389 <;
#X obj 105 370 r \$0-length;
#X obj 57 414 sel 1;
#X obj 89 439 t b b;
#X obj 57 470 f;
#X obj 57 340 t f f;
#X obj 273 82 t b a b;
#X connect 0 0 36 0;
#X connect 3 0 1 0;
#X connect 4 0 3 1;
#X connect 5 0 3 1;
#X connect 6 0 9 0;
#X connect 6 1 7 0;
#X connect 6 2 9 0;
#X connect 7 0 1 1;
#X connect 7 0 5 0;
#X connect 8 0 10 0;
#X connect 8 1 18 0;
#X connect 9 0 10 0;
#X connect 9 1 8 0;
#X connect 10 0 18 0;
#X connect 17 0 22 0;
#X connect 19 0 17 1;
#X connect 21 0 22 1;
#X connect 22 0 17 0;
#X connect 22 0 24 0;
#X connect 23 0 22 1;
#X connect 24 0 27 0;
#X connect 24 0 35 0;
#X connect 25 0 22 0;
#X connect 25 1 26 0;
#X connect 25 2 21 0;
#X connect 26 0 24 1;
#X connect 27 0 24 1;
#X connect 29 0 3 0;
#X connect 30 0 32 0;
#X connect 31 0 30 1;
#X connect 32 0 34 0;
#X connect 32 1 33 0;
#X connect 33 0 28 0;
#X connect 33 1 23 0;
#X connect 34 0 20 0;
#X connect 35 0 30 0;
#X connect 35 1 34 1;
#X connect 36 0 25 0;
#X connect 36 1 6 0;
#X connect 36 2 4 0;
#X restore 551 73 pd run;
#X text 1444 899 output end of run;
#X obj 1573 883 r \$0-run-done;
#X msg 1573 907 run-done;
#X text 1234 109 TODOS longterm \; raster anzeigen bei unterteilung?
\; dauer des ersten beats nicht ausgeben? min/max einstellbar? \; start
ramp to arrive at value in time? change init values with color/length
messages (and save state?) \; named parameters \;, f 86;
#X text 702 111 TODOS now \; ramp_modes / non-linear mode? \; init
tempo with parameter \; set tempo via message \;, f 71;
#X connect 0 0 67 0;
#X connect 2 0 20 1;
#X connect 2 1 27 0;
#X connect 3 0 4 0;
#X connect 4 0 2 0;
#X connect 5 0 6 1;
#X connect 6 0 4 1;
#X connect 10 0 11 0;
#X connect 11 0 12 0;
#X connect 11 0 35 0;
#X connect 12 0 11 1;
#X connect 13 0 14 0;
#X connect 14 0 15 1;
#X connect 15 0 19 0;
#X connect 16 0 17 0;
#X connect 17 0 18 0;
#X connect 18 0 15 0;
#X connect 18 1 26 0;
#X connect 20 0 38 0;
#X connect 21 0 23 0;
#X connect 22 0 21 0;
#X connect 22 1 14 1;
#X connect 23 0 10 0;
#X connect 23 1 24 0;
#X connect 24 0 11 1;
#X connect 26 0 19 1;
#X connect 27 0 3 0;
#X connect 27 1 6 0;
#X connect 28 0 69 0;
#X connect 29 0 70 0;
#X connect 32 0 28 0;
#X connect 35 0 16 0;
#X connect 35 1 17 1;
#X connect 35 2 13 0;
#X connect 37 0 22 0;
#X connect 39 0 20 0;
#X connect 40 0 25 0;
#X connect 41 0 40 1;
#X connect 42 0 40 0;
#X connect 42 1 78 0;
#X connect 42 2 45 0;
#X connect 44 0 33 0;
#X connect 45 0 33 0;
#X connect 48 0 51 0;
#X connect 49 0 48 0;
#X connect 49 1 48 1;
#X connect 51 0 33 0;
#X connect 52 0 53 0;
#X connect 53 0 58 0;
#X connect 54 0 55 1;
#X connect 55 0 53 1;
#X connect 56 0 52 0;
#X connect 56 1 55 0;
#X connect 57 0 33 0;
#X connect 58 0 57 0;
#X connect 59 0 56 0;
#X connect 68 0 69 1;
#X connect 69 0 42 0;
#X connect 70 0 30 0;
#X connect 70 1 32 0;
#X connect 70 2 44 0;
#X connect 70 3 49 0;
#X connect 71 0 73 0;
#X connect 73 0 33 0;
#X connect 74 0 75 0;
#X connect 77 0 78 1;
#X connect 78 0 41 0;
#X connect 80 0 82 0;
#X connect 82 0 33 0;
#X connect 85 0 86 0;
#X connect 86 0 33 0;
#X coords 0 -1 1 1 240 49 2 100 100;
