#N canvas 61 128 691 740 12;
#X obj 138 58 inlet;
#X obj 215 496 s;
#X msg 233 251 symbol \$1-\$2-vsl-receiver;
#X obj 144 320 line;
#X obj 432 226 pack \$1 1;
#X obj 233 226 pack f \$1;
#X obj 432 251 array get;
#X msg 507 226 symbol \$1-seq;
#X obj 432 276 t f f;
#X obj 59 148 t b f b;
#X msg 59 251 1;
#X msg 432 301 set 0;
#X obj 180 452 expr $f3 + ($f2 - $f3) * $f1;
#X text 185 432 $f1: 0..1;
#X text 281 433 $f2: to;
#X text 366 432 $f3: from;
#X obj 138 102 unpack f f s f;
#X obj 180 391 -seq-vel-helper-ease;
#X obj 137 204 t f f;
#X obj 57 477 t f b;
#X obj 57 502 del;
#X text 96 664 hide label during automatic transition;
#X obj 89 638 s;
#X obj 233 149 t f f f f;
#X obj 394 506 r \$0-slider-transition-trigger;
#X obj 462 465 array;
#X msg 293 577 symbol \$1-slider-transitions-ongoing;
#X obj 112 596 array set;
#X obj 142 567 \$1;
#X msg 112 567 1, f 2;
#X obj 89 537 t b b b;
#X obj 28 537 t b b;
#X msg 60 567 0, f 2;
#X msg 273 619 symbol \$1-slider-transition-check;
#X connect 0 0 16 0;
#X connect 2 0 1 1;
#X connect 3 0 17 0;
#X connect 4 0 6 0;
#X connect 5 0 2 0;
#X connect 6 0 8 0;
#X connect 7 0 6 2;
#X connect 8 0 11 0;
#X connect 8 1 12 2;
#X connect 9 0 10 0;
#X connect 9 1 12 1;
#X connect 9 2 4 0;
#X connect 10 0 3 0;
#X connect 11 0 3 0;
#X connect 12 0 1 0;
#X connect 16 0 9 0;
#X connect 16 1 18 0;
#X connect 16 2 17 0;
#X connect 16 3 23 0;
#X connect 17 0 12 0;
#X connect 18 0 19 0;
#X connect 18 1 3 1;
#X connect 19 0 20 0;
#X connect 19 1 30 0;
#X connect 20 0 31 0;
#X connect 23 0 5 0;
#X connect 23 1 7 0;
#X connect 23 2 33 0;
#X connect 23 3 26 0;
#X connect 26 0 27 2;
#X connect 28 0 27 1;
#X connect 29 0 27 0;
#X connect 30 0 22 0;
#X connect 30 1 29 0;
#X connect 30 2 28 0;
#X connect 31 0 22 0;
#X connect 31 1 32 0;
#X connect 32 0 27 0;
#X connect 33 0 22 1;
