#N canvas 371 323 1093 634 12;
#X obj 99 78 inlet;
#X obj 140 316 s;
#X msg 193 242 symbol \$1-\$2-vsl-receiver;
#X obj 140 287 line;
#X msg 382 268 set \$1;
#X obj 382 218 pack \$1 1;
#X obj 112 122 unpack f f f;
#X obj 193 218 pack f \$1;
#X obj 382 245 array get;
#X msg 457 217 symbol \$1-seq;
#X obj 193 145 t f f;
#X obj 88 168 t f b;
#X connect 0 0 6 0;
#X connect 2 0 1 1;
#X connect 3 0 1 0;
#X connect 4 0 3 0;
#X connect 5 0 8 0;
#X connect 6 0 11 0;
#X connect 6 1 3 1;
#X connect 6 2 10 0;
#X connect 7 0 2 0;
#X connect 8 0 4 0;
#X connect 9 0 8 2;
#X connect 10 0 7 0;
#X connect 10 1 9 0;
#X connect 11 0 3 0;
#X connect 11 1 5 0;
