#N canvas 251 90 1363 812 12;
#X obj 1 1 cnv 15 1360 48 empty empty empty 20 12 0 14 #f0f0f0 #404040
0;
#X floatatom 27 529 5 0 0 0 - - - 0;
#X obj 49 556 bng 15 250 50 0 empty empty empty 17 7 0 10 #fcfcfc #000000
#000000;
#X text 27 65 PARAMETERS;
#X text 25 15 -seq-vel : sequencer with step velocities and multiple
input/output/manipulation options, f 89;
#X text 26 116 You can initialize the following parameters via <key>=<value>
or in the given order without a key name:, f 106;
#X text 26 156 Key:, f 5;
#X text 116 156 length, f 12;
#X text 26 181 Position:;
#X text 116 181 1, f 12;
#X text 26 205 Value:;
#X text 116 205 float (1-32);
#X text 226 156 color, f 23;
#X text 26 229 Example:;
#X text 226 181 2, f 23;
#X text 416 156 height, f 12;
#X text 416 205 float (0-32);
#X text 416 229 3 (default), f 12;
#X text 116 229 16 (default);
#X text 524 205 float (0-32), f 17;
#X text 524 156 grid, f 17;
#X text 416 181 3, f 12;
#X text 524 181 4, f 17;
#X text 668 156 receiver name, f 14;
#X text 668 181 5, f 14;
#X text 668 205 symbol, f 14;
#X floatatom 670 260 5 0 0 0 - - - 0;
#X obj 670 284 s \$0-receive;
#X obj 795 284 print sent-messages;
#X text 73 555 bang to increase pos;
#X text 72 528 set absolute position;
#X text 793 205 symbol, f 14;
#X text 793 156 sender name, f 14;
#X text 793 181 6, f 14;
#X text 1177 65 EXAMPLES;
#X text 524 229 rasterizes scale \; outputs integers;
#X text 26 97 The object accepts positional arguments and named arguments.
, f 62;
#X msg 27 399 set 1 0;
#X msg 35 424 set 1 1;
#X text 25 372 set single values;
#X obj 27 451 s \$0-receive;
#X text 668 229 \$0-receive, f 14;
#X obj 795 260 r \$0-send;
#X obj 209 451 s \$0-receive;
#N canvas 857 287 217 329 easings 0;
#X msg 27 85 inout-cubic;
#X msg 27 66 inout;
#X msg 27 163 in-cubic;
#X msg 27 144 in;
#X msg 27 241 out-cubic;
#X msg 27 222 out;
#X msg 27 27 linear;
#X msg 80 27 line;
#X msg 77 66 inout-sine;
#X msg 63 144 in-sine;
#X msg 63 222 out-sine;
#X msg 27 260 out-expo;
#X msg 27 279 out-bounce;
#X msg 27 182 in-expo;
#X msg 27 104 inout-expo;
#X msg 27 298 out-elastic;
#X restore 609 483 pd easings;
#X text 207 372 transition single values;
#X text 87 399 |pos value(;
#X msg 209 399 set 1 0 500;
#X msg 217 424 set 1 1 1000;
#X text 24 342 INPUTS/OUTPUTS;
#X msg 125 609 pos-abs 6;
#X obj 429 451 s \$0-receive;
#X text 427 372 ease single values;
#X text 399 483 See possible ease-modes here:;
#X msg 437 424 set 1 1 1000 inout-expo;
#X msg 429 399 set 1 0 500 out;
#X obj 649 451 s \$0-receive;
#X floatatom 72 767 2 0 0 0 - - - 0;
#X text 91 768 left outlet outputs only values >0;
#X obj 429 606 s \$0-receive;
#X text 140 635 right inlet accepts \; "pos-abs" messages only \; to
easily connect \; 2 modules.;
#X text 426 527 run through cycle;
#X msg 429 554 run 500;
#X obj 429 669 bng 31 250 50 0 empty empty empty 17 7 0 10 #e0c4fc
#000000 #000000;
#X obj 429 643 r done;
#X msg 437 579 run 200 done;
#X text 491 553 1st param is step duration;
#X text 534 578 2nd is callback receiver;
#X obj 752 606 s \$0-receive;
#X text 892 578 2nd is callback receiver;
#X text 750 527 stumble through cycle;
#X msg 752 554 stumble 2000;
#X text 849 553 1st param is complete cycle duration;
#X text 749 640 stumble mode will divide the set cycle duration \;
according to the set values for each step. \; values of 0 are skipped.
;
#X text 469 669 See callback \; after run or stumble here.;
#X msg 760 579 stumble 1000 done;
#X msg 58 583 reset;
#X msg 657 424 0.6 0.2 0.5 0.4 0.3 0.8 0.9 0;
#X text 647 372 transition all values (ease is optional);
#X msg 649 399 0.1 0.2 0.4 0.6 0.8 0.9 1 2000 out-bounce;
#X obj 1 324 cnv 1 1360 2 empty empty empty 20 12 0 14 #f0f0f0 #404040
0;
#X text 471 758 Behind the upper square of each slider is a bang object
to switch to this position \; For manipulating values \, drag from
the lower parts of the slider., f 85;
#X obj 992 424 s \$0-receive;
#X text 989 372 go to random index;
#X msg 992 399 random;
#X text 988 450 will jump to position based \; on weighted value probability.
\; can be used for visible markov chains;
#X text 920 156 partition length;
#X text 793 229 \$0-send, f 14;
#X text 919 205 float, f 16;
#X text 226 205 float (0-999) or string;
#X text 226 229 999 (default white) \; 900 (red) \; lime, f 23;
#X text 919 229 visualize \; partition groups;
#N canvas 0 50 450 250 (subpatch) 0;
#X array \$0-wave 131 float 4;
#X coords 0 1 130 -1 131 100 1 0 0;
#X restore 1178 656 graph;
#X text 1174 527 use as controller;
#N canvas 480 395 536 340 harmonics 0;
#X obj 56 32 inlet;
#X obj 56 60 t b a;
#X obj 88 106 route 0 1 2 3 4 5 6 7;
#X msg 88 258 \; \$9-wave sinesum 128 \$1 \$2 \$3 \$4 \$5 \$6 \$7 \$8
\, normalize;
#X obj 88 189 pack f f f f f f f f \$0;
#X connect 0 0 1 0;
#X connect 1 0 4 0;
#X connect 1 1 2 0;
#X connect 2 0 4 0;
#X connect 2 1 4 1;
#X connect 2 2 4 2;
#X connect 2 3 4 3;
#X connect 2 4 4 4;
#X connect 2 5 4 5;
#X connect 2 6 4 6;
#X connect 2 7 4 7;
#X connect 4 0 3 0;
#X restore 1210 611 pd harmonics;
#X obj 446 767 cnv 15 16 16 empty empty empty 20 12 0 14 #faff00 #404040
0;
#X text 449 766 !;
#X obj 72 694 -seq-vel 4 height=4 color=324 grid=4;
#A saved 0.254237 0.966102 0 1;
#X obj 27 635 -seq-vel 7 color=879 receiver=\$0-receive sender=\$0-send
;
#A saved 0.6 0.2 0.5 0.4 0.3 0.8 0.9;
#X obj 1178 562 -seq-vel 8 color=navy partition=8;
#A saved 1 0.534884 0.209302 0.0697674 0 0.0232558 0 0;
#N canvas 631 158 515 832 colors 0;
#X obj 51 110 -seq-vel 6 color=red;
#A saved 0 0 0.581395 0.325581 0 0;
#X obj 163 110 -seq-vel 6 color=bright-red;
#A saved 0 0 0.27907 0.418605 0 0;
#X obj 51 173 -seq-vel 6 color=orange;
#A saved 0 0 0.465116 0.534884 0 0;
#X obj 163 173 -seq-vel 6 color=bright-orange;
#A saved 0 0 0.511628 0.488372 0 0;
#X obj 51 236 -seq-vel 6 color=yellow;
#A saved 0 0 0.511628 0.465116 0 0;
#X obj 163 236 -seq-vel 6 color=bright-yellow;
#A saved 0 0 0.395349 0.44186 0 0;
#X obj 51 299 -seq-vel 6 color=lime;
#A saved 0 0 0.511628 0.27907 0 0;
#X obj 163 299 -seq-vel 6 color=bright-lime;
#A saved 0 0 0.348837 0.372093 0 0;
#X obj 51 425 -seq-vel 6 color=cyan;
#A saved 0 0 0.488372 0.418605 0 0;
#X obj 163 425 -seq-vel 6 color=bright-cyan;
#A saved 0 0 0.325581 0.511628 0 0;
#X obj 51 614 -seq-vel 6 color=pink;
#A saved 0 0 0.674419 0.395349 0 0;
#X obj 163 614 -seq-vel 6 color=bright-pink;
#A saved 0 0 0.418605 0.627907 0 0;
#X obj 51 488 -seq-vel 6 color=blue;
#A saved 0 0 0.348837 0.488372 0 0;
#X obj 163 488 -seq-vel 6 color=bright-blue;
#A saved 0 0 0.465116 0.744186 0 0;
#X obj 51 362 -seq-vel 6 color=green;
#A saved 0 0 0.55814 0.395349 0 0;
#X obj 163 362 -seq-vel 6 color=bright-green;
#A saved 0 0 0.465116 0.511628 0 0;
#X obj 51 740 -seq-vel 6 color=black;
#A saved 0 0 0.44186 0.604651 0 0;
#X obj 163 740 -seq-vel 6 color=navy;
#A saved 0 0 0.395349 0.674419 0 0;
#X obj 51 677 -seq-vel 6 color=gray;
#A saved 0 0 0.627907 0.302326 0 0;
#X obj 163 677 -seq-vel 6 color=bright-gray;
#A saved 0 0 0.395349 0.744186 0 0;
#X text 277 127 red bright-red;
#X text 277 190 orange bright-orange;
#X text 277 252 yellow bright-yellow;
#X text 277 316 lime bright-lime;
#X text 277 377 green bright-green;
#X text 276 439 cyan bright-cyan;
#X text 277 504 blue bright-blue;
#X text 276 628 pink bright-pink;
#X text 278 754 black navy;
#X text 274 690 gray bright-gray;
#X obj 51 47 -seq-vel 6;
#A saved 0 0 0.418605 0.581395 0 0;
#X text 277 63 white;
#X obj 51 551 -seq-vel 6 color=violet;
#A saved 0 0 0.372093 0.511628 0 0;
#X obj 163 551 -seq-vel 6 color=bright-violet;
#A saved 0 0 0.418605 0.232558 0 0;
#X text 277 567 violet bright-violet;
#X restore 229 284 pd colors;
#N canvas 484 94 938 820 transition_values 0;
#X obj 658 91 -seq-vel 3 color=920 height=4 receiver=\$0-tick;
#A saved 0 0 0;
#X obj 658 188 -seq-vel 4 color=920 height=4 receiver=\$0-tick;
#A saved 0 0 0 0;
#X obj 658 285 -seq-vel 5 color=920 height=4 receiver=\$0-tick;
#A saved 0 0 0 0 0;
#X obj 658 382 -seq-vel 6 color=920 height=4 receiver=\$0-tick;
#A saved 0 0 0 0 0 0;
#X obj 658 479 -seq-vel 7 color=920 height=4 receiver=\$0-tick;
#A saved 0 0 0 0 0 0 0;
#X obj 816 99 f;
#X obj 846 99 + 1;
#X obj 816 34 tgl 31 0 empty empty play 34 15 0 10 #c4fcc4 #000000
#000000 0 1;
#X obj 145 107 sel 0;
#X obj 145 151 f;
#X obj 175 151 + 1;
#X obj 575 683 unpack;
#X obj 614 706 t f b;
#X obj 703 731 / 10;
#X obj 574 34 r set_velocities;
#X obj 219 374 until;
#X obj 219 399 random 11;
#X obj 219 423 / 10;
#X obj 219 515 list store;
#X obj 219 539 s set_velocities;
#X obj 219 447 *;
#X msg 219 481 prepend \$1;
#X obj 163 401 f;
#X obj 182 288 t b b b f b;
#X obj 574 58 route 7 6 5 4 3;
#X obj 144 237 + 3;
#X obj 219 349 f;
#X obj 703 685 random 17;
#X obj 182 213 -seq-vel 13;
#A saved 0.0697674 0.651163 0.744186 0.232558 0.55814 0.767442 0.953488
1 0.930233 0.0697674 0 0.0232558 0.55814;
#X obj 144 213 % 5;
#X obj 370 389 line;
#X obj 370 287 route val dur;
#X obj 356 320 t f f;
#X obj 370 353 *;
#X msg 190 697 0 2 4 5 7 9 11 12;
#X obj 190 673 loadbang;
#X obj 575 202 pack;
#X obj 575 156 t b f;
#X msg 301 481 8000;
#X obj 145 131 bng 15 250 50 0 empty empty empty 17 7 0 10 #fcfcfc
#000000 #000000;
#X obj 575 299 pack;
#X obj 575 253 t b f;
#X obj 575 396 pack;
#X obj 575 350 t b f;
#X obj 575 493 pack;
#X obj 575 447 t b f;
#X obj 575 590 pack;
#X obj 575 544 t b f;
#X obj 145 175 t f f;
#X obj 158 764 v;
#X obj 144 588 t b f;
#X obj 370 657 + 100;
#X obj 370 633 * 20000;
#X obj 370 551 t f f;
#X obj 370 415 vsl 15 128 0 1 0 0 empty empty empty 0 -9 0 10 #fcfcfc
#000000 #000000 0 1;
#X obj 575 750 pack f f 90 6 0;
#X obj 445 657 + 60;
#X obj 445 633 * 120;
#X obj 575 706 + 32;
#X obj 88 679 random 15;
#X text 217 28 sequencer steps;
#X obj 703 709 - 8;
#X text 411 316 transition to next \; sequencer value;
#X text 26 212 cycle through \; sequencer \; length/routes;
#X text 29 613 set random note \; from scale for \; selected \; sequencer
;
#X text 206 561 set random velocities \; for each step of \; selected
sequencer;
#X text 381 595 manipulate lowpass \; and sustain+decay;
#X text 741 722 random pan \; for each note;
#X obj 145 83 % 24;
#N canvas 26 26 821 595 int_to_scale 0;
#X text 38 273 wrap values to available range;
#X obj 36 229 %;
#X obj 36 252 expr if($f1 < 0 \, $f1+$f2 \, $f1);
#X obj 36 31 inlet;
#X obj 318 31 inlet;
#X obj 251 556 outlet;
#X obj 251 412 list store;
#X msg 251 387 get \$1 1;
#X obj 384 145 list length;
#X obj 384 168 - 1;
#X obj 251 530 +;
#X msg 430 248 get \$1 1;
#X obj 430 271 list store;
#X obj 389 411 *;
#X obj 389 248 /;
#X obj 36 54 t f f;
#X obj 384 191 t f f f;
#X text 543 213 bang first to clear list \; before adding new scale
;
#X text 67 405 bang first to clear list \; before adding new scale
;
#X text 360 30 scale input | last note should be "octave";
#X obj 497 220 t l b;
#X obj 318 361 t l b;
#X obj 318 54 t l l l;
#X obj 211 210 t f f;
#X obj 389 327 expr if($f1 < 0 \, int($f1-0.9999) \, int($f1));
#X text 697 328 FIXME: ugly;
#X connect 1 0 2 0;
#X connect 2 0 7 0;
#X connect 3 0 15 0;
#X connect 4 0 22 0;
#X connect 6 0 10 0;
#X connect 7 0 6 0;
#X connect 8 0 9 0;
#X connect 9 0 16 0;
#X connect 10 0 5 0;
#X connect 11 0 12 0;
#X connect 12 0 13 1;
#X connect 13 0 10 1;
#X connect 14 0 24 0;
#X connect 15 0 1 0;
#X connect 15 1 14 0;
#X connect 16 0 23 0;
#X connect 16 1 14 1;
#X connect 16 2 11 0;
#X connect 20 0 12 1;
#X connect 20 1 12 1;
#X connect 21 0 6 1;
#X connect 21 1 6 1;
#X connect 22 0 21 0;
#X connect 22 1 8 0;
#X connect 22 2 20 0;
#X connect 23 0 1 1;
#X connect 23 1 2 1;
#X connect 24 0 13 0;
#X restore 88 722 pd int_to_scale;
#X text 202 725 int_to_scale translates any given int value \; to the
corresponding note of the set scale \; the last number (here "12")
is the "octave" \; - could be any other value \, too \, though.;
#X obj 815 186 loadbang;
#X obj 176 625 pack f \$0;
#X msg 176 649 symbol \$2-note-\$1;
#X obj 575 179 v \$0-note-3;
#X obj 575 276 v \$0-note-4;
#X obj 575 373 v \$0-note-5;
#X obj 575 470 v \$0-note-6;
#X obj 575 567 v \$0-note-7;
#X msg 815 210 reset;
#X obj 145 52 route float;
#X obj 816 73 metro 117;
#X text 206 151 increase value each 24th tick;
#X obj 575 774 s \$0-instrument;
#X obj 815 234 s \$0-tick;
#X obj 145 28 r \$0-tick;
#X obj 816 123 s \$0-tick;
#X obj 370 681 s \$0-lop;
#X obj 445 681 s \$0-decay;
#X obj 626 728 r \$0-decay;
#X connect 0 0 37 0;
#X connect 1 0 41 0;
#X connect 2 0 43 0;
#X connect 3 0 45 0;
#X connect 4 0 47 0;
#X connect 5 0 6 0;
#X connect 5 0 86 0;
#X connect 6 0 5 1;
#X connect 7 0 81 0;
#X connect 8 0 39 0;
#X connect 9 0 10 0;
#X connect 9 0 48 0;
#X connect 10 0 9 1;
#X connect 11 0 58 0;
#X connect 11 1 12 0;
#X connect 12 0 55 1;
#X connect 12 1 27 0;
#X connect 13 0 55 4;
#X connect 14 0 24 0;
#X connect 15 0 16 0;
#X connect 16 0 17 0;
#X connect 17 0 20 0;
#X connect 18 0 19 0;
#X connect 20 0 21 0;
#X connect 21 0 18 0;
#X connect 22 0 21 0;
#X connect 23 0 18 0;
#X connect 23 1 22 0;
#X connect 23 2 26 0;
#X connect 23 3 20 1;
#X connect 23 4 38 0;
#X connect 24 0 4 0;
#X connect 24 1 3 0;
#X connect 24 2 2 0;
#X connect 24 3 1 0;
#X connect 24 4 0 0;
#X connect 25 0 22 1;
#X connect 25 0 26 1;
#X connect 25 0 50 0;
#X connect 26 0 15 0;
#X connect 27 0 61 0;
#X connect 28 0 23 0;
#X connect 28 1 31 0;
#X connect 29 0 25 0;
#X connect 30 0 54 0;
#X connect 31 0 32 0;
#X connect 31 1 30 1;
#X connect 32 0 33 0;
#X connect 32 1 33 1;
#X connect 33 0 30 0;
#X connect 34 0 69 1;
#X connect 35 0 34 0;
#X connect 36 0 11 0;
#X connect 37 0 74 0;
#X connect 37 1 36 1;
#X connect 38 0 18 1;
#X connect 39 0 9 0;
#X connect 40 0 11 0;
#X connect 41 0 75 0;
#X connect 41 1 40 1;
#X connect 42 0 11 0;
#X connect 43 0 76 0;
#X connect 43 1 42 1;
#X connect 44 0 11 0;
#X connect 45 0 77 0;
#X connect 45 1 44 1;
#X connect 46 0 11 0;
#X connect 47 0 78 0;
#X connect 47 1 46 1;
#X connect 48 0 28 0;
#X connect 48 1 29 0;
#X connect 50 0 59 0;
#X connect 50 1 72 0;
#X connect 51 0 87 0;
#X connect 52 0 51 0;
#X connect 53 0 52 0;
#X connect 53 1 57 0;
#X connect 54 0 53 0;
#X connect 55 0 83 0;
#X connect 56 0 88 0;
#X connect 57 0 56 0;
#X connect 58 0 55 0;
#X connect 59 0 69 0;
#X connect 61 0 13 0;
#X connect 68 0 8 0;
#X connect 69 0 49 0;
#X connect 71 0 79 0;
#X connect 72 0 73 0;
#X connect 73 0 49 1;
#X connect 74 0 36 0;
#X connect 75 0 40 0;
#X connect 76 0 42 0;
#X connect 77 0 44 0;
#X connect 78 0 46 0;
#X connect 79 0 84 0;
#X connect 80 0 68 0;
#X connect 81 0 5 0;
#X connect 85 0 80 0;
#X connect 89 0 55 2;
#X restore 1178 135 pd transition_values;
#N canvas 440 113 1112 806 stumble_mode 0;
#X obj 211 26 tgl 31 0 empty empty play 34 15 0 10 #c4fcc4 #000000
#000000 0 1;
#X obj 172 204 -seq-vel 8;
#A saved 1 1 1 1 1 1 1 1;
#X obj 172 596 vline~;
#X obj 168 749 dac~;
#X obj 38 616 *~;
#X obj 178 179 r \$0-rhythm;
#X obj 732 570 s \$0-rhythm;
#X obj 442 204 -seq-vel 8;
#A saved 0.5 0.5 1 0.5 1 0.5 1 1;
#X obj 444 597 vline~;
#X obj 306 616 *~;
#X obj 305 561 vcf~ 80;
#X obj 169 657 rev3~ 100 92 20 100;
#X obj 844 570 s \$0-rhythm2;
#X obj 448 179 r \$0-rhythm2;
#X obj 172 83 spigot;
#X msg 732 193 1 1 1 1 1 1 1 1 3000 inout-expo;
#X msg 715 223 0.5 0.5 1 0.5 1 0.5 1 1 3000 inout;
#X msg 699 253 0.5 0.5 1 1 1 0.5 0.5 1 3000 inout;
#X msg 682 283 1 1 1 1 0 0 0 0 3000 inout;
#X msg 666 313 1 0 1 0 1 0 1 0 3000 inout;
#X msg 649 344 0.8 0.7 0.6 0.5 0.4 0.3 0.2 0.1 3000 inout;
#X msg 633 373 1 0.5 0.25 0.125 0.0625 0.03125 0.015625 0.0078125 3000
inout, f 62;
#X obj 442 273 -seq-vel 8 color=983;
#A saved 1 0.790698 0.488372 0.325581 0.325581 0.465116 0.674419 0.860465
;
#X obj 172 274 -seq-vel 8 color=983;
#A saved 1 0.116279 0.27907 1 0.395349 0.162791 0.302326 0.697674;
#N canvas 1103 486 450 447 route 0;
#X obj 54 47 inlet;
#X obj 325 47 inlet;
#X obj 54 215 route 0 1;
#X obj 54 289 outlet;
#X obj 323 289 outlet;
#X obj 54 134 f;
#X obj 54 71 t b a;
#X obj 54 158 list append;
#X connect 0 0 6 0;
#X connect 1 0 5 1;
#X connect 2 0 3 0;
#X connect 2 1 4 0;
#X connect 5 0 7 0;
#X connect 6 0 5 0;
#X connect 6 1 7 1;
#X connect 7 0 2 0;
#X restore 732 492 pd route;
#X obj 732 425 t a b;
#X obj 172 126 \$0;
#X obj 172 57 bng 15 250 50 0 empty empty empty 17 7 0 10 #fcfcfc #000000
#000000;
#X msg 172 147 stumble 1200 \$1-start-cycle;
#X msg 442 147 stumble 1200;
#X obj 633 81 random 8;
#X obj 633 105 sel 0 1 2 3 4 5 6;
#X obj 785 465 tgl 15 0 empty empty empty 17 7 0 10 #fcfcfc #000000
#000000 0 1;
#X obj 633 57 metro 6000;
#X obj 442 343 -seq-vel 8 color=689 grid=5;
#A saved 0.604651 1 0.976744 0.511628 0.27907 0.0697674 0.325581 0.72093
;
#N canvas 208 208 607 588 int_to_scale 0;
#X obj 26 20 inlet;
#X obj 216 20 inlet;
#X obj 59 529 outlet;
#X obj 100 358 list store;
#X msg 26 224 get \$1 1;
#X obj 126 99 list length;
#X obj 26 203 %;
#X obj 126 124 - 1;
#X obj 100 496 +;
#X msg 241 195 get \$1 1;
#X obj 241 216 list store;
#X obj 130 226 i;
#X obj 226 404 *;
#X obj 130 206 /;
#X obj 26 45 t f f;
#X obj 126 150 t f f f;
#X text 313 203 bang first to clear list \; before adding new scale
;
#X text 179 354 bang first to clear list \; before adding new scale
;
#X text 258 20 scale input | last note should be "octave";
#X obj 298 166 t l b;
#X obj 157 321 t l b;
#X obj 216 45 t l l l;
#X connect 0 0 14 0;
#X connect 1 0 21 0;
#X connect 3 0 8 0;
#X connect 4 0 3 0;
#X connect 5 0 7 0;
#X connect 6 0 4 0;
#X connect 7 0 15 0;
#X connect 8 0 2 0;
#X connect 9 0 10 0;
#X connect 10 0 12 1;
#X connect 11 0 12 0;
#X connect 12 0 8 1;
#X connect 13 0 11 0;
#X connect 14 0 6 0;
#X connect 14 1 13 0;
#X connect 15 0 6 1;
#X connect 15 1 13 1;
#X connect 15 2 9 0;
#X connect 19 0 10 1;
#X connect 19 1 10 1;
#X connect 20 0 3 1;
#X connect 20 1 3 1;
#X connect 21 0 5 0;
#X connect 21 1 20 0;
#X connect 21 2 19 0;
#X restore 306 469 pd int_to_scale;
#X obj 408 422 loadbang;
#X obj 306 523 mtof;
#N canvas 0 50 607 588 int_to_scale 0;
#X obj 26 20 inlet;
#X obj 216 20 inlet;
#X obj 59 529 outlet;
#X obj 100 358 list store;
#X msg 26 224 get \$1 1;
#X obj 126 99 list length;
#X obj 26 203 %;
#X obj 126 124 - 1;
#X obj 100 496 +;
#X msg 241 195 get \$1 1;
#X obj 241 216 list store;
#X obj 130 226 i;
#X obj 226 404 *;
#X obj 130 206 /;
#X obj 26 45 t f f;
#X obj 126 150 t f f f;
#X text 313 203 bang first to clear list \; before adding new scale
;
#X text 179 354 bang first to clear list \; before adding new scale
;
#X text 258 20 scale input | last note should be "octave";
#X obj 298 166 t l b;
#X obj 157 321 t l b;
#X obj 216 45 t l l l;
#X connect 0 0 14 0;
#X connect 1 0 21 0;
#X connect 3 0 8 0;
#X connect 4 0 3 0;
#X connect 5 0 7 0;
#X connect 6 0 4 0;
#X connect 7 0 15 0;
#X connect 8 0 2 0;
#X connect 9 0 10 0;
#X connect 10 0 12 1;
#X connect 11 0 12 0;
#X connect 12 0 8 1;
#X connect 13 0 11 0;
#X connect 14 0 6 0;
#X connect 14 1 13 0;
#X connect 15 0 6 1;
#X connect 15 1 13 1;
#X connect 15 2 9 0;
#X connect 19 0 10 1;
#X connect 19 1 10 1;
#X connect 20 0 3 1;
#X connect 20 1 3 1;
#X connect 21 0 5 0;
#X connect 21 1 20 0;
#X connect 21 2 19 0;
#X restore 37 469 pd int_to_scale;
#X obj 139 422 loadbang;
#X obj 37 523 mtof;
#X obj 172 346 -seq-vel 8 color=689 grid=5;
#A saved 0.0697674 0.27907 0.55814 0 1 0.744186 0.883721 0.186047;
#X obj 212 513 noise~;
#X text 341 221 rhythm;
#X text 334 290 velocity;
#X text 343 361 melody;
#X msg 443 572 \$1 1 \, 0 50 1;
#X obj 369 560 osc~;
#X obj 169 706 *~ 1;
#X obj 38 585 *~ 3;
#X obj 306 585 *~ 0.6;
#X msg 171 572 \$1 40 \, 0 10 40;
#X obj 37 561 vcf~ 140;
#X obj 369 584 *~ 0.15;
#X obj 37 493 + 80;
#X obj 306 493 + 68;
#X obj 40 38 r \$0-start-cycle;
#X msg 139 445 0 2 3 7 10 12;
#X msg 408 445 0 3 5 9 12;
#X connect 0 0 14 1;
#X connect 0 0 27 0;
#X connect 0 0 33 0;
#X connect 1 1 23 1;
#X connect 2 0 4 1;
#X connect 4 0 11 0;
#X connect 4 0 48 0;
#X connect 5 0 1 0;
#X connect 7 1 22 1;
#X connect 8 0 9 1;
#X connect 9 0 11 0;
#X connect 9 0 48 0;
#X connect 10 0 50 0;
#X connect 11 0 48 0;
#X connect 13 0 7 0;
#X connect 14 0 29 0;
#X connect 14 0 26 0;
#X connect 15 0 25 0;
#X connect 16 0 25 0;
#X connect 17 0 25 0;
#X connect 18 0 25 0;
#X connect 19 0 25 0;
#X connect 20 0 25 0;
#X connect 21 0 25 0;
#X connect 22 0 46 0;
#X connect 22 1 34 1;
#X connect 23 0 51 0;
#X connect 23 1 41 1;
#X connect 24 0 6 0;
#X connect 24 1 12 0;
#X connect 25 0 24 0;
#X connect 25 1 32 0;
#X connect 26 0 28 0;
#X connect 27 0 14 0;
#X connect 28 0 1 0;
#X connect 29 0 7 0;
#X connect 30 0 31 0;
#X connect 31 0 21 0;
#X connect 31 1 20 0;
#X connect 31 2 19 0;
#X connect 31 3 18 0;
#X connect 31 4 17 0;
#X connect 31 5 16 0;
#X connect 31 6 15 0;
#X connect 32 0 24 1;
#X connect 33 0 30 0;
#X connect 34 0 35 0;
#X connect 35 0 55 0;
#X connect 36 0 58 0;
#X connect 37 0 10 1;
#X connect 37 0 47 0;
#X connect 38 0 54 0;
#X connect 39 0 57 0;
#X connect 40 0 52 1;
#X connect 41 0 38 0;
#X connect 42 0 10 0;
#X connect 42 0 52 0;
#X connect 46 0 8 0;
#X connect 47 0 53 0;
#X connect 48 0 3 0;
#X connect 48 0 3 1;
#X connect 49 0 4 0;
#X connect 50 0 9 0;
#X connect 51 0 2 0;
#X connect 52 0 49 0;
#X connect 53 0 9 0;
#X connect 54 0 40 0;
#X connect 55 0 37 0;
#X connect 56 0 27 0;
#X connect 57 0 38 1;
#X connect 58 0 35 1;
#X restore 1178 185 pd stumble_mode;
#N canvas 509 162 871 721 run_mode 0;
#X obj 65 231 -seq-vel 4 color=259;
#A saved 0.3 0.4 0.5 0.6;
#X obj 65 143 \$0;
#X obj 65 38 r \$0-stumble-again;
#X obj 210 128 bng 15 250 50 0 empty empty empty 17 7 0 10 #fcfcfc
#000000 #000000;
#X floatatom 118 330 5 0 0 0 - - - 0;
#X obj 118 306 route dur pos;
#X floatatom 162 330 5 0 0 0 - - - 0;
#X obj 162 354 route 0 1 2 3;
#X obj 67 441 / 3;
#X obj 138 441 / 4;
#X obj 224 441 / 5;
#X obj 325 441 / 6;
#X obj 49 465 f;
#X obj 118 401 t f f f f;
#X obj 120 465 f;
#X obj 206 465 f;
#X obj 307 465 f;
#X msg 49 526 run \$1;
#X msg 120 526 run \$1;
#X msg 206 526 run \$1;
#X msg 307 526 run \$1;
#X obj 65 115 spigot;
#X obj 210 84 tgl 31 0 empty empty play 34 15 0 10 #c4fcc4 #000000
#000000 0 1;
#X obj 49 554 -seq-vel 3 color=692 sender=\$0-hit;
#A saved 1 0.883721 0.767442;
#X obj 206 554 -seq-vel 5 color=692 sender=\$0-hit;
#A saved 1 0.837209 0.744186 0.930233 0.534884;
#X obj 120 554 -seq-vel 4 color=692 sender=\$0-hit;
#A saved 1 0.883721 0.767442 0.674419;
#X obj 307 554 -seq-vel 6 color=692 sender=\$0-hit;
#A saved 1 0.906977 0.813953 0.906977 0.651163 0.581395;
#X obj 625 38 r \$0-hit;
#X obj 625 61 route val;
#X obj 65 64 t b b;
#X obj 97 88 s \$0-count;
#X obj 330 38 r \$0-count;
#X obj 330 61 f;
#X obj 360 61 + 1;
#X obj 430 38 sel 0;
#X msg 330 212 0.3 0.4 0.5 0.6 0;
#X obj 625 380 s \$0-instrument;
#X obj 625 315 pack f f;
#X obj 330 133 sel 0 1;
#X obj 430 61 f;
#X obj 460 61 + 1;
#X obj 430 84 % 3;
#X obj 330 84 % 2;
#X obj 87 610 route pos;
#X obj 365 653 s \$0-bass;
#X obj 509 291 r \$0-bass;
#X obj 274 610 route pos;
#X obj 365 629 sel 0;
#X obj 625 125 pow 3;
#X msg 65 167 stumble 2600 \$1-stumble-again;
#X obj 625 149 t f b b;
#X obj 678 291 +;
#X obj 747 222 sel 0;
#X obj 747 198 random 4;
#X msg 747 245 0;
#X msg 779 245 3;
#X obj 678 222 * 12;
#X msg 625 356 \$2 \$1 48 12;
#X msg 353 185 0 0.4 1 0.3 0;
#X msg 376 158 0.3 0.8 0.25 0.9 0;
#X obj 678 245 + 35;
#X obj 678 198 random 4;
#X msg 509 315 31 0.7 480 2;
#X connect 0 1 5 0;
#X connect 1 0 49 0;
#X connect 2 0 29 0;
#X connect 3 0 1 0;
#X connect 4 0 13 0;
#X connect 5 0 4 0;
#X connect 5 1 6 0;
#X connect 6 0 7 0;
#X connect 7 0 12 0;
#X connect 7 1 14 0;
#X connect 7 2 15 0;
#X connect 7 3 16 0;
#X connect 8 0 12 1;
#X connect 9 0 14 1;
#X connect 10 0 15 1;
#X connect 11 0 16 1;
#X connect 12 0 17 0;
#X connect 13 0 8 0;
#X connect 13 1 9 0;
#X connect 13 2 10 0;
#X connect 13 3 11 0;
#X connect 14 0 18 0;
#X connect 15 0 19 0;
#X connect 16 0 20 0;
#X connect 17 0 23 0;
#X connect 18 0 25 0;
#X connect 19 0 24 0;
#X connect 20 0 26 0;
#X connect 21 0 1 0;
#X connect 22 0 21 1;
#X connect 22 0 3 0;
#X connect 23 1 43 0;
#X connect 24 1 46 0;
#X connect 27 0 28 0;
#X connect 28 0 48 0;
#X connect 29 0 21 0;
#X connect 29 1 30 0;
#X connect 31 0 32 0;
#X connect 32 0 33 0;
#X connect 32 0 42 0;
#X connect 33 0 32 1;
#X connect 34 0 39 0;
#X connect 35 0 0 0;
#X connect 37 0 57 0;
#X connect 38 0 35 0;
#X connect 38 1 58 0;
#X connect 38 2 59 0;
#X connect 39 0 40 0;
#X connect 39 0 41 0;
#X connect 40 0 39 1;
#X connect 41 0 38 0;
#X connect 42 0 34 0;
#X connect 43 0 47 0;
#X connect 45 0 62 0;
#X connect 46 0 47 0;
#X connect 47 0 44 0;
#X connect 48 0 50 0;
#X connect 49 0 0 0;
#X connect 50 0 37 0;
#X connect 50 1 61 0;
#X connect 50 2 53 0;
#X connect 51 0 37 1;
#X connect 52 0 54 0;
#X connect 52 1 55 0;
#X connect 53 0 52 0;
#X connect 54 0 51 1;
#X connect 55 0 51 1;
#X connect 56 0 60 0;
#X connect 57 0 36 0;
#X connect 58 0 0 0;
#X connect 59 0 0 0;
#X connect 60 0 51 0;
#X connect 61 0 56 0;
#X connect 62 0 36 0;
#X restore 1178 160 pd run_mode;
#N canvas 428 209 955 633 markov 0;
#X msg 46 126 random;
#X obj 46 230 -seq-vel 7 color=905 height=4;
#A saved 1 0.20339 0 0 0 0 0;
#X obj 171 230 -seq-vel 7 color=905 height=4;
#A saved 0.372881 0 0.813559 0 0 0 0;
#X obj 296 230 -seq-vel 7 color=905 height=4;
#A saved 0.305085 0 0.915254 0.423729 0 0 0;
#X obj 421 230 -seq-vel 7 color=905 height=4;
#A saved 0.322034 0 0 0 0.898305 0 0;
#X obj 546 230 -seq-vel 7 color=905 height=4;
#A saved 0.355932 0 0 0 0.881356 0.322034 0;
#X obj 671 230 -seq-vel 7 color=905 height=4;
#A saved 0.355932 0 0 0 0 0 0.847458;
#X obj 796 230 -seq-vel 7 color=905 height=4;
#A saved 0.0508475 0 0 0 0 0 1;
#N canvas 1338 173 419 391 play 0;
#X obj 80 43 inlet;
#X obj 80 169 t f f;
#X obj 80 297 outlet;
#X obj 181 297 outlet;
#X obj 80 113 route pos;
#X msg 80 241 \$1 random;
#X obj 80 193 pipe 123;
#X connect 0 0 4 0;
#X connect 1 0 6 0;
#X connect 4 0 1 0;
#X connect 4 0 3 0;
#X connect 5 0 2 0;
#X connect 6 0 5 0;
#X restore 410 373 pd play;
#X obj 46 300 bng 15 250 50 0 empty empty empty 17 7 0 10 #fcfcfc #000000
#000000;
#X obj 171 300 bng 15 250 50 0 empty empty empty 17 7 0 10 #fcfcfc
#000000 #000000;
#X obj 296 300 bng 15 250 50 0 empty empty empty 17 7 0 10 #fcfcfc
#000000 #000000;
#X obj 421 300 bng 15 250 50 0 empty empty empty 17 7 0 10 #fcfcfc
#000000 #000000;
#X obj 546 300 bng 15 250 50 0 empty empty empty 17 7 0 10 #fcfcfc
#000000 #000000;
#X obj 671 300 bng 15 250 50 0 empty empty empty 17 7 0 10 #fcfcfc
#000000 #000000;
#X obj 796 300 bng 15 250 50 0 empty empty empty 17 7 0 10 #fcfcfc
#000000 #000000;
#X obj 583 457 -seq-vel 8 color=69;
#A saved 1 0.581395 0.395349 0.813953 0.465116 0.348837 0.697674 0.302326
;
#X obj 696 510 route val;
#X obj 568 405 loadbang;
#X obj 466 483 + 37;
#X obj 456 404 t f f f b;
#X obj 439 430 + 2;
#X obj 409 430 + 4;
#X obj 466 548 pack f f 140 10;
#X obj 320 155 route 0 1 2 3 4 5 6;
#X msg 568 428 0 2 3 5 7 9 10 24;
#X obj 466 572 s \$0-instrument;
#X obj 449 95 tgl 31 0 empty empty play 34 15 0 10 #c4fcc4 #000000
#000000 0 1;
#X obj 410 131 spigot;
#N canvas 234 234 821 612 int_to_scale 0;
#X text 38 273 wrap values to available range;
#X obj 36 229 %;
#X obj 36 252 expr if($f1 < 0 \, $f1+$f2 \, $f1);
#X obj 36 31 inlet;
#X obj 318 31 inlet;
#X obj 251 556 outlet;
#X obj 251 412 list store;
#X msg 251 387 get \$1 1;
#X obj 384 145 list length;
#X obj 384 168 - 1;
#X obj 251 530 +;
#X msg 430 248 get \$1 1;
#X obj 430 271 list store;
#X obj 389 411 *;
#X obj 389 248 /;
#X obj 36 54 t f f;
#X obj 384 191 t f f f;
#X text 543 213 bang first to clear list \; before adding new scale
;
#X text 67 405 bang first to clear list \; before adding new scale
;
#X text 360 30 scale input | last note should be "octave";
#X obj 497 220 t l b;
#X obj 318 361 t l b;
#X obj 318 54 t l l l;
#X obj 211 210 t f f;
#X obj 389 327 expr if($f1 < 0 \, int($f1-0.9999) \, int($f1));
#X text 697 328 FIXME: ugly;
#X connect 1 0 2 0;
#X connect 2 0 7 0;
#X connect 3 0 15 0;
#X connect 4 0 22 0;
#X connect 6 0 10 0;
#X connect 7 0 6 0;
#X connect 8 0 9 0;
#X connect 9 0 16 0;
#X connect 10 0 5 0;
#X connect 11 0 12 0;
#X connect 12 0 13 1;
#X connect 13 0 10 1;
#X connect 14 0 24 0;
#X connect 15 0 1 0;
#X connect 15 1 14 0;
#X connect 16 0 23 0;
#X connect 16 1 14 1;
#X connect 16 2 11 0;
#X connect 20 0 12 1;
#X connect 20 1 12 1;
#X connect 21 0 6 1;
#X connect 21 1 6 1;
#X connect 22 0 21 0;
#X connect 22 1 8 0;
#X connect 22 2 20 0;
#X connect 23 0 1 1;
#X connect 23 1 2 1;
#X connect 24 0 13 0;
#X restore 466 459 pd int_to_scale;
#X text 497 24 This is a simple representation of a markov chain creating
melodies with 7 states \, where each state is triggering a certain
chord and has specified probabilities to reach any other state/chord.
;
#X text 264 431 add third and fifth;
#X text 49 208 ▼;
#X text 189 208 ▼;
#X text 327 208 ▼;
#X text 468 208 ▼;
#X text 608 208 ▼;
#X text 747 208 ▼;
#X text 888 208 ▼;
#X connect 0 0 1 0;
#X connect 1 0 9 0;
#X connect 1 1 8 0;
#X connect 2 0 10 0;
#X connect 2 1 8 0;
#X connect 3 0 11 0;
#X connect 3 1 8 0;
#X connect 4 0 12 0;
#X connect 4 1 8 0;
#X connect 5 0 13 0;
#X connect 5 1 8 0;
#X connect 6 0 14 0;
#X connect 6 1 8 0;
#X connect 7 0 15 0;
#X connect 7 1 8 0;
#X connect 8 0 28 0;
#X connect 8 1 20 0;
#X connect 16 1 17 0;
#X connect 17 0 23 1;
#X connect 18 0 25 0;
#X connect 19 0 23 0;
#X connect 20 0 22 0;
#X connect 20 1 21 0;
#X connect 20 2 29 0;
#X connect 20 3 16 0;
#X connect 21 0 29 0;
#X connect 22 0 29 0;
#X connect 23 0 26 0;
#X connect 24 0 1 0;
#X connect 24 1 2 0;
#X connect 24 2 3 0;
#X connect 24 3 4 0;
#X connect 24 4 5 0;
#X connect 24 5 6 0;
#X connect 24 6 7 0;
#X connect 25 0 29 1;
#X connect 27 0 28 1;
#X connect 27 0 0 0;
#X connect 28 0 24 0;
#X connect 29 0 19 0;
#X restore 1178 209 pd markov;
#N canvas 344 123 682 575 instrument 0;
#X text 347 340 play every incoming midi note in new voice;
#X msg 91 164 1;
#X msg 165 164 100;
#X msg 249 164 10;
#X obj 34 58 t a b b b b;
#X text 40 137 note;
#X text 92 137 vel;
#X text 245 137 attack;
#X text 161 137 decay;
#X text 334 137 pan;
#X msg 34 314 next \$1 \$2 \$3 \$4 \$5;
#X obj 34 254 pack 32 1 100 10 0;
#X msg 333 165 0;
#X obj 35 467 lop~;
#X obj 331 467 lop~;
#X obj 52 403 rev3~ 100 92 100 100;
#X obj 349 403 rev3~ 100 92 100 100;
#X obj 34 34 r \$0-instrument;
#X obj 35 517 dac~;
#X obj 34 340 clone 16 -seq-vel-help-demo-instrument-play;
#X obj 364 448 r \$0-lop;
#X connect 1 0 11 1;
#X connect 2 0 11 2;
#X connect 3 0 11 3;
#X connect 4 0 11 0;
#X connect 4 1 1 0;
#X connect 4 2 2 0;
#X connect 4 3 3 0;
#X connect 4 4 12 0;
#X connect 10 0 19 0;
#X connect 11 0 10 0;
#X connect 12 0 11 4;
#X connect 13 0 18 0;
#X connect 14 0 18 1;
#X connect 15 0 13 0;
#X connect 16 0 14 0;
#X connect 17 0 4 0;
#X connect 19 0 13 0;
#X connect 19 0 15 0;
#X connect 19 1 14 0;
#X connect 19 1 16 0;
#X connect 20 0 13 1;
#X connect 20 0 14 1;
#X restore 1178 284 pd instrument;
#X connect 1 0 98 0;
#X connect 2 0 98 0;
#X connect 26 0 27 0;
#X connect 37 0 40 0;
#X connect 38 0 40 0;
#X connect 42 0 28 0;
#X connect 47 0 43 0;
#X connect 48 0 43 0;
#X connect 50 0 98 1;
#X connect 54 0 51 0;
#X connect 55 0 51 0;
#X connect 62 0 59 0;
#X connect 64 0 63 0;
#X connect 65 0 59 0;
#X connect 71 0 68 0;
#X connect 75 0 68 0;
#X connect 76 0 98 0;
#X connect 77 0 56 0;
#X connect 79 0 56 0;
#X connect 84 0 82 0;
#X connect 97 0 57 0;
#X connect 98 1 97 1;
#X connect 99 1 94 0;
