#N canvas 30 11 1872 1001 12;
#X obj 99 20 inlet;
#X obj 1226 45 namecanvas \$0-this-canvas;
#X obj 320 497 savestate;
#N canvas 526 332 927 266 \$0-interface 0;
#X coords 0 -1 1 1 120 49 2 100 100;
#X restore 100 100 pd \$0-interface;
#X text 397 496 save state;
#X text 249 541 load state;
#X obj 103 622 until;
#X obj 103 645 f;
#X obj 132 645 + 1;
#X msg 256 721 get \$1 1;
#X obj 256 745 list store;
#X obj 103 847 f;
#X obj 103 721 \$0;
#X obj 103 744 pack;
#X obj 103 807 t b l;
#X obj 103 870 s;
#X obj 253 593 list store;
#X obj 103 560 list length;
#X obj 103 599 t f b;
#X msg 147 622 0;
#X obj 621 935 outlet;
#X msg 135 847 symbol \$1-\$2-vsl-receiver;
#X obj 621 497 r \$0-radio-sender;
#X obj 1226 70 array define \$0-seq;
#X text 915 602 output position;
#X obj 103 683 t b f f;
#X text 265 769 get value;
#X obj 103 497 r \$0-set-seq;
#X obj 253 617 s \$0-set-seq;
#X obj 253 568 r \$0-init-done;
#X obj 621 777 spigot;
#X obj 660 753 > 0;
#X obj 621 687 t f f f;
#X msg 918 624 pos \$1;
#X msg 785 788 val \$1;
#X text 109 769 set slider address;
#N canvas 101 13 1191 987 calculate_color 0;
#X obj 68 47 r \$0-input-color;
#X obj 108 891 s \$0-color-bg;
#X obj 360 891 s \$0-color-bg-dark;
#X obj 897 891 s \$0-color-fg-dark;
#X obj 68 166 list fromsymbol;
#X obj 68 190 list split 1;
#X obj 233 275 list tosymbol;
#X obj 233 305 sel a b c d e f;
#X msg 233 349 10, f 2;
#X msg 257 349 11, f 2;
#X msg 281 349 12, f 2;
#X msg 306 349 13, f 2;
#X msg 331 349 14, f 2;
#X msg 356 349 15, f 2;
#X obj 233 393 f;
#X msg 108 240 6, f 1;
#X obj 108 291 until;
#X obj 108 315 f;
#X obj 108 267 t f f;
#X obj 137 315 - 1;
#X obj 151 291 - 1;
#X obj 108 213 t b l;
#X obj 140 393 list store;
#X obj 108 345 t f f;
#X msg 140 369 get \$1;
#X obj 108 425 pack f f;
#X obj 108 485 route 0 1 2 3 4 5;
#X obj 185 526 * 16;
#X obj 185 550 +;
#X obj 146 526 * 16;
#X obj 146 550 +;
#X obj 108 526 * 16;
#X obj 108 550 +;
#N canvas 505 226 815 510 rgb2hex 0;
#X obj 54 265 vsl.seq-helper-byte2hex;
#X obj 106 293 vsl.seq-helper-byte2hex;
#X obj 279 265 vsl.seq-helper-byte2hex;
#X obj 329 293 vsl.seq-helper-byte2hex;
#X obj 503 265 vsl.seq-helper-byte2hex;
#X obj 556 293 vsl.seq-helper-byte2hex;
#X obj 54 173 div 16;
#X obj 106 201 mod 16;
#X obj 279 166 div 16;
#X obj 329 194 mod 16;
#X obj 503 160 div 16;
#X obj 556 188 mod 16;
#X obj 54 57 inlet;
#X obj 279 57 inlet;
#X obj 503 57 inlet;
#X obj 54 81 t f f;
#X obj 279 81 t f f;
#X obj 503 81 t f f;
#X obj 54 365 pack s s s s s s;
#X msg 54 389 symbol #\$1\$2\$3\$4\$5\$6;
#X obj 54 453 outlet;
#X connect 0 0 18 0;
#X connect 1 0 18 1;
#X connect 2 0 18 2;
#X connect 3 0 18 3;
#X connect 4 0 18 4;
#X connect 5 0 18 5;
#X connect 6 0 0 0;
#X connect 7 0 1 0;
#X connect 8 0 2 0;
#X connect 9 0 3 0;
#X connect 10 0 4 0;
#X connect 11 0 5 0;
#X connect 12 0 15 0;
#X connect 13 0 16 0;
#X connect 14 0 17 0;
#X connect 15 0 6 0;
#X connect 15 1 7 0;
#X connect 16 0 8 0;
#X connect 16 1 9 0;
#X connect 17 0 10 0;
#X connect 17 1 11 0;
#X connect 18 0 19 0;
#X connect 19 0 20 0;
#X restore 108 785 pd rgb2hex;
#N canvas 505 226 815 510 rgb2hex 0;
#X obj 54 265 vsl.seq-helper-byte2hex;
#X obj 106 293 vsl.seq-helper-byte2hex;
#X obj 279 265 vsl.seq-helper-byte2hex;
#X obj 329 293 vsl.seq-helper-byte2hex;
#X obj 503 265 vsl.seq-helper-byte2hex;
#X obj 556 293 vsl.seq-helper-byte2hex;
#X obj 54 173 div 16;
#X obj 106 201 mod 16;
#X obj 279 166 div 16;
#X obj 329 194 mod 16;
#X obj 503 160 div 16;
#X obj 556 188 mod 16;
#X obj 54 57 inlet;
#X obj 279 57 inlet;
#X obj 503 57 inlet;
#X obj 54 81 t f f;
#X obj 279 81 t f f;
#X obj 503 81 t f f;
#X obj 54 365 pack s s s s s s;
#X msg 54 389 symbol #\$1\$2\$3\$4\$5\$6;
#X obj 54 453 outlet;
#X connect 0 0 18 0;
#X connect 1 0 18 1;
#X connect 2 0 18 2;
#X connect 3 0 18 3;
#X connect 4 0 18 4;
#X connect 5 0 18 5;
#X connect 6 0 0 0;
#X connect 7 0 1 0;
#X connect 8 0 2 0;
#X connect 9 0 3 0;
#X connect 10 0 4 0;
#X connect 11 0 5 0;
#X connect 12 0 15 0;
#X connect 13 0 16 0;
#X connect 14 0 17 0;
#X connect 15 0 6 0;
#X connect 15 1 7 0;
#X connect 16 0 8 0;
#X connect 16 1 9 0;
#X connect 17 0 10 0;
#X connect 17 1 11 0;
#X connect 18 0 19 0;
#X connect 19 0 20 0;
#X restore 360 785 pd rgb2hex;
#X obj 360 749 * 0.9;
#X obj 410 749 * 0.9;
#X obj 460 749 * 0.9;
#N canvas 505 226 815 510 rgb2hex 0;
#X obj 54 265 vsl.seq-helper-byte2hex;
#X obj 106 293 vsl.seq-helper-byte2hex;
#X obj 279 265 vsl.seq-helper-byte2hex;
#X obj 329 293 vsl.seq-helper-byte2hex;
#X obj 503 265 vsl.seq-helper-byte2hex;
#X obj 556 293 vsl.seq-helper-byte2hex;
#X obj 54 173 div 16;
#X obj 106 201 mod 16;
#X obj 279 166 div 16;
#X obj 329 194 mod 16;
#X obj 503 160 div 16;
#X obj 556 188 mod 16;
#X obj 54 57 inlet;
#X obj 279 57 inlet;
#X obj 503 57 inlet;
#X obj 54 81 t f f;
#X obj 279 81 t f f;
#X obj 503 81 t f f;
#X obj 54 365 pack s s s s s s;
#X msg 54 389 symbol #\$1\$2\$3\$4\$5\$6;
#X obj 54 453 outlet;
#X connect 0 0 18 0;
#X connect 1 0 18 1;
#X connect 2 0 18 2;
#X connect 3 0 18 3;
#X connect 4 0 18 4;
#X connect 5 0 18 5;
#X connect 6 0 0 0;
#X connect 7 0 1 0;
#X connect 8 0 2 0;
#X connect 9 0 3 0;
#X connect 10 0 4 0;
#X connect 11 0 5 0;
#X connect 12 0 15 0;
#X connect 13 0 16 0;
#X connect 14 0 17 0;
#X connect 15 0 6 0;
#X connect 15 1 7 0;
#X connect 16 0 8 0;
#X connect 16 1 9 0;
#X connect 17 0 10 0;
#X connect 17 1 11 0;
#X connect 18 0 19 0;
#X connect 19 0 20 0;
#X restore 637 785 pd rgb2hex;
#N canvas 505 226 815 510 rgb2hex 0;
#X obj 54 265 vsl.seq-helper-byte2hex;
#X obj 106 293 vsl.seq-helper-byte2hex;
#X obj 279 265 vsl.seq-helper-byte2hex;
#X obj 329 293 vsl.seq-helper-byte2hex;
#X obj 503 265 vsl.seq-helper-byte2hex;
#X obj 556 293 vsl.seq-helper-byte2hex;
#X obj 54 173 div 16;
#X obj 106 201 mod 16;
#X obj 279 166 div 16;
#X obj 329 194 mod 16;
#X obj 503 160 div 16;
#X obj 556 188 mod 16;
#X obj 54 57 inlet;
#X obj 279 57 inlet;
#X obj 503 57 inlet;
#X obj 54 81 t f f;
#X obj 279 81 t f f;
#X obj 503 81 t f f;
#X obj 54 365 pack s s s s s s;
#X msg 54 389 symbol #\$1\$2\$3\$4\$5\$6;
#X obj 54 453 outlet;
#X connect 0 0 18 0;
#X connect 1 0 18 1;
#X connect 2 0 18 2;
#X connect 3 0 18 3;
#X connect 4 0 18 4;
#X connect 5 0 18 5;
#X connect 6 0 0 0;
#X connect 7 0 1 0;
#X connect 8 0 2 0;
#X connect 9 0 3 0;
#X connect 10 0 4 0;
#X connect 11 0 5 0;
#X connect 12 0 15 0;
#X connect 13 0 16 0;
#X connect 14 0 17 0;
#X connect 15 0 6 0;
#X connect 15 1 7 0;
#X connect 16 0 8 0;
#X connect 16 1 9 0;
#X connect 17 0 10 0;
#X connect 17 1 11 0;
#X connect 18 0 19 0;
#X connect 19 0 20 0;
#X restore 897 785 pd rgb2hex;
#X obj 637 891 s \$0-color-fg;
#X obj 637 749 * 0.5;
#X obj 687 749 * 0.5;
#X obj 737 749 * 0.5;
#X obj 897 749 * 0.45;
#X obj 947 749 * 0.45;
#X obj 997 749 * 0.45;
#X connect 0 0 4 0;
#X connect 4 0 5 0;
#X connect 5 1 21 0;
#X connect 6 0 7 0;
#X connect 7 0 8 0;
#X connect 7 1 9 0;
#X connect 7 2 10 0;
#X connect 7 3 11 0;
#X connect 7 4 12 0;
#X connect 7 5 13 0;
#X connect 7 6 14 0;
#X connect 8 0 14 0;
#X connect 9 0 14 0;
#X connect 10 0 14 0;
#X connect 11 0 14 0;
#X connect 12 0 14 0;
#X connect 13 0 14 0;
#X connect 14 0 25 1;
#X connect 15 0 18 0;
#X connect 16 0 17 0;
#X connect 17 0 19 0;
#X connect 17 0 23 0;
#X connect 18 0 16 0;
#X connect 18 1 20 0;
#X connect 19 0 17 1;
#X connect 20 0 17 1;
#X connect 21 0 15 0;
#X connect 21 1 22 1;
#X connect 22 0 6 0;
#X connect 23 0 25 0;
#X connect 23 1 24 0;
#X connect 24 0 22 0;
#X connect 25 0 26 0;
#X connect 26 0 31 0;
#X connect 26 1 32 1;
#X connect 26 2 29 0;
#X connect 26 3 30 1;
#X connect 26 4 27 0;
#X connect 26 5 28 1;
#X connect 27 0 28 0;
#X connect 28 0 33 2;
#X connect 28 0 37 0;
#X connect 28 0 43 0;
#X connect 28 0 46 0;
#X connect 29 0 30 0;
#X connect 30 0 33 1;
#X connect 30 0 36 0;
#X connect 30 0 42 0;
#X connect 30 0 45 0;
#X connect 31 0 32 0;
#X connect 32 0 33 0;
#X connect 32 0 35 0;
#X connect 32 0 41 0;
#X connect 32 0 44 0;
#X connect 33 0 1 0;
#X connect 34 0 2 0;
#X connect 35 0 34 0;
#X connect 36 0 34 1;
#X connect 37 0 34 2;
#X connect 38 0 40 0;
#X connect 39 0 3 0;
#X connect 41 0 38 0;
#X connect 42 0 38 1;
#X connect 43 0 38 2;
#X connect 44 0 39 0;
#X connect 45 0 39 1;
#X connect 46 0 39 2;
#X restore 354 45 pd calculate_color;
#X text 1358 602 output duration;
#X msg 1392 700 dur \$1;
#X obj 1573 708 list trim;
#X obj 1573 684 list prepend values;
#X obj 1573 623 r \$0-output;
#X text 1645 708 output list as "values";
#N canvas 361 250 1278 726 args 0;
#X obj 489 564 sel 0;
#X msg 489 589 3;
#X text 181 447 length;
#X text 486 447 height;
#X obj 215 589 clip 1 32;
#X obj 521 589 clip 2 15;
#X text 760 447 receiver;
#X text 635 447 grid;
#X text 921 447 sender;
#X text 191 184 named arguments;
#N canvas 445 57 629 841 parse_named_or_positional_arguments 0;
#X obj 46 41 inlet;
#X obj 46 165 t l l, f 10;
#X obj 46 189 list length;
#X obj 46 213 until;
#X obj 46 257 list store;
#X obj 46 308 list split 1, f 48;
#X text 150 499 check if "-" is first symbol;
#X obj 107 451 list fromsymbol;
#X obj 107 475 t f;
#X obj 107 499 == 45;
#X obj 296 601 list store;
#X obj 296 625 list split 1;
#X obj 107 688 symbol;
#X obj 296 688 list prepend;
#X obj 296 712 list trim;
#X text 90 212 iterate through list;
#X text 52 330 forward first element and send back leftovers for next
iteration cycle, f 70;
#X obj 46 786 outlet;
#X obj 46 369 route float symbol;
#X obj 107 427 t s s s, f 39;
#X obj 107 712 list trim;
#X text 107 667 flag-candidate;
#X text 297 580 value-candidate;
#X text 299 667 key-candidate;
#X obj 107 523 sel 0 1;
#X text 112 407 expecting symbols for parameter keys and flags;
#X text 165 523 trigger flag or kwarg;
#X obj 46 115 pdcontrol;
#X msg 46 91 args 0;
#X connect 0 0 28 0;
#X connect 1 0 2 0;
#X connect 1 1 4 1;
#X connect 2 0 3 0;
#X connect 3 0 4 0;
#X connect 4 0 5 0;
#X connect 5 0 18 0;
#X connect 5 1 4 1;
#X connect 5 1 10 1;
#X connect 7 0 8 0;
#X connect 8 0 9 0;
#X connect 9 0 24 0;
#X connect 10 0 11 0;
#X connect 11 0 13 0;
#X connect 11 1 4 1;
#X connect 12 0 20 0;
#X connect 13 0 14 0;
#X connect 14 0 17 0;
#X connect 18 0 17 0;
#X connect 18 1 19 0;
#X connect 19 0 7 0;
#X connect 19 1 12 1;
#X connect 19 2 13 1;
#X connect 20 0 17 0;
#X connect 24 0 12 0;
#X connect 24 1 10 0;
#X connect 27 0 1 0;
#X connect 28 0 27 0;
#X restore 183 123 pd parse_named_or_positional_arguments;
#X text 1066 447 partition length;
#N canvas 24 33 1811 940 color_mapping 0;
#X obj 69 43 inlet;
#X obj 69 875 outlet;
#X obj 1390 221 route red bright-red;
#X obj 1390 284 route orange bright-orange;
#X obj 1390 347 route yellow bright-yellow;
#X obj 1390 410 route lime bright-lime;
#X obj 1390 473 route cyan bright-cyan;
#X obj 1390 536 route pink bright-pink;
#X obj 1390 599 route blue bright-blue;
#X obj 1390 725 route green bright-green;
#X obj 1344 264 t f;
#X msg 1390 308 950;
#X msg 1390 371 980;
#X msg 1479 371 996;
#X obj 1344 327 t f;
#X obj 1344 390 t f;
#X obj 1344 516 t f;
#X obj 1344 579 t f;
#X obj 1344 642 t f;
#X obj 1344 768 t f;
#X obj 1344 831 t f;
#X obj 1344 453 t f;
#X msg 1390 560 909;
#X msg 1465 560 969;
#X msg 1465 623 679;
#X msg 1390 245 910;
#X msg 1458 245 966;
#X msg 1479 308 975;
#X msg 1552 812 888;
#X msg 1498 812 666;
#X msg 1444 812 333;
#X msg 1390 812 24;
#X msg 1390 749 80;
#X msg 1390 497 89;
#X msg 1390 623 39;
#X msg 1465 497 699;
#X msg 1390 434 792;
#X msg 1472 749 696;
#X msg 1465 434 896;
#X obj 1390 788 route navy black gray bright-gray white;
#X msg 1606 812 999;
#X obj 1344 705 t f;
#X obj 1390 662 route violet bright-violet;
#X msg 1465 686 879;
#X msg 1390 686 519;
#X obj 1307 104 list fromsymbol;
#X obj 1307 51 symbol;
#X obj 69 95 route float;
#X obj 1307 133 t f;
#X obj 1307 157 == 35;
#X obj 1307 78 t s s;
#X obj 1307 211 symbol;
#X obj 1390 162 symbol;
#X text 416 259 G;
#X obj 409 307 div 10;
#X obj 69 283 div 100;
#X obj 409 283 mod 100;
#X obj 749 283 mod 10;
#X text 76 259 R;
#X text 753 259 B;
#X obj 69 518 div 16;
#X obj 409 518 div 16;
#X obj 749 518 div 16;
#X obj 749 412 t f f;
#X obj 409 412 t f f;
#X obj 69 412 t f f;
#X obj 239 518 mod 16;
#X obj 579 518 mod 16;
#X obj 919 518 mod 16;
#X obj 69 175 t f f f b;
#X obj 69 347 / 9;
#X obj 409 347 / 9;
#X obj 749 347 / 9;
#X obj 749 370 * 255;
#X obj 409 370 * 255;
#X obj 69 372 * 255;
#X text 796 360 change scale from 0..9 to 0..255;
#X obj 69 722 pack s s s s s s;
#X obj 1307 181 sel 1 0;
#X msg 1390 186 \$1;
#X msg 69 746 symbol #\$1\$2\$3\$4\$5\$6;
#X obj 919 559 vsl.seq-helper-byte2hex;
#X obj 749 559 vsl.seq-helper-byte2hex;
#X obj 579 559 vsl.seq-helper-byte2hex;
#X obj 409 559 vsl.seq-helper-byte2hex;
#X obj 239 559 vsl.seq-helper-byte2hex;
#X obj 69 559 vsl.seq-helper-byte2hex;
#X obj 1344 860 t f;
#X connect 0 0 47 0;
#X connect 2 0 25 0;
#X connect 2 1 26 0;
#X connect 2 2 3 0;
#X connect 3 0 11 0;
#X connect 3 1 27 0;
#X connect 3 2 4 0;
#X connect 4 0 12 0;
#X connect 4 1 13 0;
#X connect 4 2 5 0;
#X connect 5 0 36 0;
#X connect 5 1 38 0;
#X connect 5 2 6 0;
#X connect 6 0 33 0;
#X connect 6 1 35 0;
#X connect 6 2 7 0;
#X connect 7 0 22 0;
#X connect 7 1 23 0;
#X connect 7 2 8 0;
#X connect 8 0 34 0;
#X connect 8 1 24 0;
#X connect 8 2 42 0;
#X connect 9 0 32 0;
#X connect 9 1 37 0;
#X connect 9 2 39 0;
#X connect 10 0 87 0;
#X connect 11 0 14 0;
#X connect 12 0 15 0;
#X connect 13 0 15 0;
#X connect 14 0 87 0;
#X connect 15 0 87 0;
#X connect 16 0 87 0;
#X connect 17 0 87 0;
#X connect 18 0 87 0;
#X connect 19 0 87 0;
#X connect 20 0 87 0;
#X connect 21 0 87 0;
#X connect 22 0 17 0;
#X connect 23 0 17 0;
#X connect 24 0 18 0;
#X connect 25 0 10 0;
#X connect 26 0 10 0;
#X connect 27 0 14 0;
#X connect 28 0 20 0;
#X connect 29 0 20 0;
#X connect 30 0 20 0;
#X connect 31 0 20 0;
#X connect 32 0 19 0;
#X connect 33 0 16 0;
#X connect 34 0 18 0;
#X connect 35 0 16 0;
#X connect 36 0 21 0;
#X connect 37 0 19 0;
#X connect 38 0 21 0;
#X connect 39 0 31 0;
#X connect 39 1 30 0;
#X connect 39 2 29 0;
#X connect 39 3 28 0;
#X connect 39 4 40 0;
#X connect 40 0 20 0;
#X connect 41 0 87 0;
#X connect 42 0 44 0;
#X connect 42 1 43 0;
#X connect 42 2 9 0;
#X connect 43 0 41 0;
#X connect 44 0 41 0;
#X connect 45 0 48 0;
#X connect 46 0 50 0;
#X connect 47 0 69 0;
#X connect 47 1 46 0;
#X connect 48 0 49 0;
#X connect 49 0 78 0;
#X connect 50 0 45 0;
#X connect 50 1 51 1;
#X connect 50 1 52 1;
#X connect 51 0 1 0;
#X connect 52 0 79 0;
#X connect 54 0 71 0;
#X connect 55 0 70 0;
#X connect 56 0 54 0;
#X connect 57 0 72 0;
#X connect 60 0 86 0;
#X connect 61 0 84 0;
#X connect 62 0 82 0;
#X connect 63 0 62 0;
#X connect 63 1 68 0;
#X connect 64 0 61 0;
#X connect 64 1 67 0;
#X connect 65 0 60 0;
#X connect 65 1 66 0;
#X connect 66 0 85 0;
#X connect 67 0 83 0;
#X connect 68 0 81 0;
#X connect 69 0 55 0;
#X connect 69 1 56 0;
#X connect 69 2 57 0;
#X connect 70 0 75 0;
#X connect 71 0 74 0;
#X connect 72 0 73 0;
#X connect 73 0 63 0;
#X connect 74 0 64 0;
#X connect 75 0 65 0;
#X connect 77 0 80 0;
#X connect 78 0 51 0;
#X connect 78 1 52 0;
#X connect 79 0 2 0;
#X connect 80 0 1 0;
#X connect 81 0 77 5;
#X connect 82 0 77 4;
#X connect 83 0 77 3;
#X connect 84 0 77 2;
#X connect 85 0 77 1;
#X connect 86 0 77 0;
#X connect 87 0 69 0;
#X restore 327 471 pd color_mapping;
#X obj 489 539 f;
#X text 326 447 color;
#X obj 183 539 f;
#X obj 763 648 s \$0-receiver-name;
#X obj 923 648 s \$0-sender-name;
#X obj 327 648 s \$0-input-color;
#X obj 1069 648 s \$0-partition-length;
#X obj 489 648 s \$0-height;
#X obj 635 648 s \$0-grid;
#X obj 183 48 loadbang;
#X obj 52 648 s \$0-args-done;
#X obj 183 563 sel 0;
#X obj 183 648 v \$0-length;
#X obj 52 291 t b b b b;
#X msg 183 589 8;
#X obj 151 83 t b b;
#X obj 183 209 route -length -color -height -grid -receiver -sender
-partition, f 63;
#X obj 646 209 route float;
#X text 645 184 float argument;
#X obj 635 471 t f;
#X obj 489 471 t f;
#X obj 1069 471 t f;
#X obj 183 472 t f;
#X obj 763 471 t a;
#X obj 923 471 t a;
#X obj 763 560 symbol;
#X obj 923 560 symbol;
#X obj 327 589 symbol #ffffff;
#X connect 0 0 1 0;
#X connect 0 1 5 0;
#X connect 1 0 20 0;
#X connect 4 0 25 0;
#X connect 5 0 20 0;
#X connect 10 0 29 0;
#X connect 12 0 40 1;
#X connect 13 0 0 0;
#X connect 15 0 24 0;
#X connect 22 0 28 0;
#X connect 24 0 27 0;
#X connect 24 1 4 0;
#X connect 26 0 23 0;
#X connect 26 1 15 0;
#X connect 26 2 40 0;
#X connect 26 3 13 0;
#X connect 27 0 25 0;
#X connect 28 0 26 0;
#X connect 28 1 10 0;
#X connect 29 0 35 0;
#X connect 29 1 12 0;
#X connect 29 2 33 0;
#X connect 29 3 32 0;
#X connect 29 4 36 0;
#X connect 29 5 37 0;
#X connect 29 6 34 0;
#X connect 29 7 30 0;
#X connect 30 0 35 0;
#X connect 32 0 21 0;
#X connect 33 0 13 1;
#X connect 34 0 19 0;
#X connect 35 0 15 1;
#X connect 36 0 38 0;
#X connect 37 0 39 0;
#X connect 38 0 16 0;
#X connect 39 0 17 0;
#X connect 40 0 18 0;
#X restore 292 45 pd args;
#N canvas 82 58 1793 940 draw_object 0;
#X obj 103 275 until;
#X obj 103 306 f;
#X obj 136 306 + 1;
#X msg 149 275 0;
#X obj 103 438 + 100;
#X obj 103 416 * 15;
#X obj 124 696 s pd-\$0-interface;
#X obj 1090 331 s pd-\$0-interface;
#X obj 860 212 s pd-\$0-interface;
#X msg 860 186 clear;
#X obj 85 862 s \$0-this-canvas;
#X obj 85 726 * 15;
#X obj 230 861 s pd-\$0-interface;
#X obj 120 164 array size \$0-seq;
#X obj 85 831 t a a;
#X text 178 275 counter;
#X text 355 537 draw sliders;
#X text 240 726 resize abstraction and subpatch;
#X text 1177 272 draw hradio;
#X text 909 186 clear subpatch;
#X obj 68 204 s \$0-init-done;
#X obj 263 548 r \$0-height;
#X obj 152 727 r \$0-height;
#X obj 85 774 pack 16 64;
#X obj 103 357 t f f f;
#X obj 223 393 /;
#X obj 858 762 s pd-\$0-interface;
#X obj 972 479 r \$0-height;
#X obj 972 503 expr $f1 * 16 - 1;
#X obj 835 480 + 1;
#X text 866 810 draw marker;
#X obj 835 858 s pd-\$0-interface;
#X obj 103 461 t f f;
#X obj 835 651 t b l l;
#X obj 835 810 \$0;
#X msg 85 801 donecanvasdialog 0 0 -1 0 -1 1 1 \$1 \$2 100 100 1 \,
dirty 0;
#X obj 152 751 expr ($f1) * 16 + 1;
#X obj 263 572 expr $f1 * 16 - 4;
#X msg 1090 302 obj 100 100 hradio 15 1 1 \$1 \$2-radio-sender \$2-radio-receiver
empty 0 -8 0 10 \$3 -1 -1 0, f 90;
#X text 898 650 draw beauty;
#X obj 103 246 t f f b;
#X obj 332 313 sel 0;
#X msg 332 337 4;
#X obj 378 313 sel 0;
#X msg 378 337 3;
#X obj 273 303 f;
#X obj 305 365 f;
#X obj 309 265 t b f f;
#X obj 273 327 sel 0;
#X obj 291 234 r \$0-partition-length;
#X text 305 642 <pos> <nr> <\$0> <color> <height> <grid>;
#X msg 124 668 obj \$1 102 vsl 15 \$5 0 \$6 0 0 \$3-\$2-vsl-sender
\$3-\$2-vsl-receiver empty 0 -9 0 10 \$4 -1 -1 0 1, f 94;
#X obj 481 512 r \$0-grid;
#X msg 858 698 obj \$1 101 cnv 0 13 \$5 empty \$3-\$2-vsl-cnv-receiver
empty 20 12 0 14 \$4 \$4 0, f 77;
#X msg 881 730 obj \$1 101 cnv 13 13 \$5 empty empty empty 20 12 0
14 \$6 \$6 0, f 61;
#X msg 835 834 obj 101 101 cnv 0 13 0 empty \$1-vsl-mark-receiver empty
20 12 0 14 -1 -1 0, f 75;
#X text 451 228 use partition argument or fallback to \; 3 or 4 if
length is multiple of these.;
#X obj 1137 454 sel 0 1;
#X obj 223 454 sel 0 1;
#X text 537 536 set slider range > 1 if grid set;
#X obj 481 536 moses 1;
#X obj 68 65 v \$0-length;
#X obj 68 38 r \$0-args-done;
#X obj 68 116 t b f f f f b;
#X obj 332 289 mod 4;
#X obj 378 289 mod 3;
#X obj 223 416 mod 2;
#X obj 1290 520 symbol;
#X obj 1137 512 symbol;
#X obj 1137 539 t s;
#X obj 326 512 symbol;
#X obj 223 512 symbol;
#X obj 223 600 t s;
#X obj 124 641 pack 0 1 \$0 s 48 1;
#X obj 835 619 pack 0 1 \$0 s 48 s;
#X obj 1090 271 pack 1 \$0 s;
#X obj 1329 488 r \$0-color-fg-dark;
#X obj 1176 488 r \$0-color-fg;
#X obj 365 488 r \$0-color-bg-dark;
#X obj 262 488 r \$0-color-bg;
#X obj 1164 248 r \$0-color-bg;
#X connect 0 0 1 0;
#X connect 1 0 2 0;
#X connect 1 0 24 0;
#X connect 2 0 1 1;
#X connect 3 0 1 1;
#X connect 4 0 32 0;
#X connect 5 0 4 0;
#X connect 9 0 8 0;
#X connect 11 0 23 0;
#X connect 14 0 10 0;
#X connect 14 1 12 0;
#X connect 21 0 37 0;
#X connect 22 0 36 0;
#X connect 23 0 35 0;
#X connect 24 0 5 0;
#X connect 24 1 73 1;
#X connect 24 1 74 1;
#X connect 24 2 25 0;
#X connect 25 0 66 0;
#X connect 27 0 28 0;
#X connect 28 0 74 4;
#X connect 29 0 74 0;
#X connect 32 0 29 0;
#X connect 32 1 73 0;
#X connect 33 0 34 0;
#X connect 33 1 53 0;
#X connect 33 2 54 0;
#X connect 34 0 55 0;
#X connect 35 0 14 0;
#X connect 36 0 23 1;
#X connect 37 0 73 4;
#X connect 38 0 7 0;
#X connect 40 0 0 0;
#X connect 40 1 47 0;
#X connect 40 2 3 0;
#X connect 41 0 42 0;
#X connect 42 0 46 1;
#X connect 43 0 44 0;
#X connect 44 0 46 1;
#X connect 45 0 48 0;
#X connect 46 0 25 1;
#X connect 47 0 45 0;
#X connect 47 1 64 0;
#X connect 47 2 65 0;
#X connect 48 0 46 0;
#X connect 48 1 46 0;
#X connect 49 0 45 1;
#X connect 51 0 6 0;
#X connect 52 0 60 0;
#X connect 53 0 26 0;
#X connect 54 0 26 0;
#X connect 55 0 31 0;
#X connect 57 0 68 0;
#X connect 57 1 67 0;
#X connect 58 0 71 0;
#X connect 58 1 70 0;
#X connect 60 1 73 5;
#X connect 61 0 63 0;
#X connect 62 0 61 0;
#X connect 63 0 20 0;
#X connect 63 1 11 0;
#X connect 63 2 40 0;
#X connect 63 3 13 0;
#X connect 63 4 75 0;
#X connect 63 5 9 0;
#X connect 64 0 41 0;
#X connect 65 0 43 0;
#X connect 66 0 57 0;
#X connect 66 0 58 0;
#X connect 67 0 69 0;
#X connect 68 0 69 0;
#X connect 69 0 74 5;
#X connect 70 0 72 0;
#X connect 71 0 72 0;
#X connect 72 0 73 3;
#X connect 72 0 74 3;
#X connect 73 0 51 0;
#X connect 74 0 33 0;
#X connect 75 0 38 0;
#X connect 76 0 67 1;
#X connect 77 0 68 1;
#X connect 78 0 70 1;
#X connect 79 0 71 1;
#X connect 80 0 75 2;
#X restore 493 45 pd draw_object;
#N canvas 83 57 1645 897 sliders_to_array_and_canvases 0;
#X obj 107 59 r \$0-0-vsl-sender;
#X obj 118 79 r \$0-1-vsl-sender;
#X obj 127 99 r \$0-2-vsl-sender;
#X obj 138 120 r \$0-3-vsl-sender;
#X obj 147 139 r \$0-4-vsl-sender;
#X obj 158 159 r \$0-5-vsl-sender;
#X obj 167 179 r \$0-6-vsl-sender;
#X obj 178 199 r \$0-7-vsl-sender;
#X obj 357 59 r \$0-8-vsl-sender;
#X obj 368 79 r \$0-9-vsl-sender;
#X obj 377 99 r \$0-10-vsl-sender;
#X obj 387 119 r \$0-11-vsl-sender;
#X obj 397 139 r \$0-12-vsl-sender;
#X obj 408 159 r \$0-13-vsl-sender;
#X obj 417 179 r \$0-14-vsl-sender;
#X obj 428 199 r \$0-15-vsl-sender;
#X obj 614 59 r \$0-16-vsl-sender;
#X obj 625 79 r \$0-17-vsl-sender;
#X obj 634 99 r \$0-18-vsl-sender;
#X obj 645 119 r \$0-19-vsl-sender;
#X obj 654 139 r \$0-20-vsl-sender;
#X obj 665 159 r \$0-21-vsl-sender;
#X obj 674 179 r \$0-22-vsl-sender;
#X obj 686 199 r \$0-23-vsl-sender;
#X obj 872 59 r \$0-24-vsl-sender;
#X obj 883 79 r \$0-25-vsl-sender;
#X obj 894 99 r \$0-26-vsl-sender;
#X obj 903 119 r \$0-27-vsl-sender;
#X obj 912 139 r \$0-28-vsl-sender;
#X obj 923 159 r \$0-29-vsl-sender;
#X obj 932 180 r \$0-30-vsl-sender;
#X obj 943 199 r \$0-31-vsl-sender;
#X msg 62 59 \$1 0;
#X msg 827 59 \$1 24;
#X msg 837 79 \$1 25;
#X msg 846 99 \$1 26;
#X msg 857 119 \$1 27;
#X msg 867 139 \$1 28;
#X msg 877 159 \$1 29;
#X msg 887 179 \$1 30;
#X msg 897 199 \$1 31;
#X msg 312 59 \$1 8;
#X msg 322 79 \$1 9;
#X msg 332 99 \$1 10;
#X msg 342 119 \$1 11;
#X msg 352 139 \$1 12;
#X msg 362 159 \$1 13;
#X msg 372 179 \$1 14;
#X msg 382 199 \$1 15;
#X msg 569 59 \$1 16;
#X msg 579 79 \$1 17;
#X msg 589 99 \$1 18;
#X msg 599 119 \$1 19;
#X msg 609 139 \$1 20;
#X msg 619 159 \$1 21;
#X msg 629 179 \$1 22;
#X msg 639 199 \$1 23;
#X msg 72 79 \$1 1;
#X msg 82 99 \$1 2;
#X msg 92 119 \$1 3;
#X msg 102 139 \$1 4;
#X msg 112 159 \$1 5;
#X msg 122 179 \$1 6;
#X msg 132 199 \$1 7;
#X obj 1305 515 array set \$0-seq;
#X obj 566 614 *;
#X obj 584 557 r \$0-height;
#X obj 566 770 pack f 13;
#X msg 566 793 vis_size \$2 \$1;
#X obj 566 527 -;
#X msg 566 502 1 \$1;
#X obj 584 582 expr $f1 * 16 - 1;
#X obj 566 816 s;
#X obj 1305 416 unpack;
#X obj 566 416 unpack;
#X obj 826 774 pack f \$0;
#X msg 826 797 symbol \$2-\$1-vsl-cnv-receiver;
#X msg 672 730 13;
#X obj 626 730 * 13;
#X obj 626 706 / 2;
#X obj 808 447 r \$0-grid;
#X obj 94 811 s \$0-radio-receiver;
#X msg 62 760 label;
#X obj 62 626 t b f;
#X msg 94 707 label \\\ \$1;
#X text 69 387 draw value as label;
#X obj 62 556 unpack;
#X msg 259 627 label_pos \$1 -8;
#X text 295 602 position label;
#X text 108 625 write value;
#X text 1304 387 write to array;
#X text 565 387 visualize as canvas;
#X obj 259 575 * 15;
#X obj 259 601 - 2;
#X obj 62 737 del 1200;
#X text 105 760 remove after 1.2 seconds;
#X obj 62 493 spigot;
#X obj 147 466 loadbang;
#X text 216 468 default to showing label;
#X obj 101 462 == 0;
#X msg 147 488 1;
#X obj 101 439 array sum \$0-slider-transitions-ongoing;
#N canvas 557 170 476 222 initialize_transistion_array 0;
#X obj 59 126 array define \$0-slider-transitions-ongoing;
#X msg 59 102 resize \$1;
#X obj 59 78 v \$0-length;
#X obj 59 54 r \$0-init-done;
#X connect 1 0 0 0;
#X connect 2 0 1 0;
#X connect 3 0 2 0;
#X restore 147 515 pd initialize_transistion_array;
#X obj 101 416 r \$0-slider-transition-check;
#X obj 427 659 r \$0-grid;
#X obj 922 592 s \$0-edit-value;
#X text 919 387 output edited values;
#X obj 62 312 t l l l l;
#X obj 62 218 t l;
#X obj 312 218 t l;
#X obj 569 218 t l;
#X obj 827 218 t l;
#X obj 922 415 unpack;
#X obj 1519 443 r \$0-grid;
#X obj 566 471 expr if($f2 > 0 \, int($f1)/$f2 \, $f1);
#X obj 1305 467 expr if($f2 > 0 \, int($f1) \, $f1);
#X obj 94 683 expr if($f2 > 0 \, int($f1) \, int($f1 * 100) / 100)
;
#X text 201 706 display grid position or only 2 decimal digits \; and
int-value for gridded version;
#X obj 922 540 clone 32 vsl.seq-helper-output-edited.cl;
#X obj 922 471 swap;
#X obj 922 496 pack;
#X obj 1206 476 r \$0-grid;
#X msg 1206 500 all \$1;
#X obj 626 679 moses 3;
#X obj 566 637 t f f;
#X connect 0 0 32 0;
#X connect 1 0 57 0;
#X connect 2 0 58 0;
#X connect 3 0 59 0;
#X connect 4 0 60 0;
#X connect 5 0 61 0;
#X connect 6 0 62 0;
#X connect 7 0 63 0;
#X connect 8 0 41 0;
#X connect 9 0 42 0;
#X connect 10 0 43 0;
#X connect 11 0 44 0;
#X connect 12 0 45 0;
#X connect 13 0 46 0;
#X connect 14 0 47 0;
#X connect 15 0 48 0;
#X connect 16 0 49 0;
#X connect 17 0 50 0;
#X connect 18 0 51 0;
#X connect 19 0 52 0;
#X connect 20 0 53 0;
#X connect 21 0 54 0;
#X connect 22 0 55 0;
#X connect 23 0 56 0;
#X connect 24 0 33 0;
#X connect 25 0 34 0;
#X connect 26 0 35 0;
#X connect 27 0 36 0;
#X connect 28 0 37 0;
#X connect 29 0 38 0;
#X connect 30 0 39 0;
#X connect 31 0 40 0;
#X connect 32 0 108 0;
#X connect 33 0 111 0;
#X connect 34 0 111 0;
#X connect 35 0 111 0;
#X connect 36 0 111 0;
#X connect 37 0 111 0;
#X connect 38 0 111 0;
#X connect 39 0 111 0;
#X connect 40 0 111 0;
#X connect 41 0 109 0;
#X connect 42 0 109 0;
#X connect 43 0 109 0;
#X connect 44 0 109 0;
#X connect 45 0 109 0;
#X connect 46 0 109 0;
#X connect 47 0 109 0;
#X connect 48 0 109 0;
#X connect 49 0 110 0;
#X connect 50 0 110 0;
#X connect 51 0 110 0;
#X connect 52 0 110 0;
#X connect 53 0 110 0;
#X connect 54 0 110 0;
#X connect 55 0 110 0;
#X connect 56 0 110 0;
#X connect 57 0 108 0;
#X connect 58 0 108 0;
#X connect 59 0 108 0;
#X connect 60 0 108 0;
#X connect 61 0 108 0;
#X connect 62 0 108 0;
#X connect 63 0 108 0;
#X connect 65 0 124 0;
#X connect 66 0 71 0;
#X connect 67 0 68 0;
#X connect 68 0 72 0;
#X connect 69 0 65 0;
#X connect 70 0 69 0;
#X connect 71 0 65 1;
#X connect 73 0 115 0;
#X connect 73 1 64 1;
#X connect 74 0 114 0;
#X connect 74 1 75 0;
#X connect 75 0 76 0;
#X connect 76 0 72 1;
#X connect 77 0 67 1;
#X connect 78 0 67 1;
#X connect 79 0 78 0;
#X connect 80 0 114 1;
#X connect 82 0 81 0;
#X connect 83 0 94 0;
#X connect 83 1 116 0;
#X connect 84 0 81 0;
#X connect 86 0 83 0;
#X connect 86 1 92 0;
#X connect 87 0 81 0;
#X connect 92 0 93 0;
#X connect 93 0 87 0;
#X connect 94 0 82 0;
#X connect 96 0 86 0;
#X connect 97 0 100 0;
#X connect 99 0 96 1;
#X connect 100 0 96 1;
#X connect 101 0 99 0;
#X connect 103 0 101 0;
#X connect 104 0 116 1;
#X connect 107 0 96 0;
#X connect 107 1 74 0;
#X connect 107 2 112 0;
#X connect 107 3 73 0;
#X connect 108 0 107 0;
#X connect 109 0 107 0;
#X connect 110 0 107 0;
#X connect 111 0 107 0;
#X connect 112 0 119 0;
#X connect 112 1 119 1;
#X connect 113 0 115 1;
#X connect 114 0 70 0;
#X connect 115 0 64 0;
#X connect 116 0 84 0;
#X connect 118 0 105 0;
#X connect 119 0 120 0;
#X connect 119 1 120 1;
#X connect 120 0 118 0;
#X connect 121 0 122 0;
#X connect 122 0 118 1;
#X connect 123 0 79 0;
#X connect 123 1 77 0;
#X connect 124 0 67 0;
#X connect 124 1 123 0;
#X restore 702 45 pd sliders_to_array_and_canvases;
#N canvas 270 126 1364 781 handle_input 0;
#X obj 45 578 v \$0-pos;
#X obj 45 602 + 1;
#X text 146 252 set pos;
#X obj 45 37 r \$0-input;
#X obj 45 707 s \$0-pos-abs;
#X obj 141 277 s \$0-pos-abs;
#X obj 503 667 array random \$0-seq;
#X obj 551 597 s \$0-run;
#N canvas 393 173 841 618 dyn-receive 0;
#X obj 56 308 outlet;
#X obj 123 169 pack s \$0;
#X msg 123 191 clear \, obj 100 100 r \$1 \, obj 100 150 s \$2-out
\, connect 0 0 1 0, f 62;
#X obj 56 285 r \$0-out;
#X obj 123 213 s pd-\$0-receive;
#N canvas 0 23 450 300 \$0-receive 0;
#X obj 100 100 r 7627-receive;
#X obj 100 150 s 7725-out;
#X connect 0 0 1 0;
#X restore 56 247 pd \$0-receive;
#X obj 56 107 inlet;
#X connect 1 0 2 0;
#X connect 2 0 4 0;
#X connect 3 0 0 0;
#X connect 6 0 1 0;
#X restore 59 118 pd dyn-receive;
#X obj 599 548 s \$0-stumble;
#X text 619 589 run through with "run <step_duration> <callback_receiver>"
(default tempo if 0);
#X text 695 541 stumble through with weighted steps "stumble <total_duration>"
;
#X obj 647 474 array sum \$0-seq;
#X obj 647 498 s \$0-sum;
#X obj 351 279 s \$0-set-ramped-sequence;
#X text 356 241 set sequence with ramp \; "<val 1> .. <val n> <ramp_time>
<ease_mode>";
#X text 49 552 increase pos via bang;
#X text 647 666 return random output via "random";
#X text 772 474 output value sum via "sum";
#X obj 303 363 s \$0-set-ramped-value;
#X obj 59 70 r \$0-receiver-name;
#X obj 205 91 r \$0-input-pos-abs;
#X obj 255 449 s \$0-set-seq;
#X text 260 411 set sequence \; via "values ...";
#X obj 255 160 route values set list;
#X obj 1109 249 s \$0-output;
#X text 1114 225 output values as list;
#X obj 1170 191 s \$0-reset;
#X obj 503 713 s \$0-pos-abs;
#X text 308 325 set value via \; "set <index> <value> <ramp_time> <ease_mode>"
;
#X obj 1109 159 route output reset;
#X obj 795 406 s \$0-sort;
#X text 869 406 sort values (asc via -1 or desc by default);
#X obj 848 355 s \$0-permute;
#X text 943 355 permute randomly or by index-list;
#X obj 955 297 s \$0-seed;
#X obj 508 643 r \$0-seed;
#X msg 955 273 seed \$1;
#X text 1029 298 send seed to all randoms;
#X obj 795 160 route sort permute shuffle seed;
#X obj 902 327 t b;
#X obj 59 94 symbol;
#N canvas 725 231 395 571 seed_fallback 0;
#X obj 55 58 inlet;
#X obj 55 477 outlet;
#X obj 132 196 pdcontrol;
#X obj 132 219 list fromsymbol;
#X obj 132 288 until;
#X obj 132 242 t l l;
#X obj 132 265 list length;
#X obj 132 311 list store;
#X obj 132 334 list split 1;
#X obj 160 380 f;
#X obj 132 380 +;
#X msg 132 173 dir;
#X obj 109 404 f;
#X obj 109 150 t b b b;
#X obj 132 357 + \$0;
#X obj 55 102 route float bang;
#X obj 189 380 mod 111111;
#X connect 0 0 15 0;
#X connect 2 0 3 0;
#X connect 3 0 5 0;
#X connect 4 0 7 0;
#X connect 5 0 6 0;
#X connect 5 1 7 1;
#X connect 6 0 4 0;
#X connect 7 0 8 0;
#X connect 8 0 14 0;
#X connect 8 1 7 1;
#X connect 9 0 16 0;
#X connect 10 0 9 0;
#X connect 10 0 12 1;
#X connect 11 0 2 0;
#X connect 12 0 1 0;
#X connect 13 0 12 0;
#X connect 13 1 11 0;
#X connect 14 0 10 0;
#X connect 15 0 1 0;
#X connect 15 1 13 0;
#X connect 16 0 10 1;
#X restore 955 249 pd seed_fallback;
#X obj 45 160 route bang step float;
#X obj 503 160 route random run stumble sum;
#X obj 147 450 v \$0-pos;
#X obj 147 426 t b f;
#X obj 147 474 +;
#X obj 147 498 s \$0-pos-abs;
#X obj 93 365 route bang float;
#X connect 0 0 1 0;
#X connect 1 0 4 0;
#X connect 3 0 43 0;
#X connect 6 0 28 0;
#X connect 8 0 43 0;
#X connect 12 0 13 0;
#X connect 20 0 41 0;
#X connect 21 0 5 0;
#X connect 24 0 22 0;
#X connect 24 1 19 0;
#X connect 24 2 14 0;
#X connect 24 3 44 0;
#X connect 30 0 25 0;
#X connect 30 1 27 0;
#X connect 36 0 6 0;
#X connect 37 0 35 0;
#X connect 39 0 31 0;
#X connect 39 1 33 0;
#X connect 39 2 40 0;
#X connect 39 3 42 0;
#X connect 39 4 30 0;
#X connect 40 0 33 0;
#X connect 41 0 8 0;
#X connect 42 0 37 0;
#X connect 43 0 0 0;
#X connect 43 1 49 0;
#X connect 43 2 5 0;
#X connect 43 3 24 0;
#X connect 44 0 6 0;
#X connect 44 1 7 0;
#X connect 44 2 9 0;
#X connect 44 3 12 0;
#X connect 44 4 39 0;
#X connect 45 0 47 0;
#X connect 46 0 45 0;
#X connect 46 1 47 1;
#X connect 47 0 48 0;
#X connect 49 0 0 0;
#X connect 49 1 46 0;
#X restore 1226 157 pd handle_input;
#X obj 99 45 s \$0-input;
#X text 1113 603 output absolute position;
#X msg 1000 702 pos-abs \$1;
#X obj 1661 20 inlet;
#X obj 1661 70 s \$0-input-pos-abs;
#X obj 695 687 r \$0-grid;
#X obj 660 726 +;
#N canvas 922 75 908 856 run 0;
#X obj 343 47 r \$0-run;
#X obj 388 377 s;
#X text 417 377 receiver name;
#X obj 388 351 spigot;
#X msg 589 254 0;
#X msg 427 254 1;
#X obj 366 161 list split 1;
#X obj 406 214 route symbol;
#X obj 433 455 sel 0;
#X obj 366 426 route bang;
#X msg 366 474 200;
#X text 165 645 at end of run;
#X text 372 494 default;
#X text 499 214 callback name;
#X text 445 426 duration;
#X text 625 254 default to not sending callback;
#X text 460 254 allow callback;
#X obj 134 252 del;
#X msg 103 206 1, f 1;
#X obj 57 252 spigot;
#X msg 121 206 0, f 1;
#X obj 57 317 f;
#X obj 57 159 t b b b;
#X msg 80 287 0, f 2;
#X obj 90 317 + 1;
#X obj 155 665 s \$0-run-done;
#X obj 388 300 r \$0-run-done;
#X obj 57 389 <;
#X obj 57 414 sel 1;
#X obj 89 439 t b b;
#X obj 57 470 f;
#X obj 57 785 s \$0-input;
#X obj 155 521 f;
#X obj 57 494 t f b;
#X obj 155 545 v \$0-duration;
#X obj 497 517 < 0;
#X obj 465 493 t f f;
#X obj 497 541 s \$0-run-negative;
#X obj 250 714 r \$0-run-negative;
#X obj 465 517 abs;
#X text 261 748 invert values if negative run got triggered;
#X obj 57 748 expr if($f3 \, $f2-$f1-1 \, $f1);
#X text 626 541 detect negative run;
#X obj 366 575 s \$0-run-duration;
#X obj 173 154 r \$0-run-duration;
#X obj 173 233 /;
#X obj 57 340 t f f b;
#X obj 103 370 v \$0-length;
#X obj 173 178 t f b;
#X obj 191 205 v \$0-length;
#X obj 153 714 v \$0-length;
#X obj 57 668 t f b;
#X obj 406 188 list split 1;
#X obj 89 594 list store;
#X obj 343 82 t b a b;
#X obj 89 618 list trim;
#X text 170 594 optional callback arguments;
#X connect 0 0 54 0;
#X connect 3 0 1 0;
#X connect 4 0 3 1;
#X connect 5 0 3 1;
#X connect 6 0 9 0;
#X connect 6 1 52 0;
#X connect 6 2 9 0;
#X connect 7 0 1 1;
#X connect 7 0 5 0;
#X connect 8 0 10 0;
#X connect 8 1 36 0;
#X connect 9 0 10 0;
#X connect 9 1 8 0;
#X connect 10 0 43 0;
#X connect 17 0 19 0;
#X connect 18 0 19 1;
#X connect 19 0 17 0;
#X connect 19 0 21 0;
#X connect 20 0 19 1;
#X connect 21 0 24 0;
#X connect 21 0 46 0;
#X connect 22 0 19 0;
#X connect 22 1 23 0;
#X connect 22 2 18 0;
#X connect 23 0 21 1;
#X connect 24 0 21 1;
#X connect 26 0 3 0;
#X connect 27 0 28 0;
#X connect 28 0 30 0;
#X connect 28 1 29 0;
#X connect 29 0 53 0;
#X connect 29 1 20 0;
#X connect 30 0 33 0;
#X connect 32 0 34 0;
#X connect 33 0 51 0;
#X connect 33 1 32 0;
#X connect 35 0 37 0;
#X connect 36 0 39 0;
#X connect 36 1 35 0;
#X connect 38 0 41 2;
#X connect 39 0 43 0;
#X connect 41 0 31 0;
#X connect 44 0 48 0;
#X connect 45 0 32 1;
#X connect 45 0 17 1;
#X connect 46 0 27 0;
#X connect 46 1 30 1;
#X connect 46 2 47 0;
#X connect 47 0 27 1;
#X connect 48 0 45 0;
#X connect 48 1 49 0;
#X connect 49 0 45 1;
#X connect 50 0 41 1;
#X connect 51 0 41 0;
#X connect 51 1 50 0;
#X connect 52 0 7 0;
#X connect 52 1 53 1;
#X connect 53 0 55 0;
#X connect 54 0 22 0;
#X connect 54 1 6 0;
#X connect 54 2 4 0;
#X connect 55 0 25 0;
#X restore 1226 230 pd run;
#N canvas 6 13 975 1003 stumble 0;
#X obj 465 50 r \$0-stumble;
#X obj 59 117 array sum \$0-seq;
#X obj 59 79 t b f;
#X msg 59 155 1 \$1;
#X obj 59 179 /;
#X text 103 168 normalize duration to 1;
#X obj 108 662 *;
#X obj 59 217 *;
#X text 90 217 normalize to set duration;
#X obj 91 400 <;
#X obj 59 313 f;
#X obj 87 313 + 1;
#X msg 77 288 0;
#X obj 59 255 t b b f, f 10;
#X obj 59 425 spigot;
#X obj 108 723 del;
#X obj 169 742 f;
#X obj 487 327 s;
#X text 516 327 receiver name;
#X obj 487 301 spigot;
#X msg 688 219 0;
#X msg 526 219 1;
#X obj 465 117 list split 1;
#X obj 505 179 route symbol;
#X obj 465 368 route bang;
#X text 598 179 callback name;
#X text 544 368 duration;
#X text 724 219 default to not sending callback;
#X text 559 219 allow callback;
#X obj 169 829 ==;
#X obj 169 853 sel 1, f 6;
#X obj 169 938 s \$0-stumble-done;
#X obj 487 260 r \$0-stumble-done;
#X obj 59 55 r \$0-stumble-duration;
#X obj 465 75 t a b;
#X obj 211 810 - 1;
#X obj 338 786 t b;
#X obj 59 938 s \$0-input;
#X obj 108 686 t f f;
#X obj 140 711 v \$0-duration;
#X obj 108 624 array get \$0-seq 0 1;
#X text 669 50 FIXME: remove redundancy with run?;
#X obj 59 558 expr if($f3 \, $f2-$f1-1 \, $f1);
#X obj 252 524 r \$0-stumble-negative;
#X obj 532 396 sel 0;
#X msg 465 415 200;
#X text 471 435 default;
#X obj 596 458 < 0;
#X obj 564 434 t f f;
#X obj 564 458 abs;
#X obj 465 522 s \$0-stumble-duration;
#X text 753 484 detect negative stumble;
#X obj 596 482 s \$0-stumble-negative;
#X text 263 558 invert values if negative stumble got triggered;
#X obj 59 449 t f f;
#X obj 59 584 t f f;
#X obj 59 347 t f f b;
#X obj 109 375 v \$0-length;
#X obj 169 766 t f b;
#X obj 211 786 v \$0-length;
#X obj 59 485 t f b;
#X obj 155 524 v \$0-length;
#X obj 169 885 list store;
#X obj 169 909 list trim;
#X obj 505 148 list split 1;
#X connect 0 0 34 0;
#X connect 1 0 3 0;
#X connect 2 0 1 0;
#X connect 2 1 7 1;
#X connect 3 0 4 0;
#X connect 4 0 7 0;
#X connect 6 0 38 0;
#X connect 7 0 13 0;
#X connect 9 0 14 1;
#X connect 10 0 11 0;
#X connect 10 0 56 0;
#X connect 11 0 10 1;
#X connect 12 0 10 1;
#X connect 13 0 10 0;
#X connect 13 1 12 0;
#X connect 13 2 6 1;
#X connect 14 0 54 0;
#X connect 15 0 16 0;
#X connect 16 0 58 0;
#X connect 19 0 17 0;
#X connect 20 0 19 1;
#X connect 21 0 19 1;
#X connect 22 0 24 0;
#X connect 22 1 64 0;
#X connect 22 2 24 0;
#X connect 23 0 17 1;
#X connect 23 0 21 0;
#X connect 24 0 45 0;
#X connect 24 1 44 0;
#X connect 29 0 30 0;
#X connect 30 0 62 0;
#X connect 30 1 36 0;
#X connect 32 0 19 0;
#X connect 33 0 2 0;
#X connect 34 0 22 0;
#X connect 34 1 20 0;
#X connect 35 0 29 1;
#X connect 36 0 10 0;
#X connect 38 0 15 0;
#X connect 38 1 39 0;
#X connect 40 0 6 0;
#X connect 42 0 55 0;
#X connect 43 0 42 2;
#X connect 44 0 45 0;
#X connect 44 1 48 0;
#X connect 45 0 50 0;
#X connect 47 0 52 0;
#X connect 48 0 49 0;
#X connect 48 1 47 0;
#X connect 49 0 50 0;
#X connect 54 0 60 0;
#X connect 54 1 16 1;
#X connect 55 0 37 0;
#X connect 55 1 40 0;
#X connect 56 0 14 0;
#X connect 56 1 9 0;
#X connect 56 2 57 0;
#X connect 57 0 9 1;
#X connect 58 0 29 0;
#X connect 58 1 59 0;
#X connect 59 0 35 0;
#X connect 60 0 42 0;
#X connect 60 1 61 0;
#X connect 61 0 42 1;
#X connect 62 0 63 0;
#X connect 63 0 31 0;
#X connect 64 0 23 0;
#X connect 64 1 62 1;
#X restore 1226 257 pd stumble;
#X msg 1570 828 cycle-done;
#X obj 1570 780 r \$0-run-done;
#X obj 1675 780 r \$0-stumble-done;
#X obj 1001 787 r \$0-sum;
#X msg 1001 811 sum \$1;
#X text 999 765 output sum;
#X text 1567 756 output end of run or stumble run;
#X text 619 958 output only values >0;
#X text 721 765 output values (including 0s);
#X text 691 708 either val>0 OR grid set;
#N canvas 1049 114 697 814 set_ramped_value 0;
#X msg 89 216 0, f 1;
#X obj 38 710 pack f f 0 s \$0;
#X obj 89 145 list length;
#X obj 89 169 sel 2 3;
#X obj 38 44 r \$0-set-ramped-value;
#X msg 114 216 symbol linear;
#X obj 288 254 r \$0-grid;
#X obj 38 86 t l l l;
#X obj 249 344 unpack f f;
#X obj 249 302 spigot;
#X obj 288 278 > 0;
#X text 152 170 fallback to 0 duration and linear easing \; if only
2 or 3 params given;
#X text 300 303 only if grid active;
#X obj 249 498 sel 1;
#X obj 65 655 +;
#X msg 249 589 0.99999;
#X obj 249 545 t b b;
#X obj 321 588 + 0.99999;
#X obj 321 612 array set \$0-seq;
#X obj 249 405 array get \$0-seq 0 1;
#X obj 321 564 f;
#X obj 249 429 t f f;
#X obj 249 368 t f f;
#X text 294 369 index;
#X text 295 430 start value;
#X obj 249 473 >;
#X text 99 656 target value correction;
#X text 442 612 start value correction;
#X obj 38 594 unpack f f f s;
#X text 361 543 handle gridded downwards ramp \; FIXME: quite ugly
with 0.99999;
#X obj 38 749 clone 32 vsl.seq-helper-ramp.cl;
#X connect 0 0 1 2;
#X connect 1 0 30 0;
#X connect 2 0 3 0;
#X connect 3 0 0 0;
#X connect 3 0 5 0;
#X connect 3 1 5 0;
#X connect 4 0 7 0;
#X connect 5 0 1 3;
#X connect 6 0 10 0;
#X connect 7 0 28 0;
#X connect 7 1 9 0;
#X connect 7 2 2 0;
#X connect 8 0 22 0;
#X connect 8 1 25 1;
#X connect 9 0 8 0;
#X connect 10 0 9 1;
#X connect 13 0 16 0;
#X connect 13 1 14 1;
#X connect 14 0 1 1;
#X connect 15 0 14 1;
#X connect 16 0 15 0;
#X connect 16 1 20 0;
#X connect 17 0 18 0;
#X connect 19 0 21 0;
#X connect 20 0 17 0;
#X connect 21 0 25 0;
#X connect 21 1 20 1;
#X connect 22 0 19 0;
#X connect 22 1 18 1;
#X connect 25 0 13 0;
#X connect 28 0 1 0;
#X connect 28 1 14 0;
#X connect 28 2 1 2;
#X connect 28 3 1 3;
#X restore 1226 284 pd set_ramped_value;
#N canvas 308 34 629 817 set_ramped_sequence 0;
#X obj 151 534 list length;
#X obj 151 557 - 1;
#X obj 84 583 list split;
#X obj 84 694 until;
#X obj 84 717 f;
#X obj 116 717 + 1;
#X obj 84 671 t f b;
#X msg 128 694 0;
#X msg 273 623 get \$1 1;
#X obj 246 589 t f f;
#X obj 84 646 list length;
#X obj 51 248 list split;
#X obj 118 161 list length;
#X obj 118 184 - 1;
#X obj 51 46 r \$0-set-ramped-sequence;
#X obj 246 744 s \$0-set-ramped-value;
#X obj 84 308 route symbol;
#X msg 327 589 symbol linear;
#X obj 145 331 t b b;
#X obj 84 332 t b s;
#X text 192 334 if no ease-mode found \, proceed with previous list
and set linear easing, f 37;
#X obj 84 515 t l l;
#X obj 84 606 t l l;
#X obj 273 656 list store;
#X obj 84 486 list store;
#X msg 84 426 get 0 4;
#X obj 118 208 t f f;
#X msg 95 401 set get 0 \$1;
#X obj 51 109 t l l l;
#X text 404 746 set each ramped value;
#X obj 246 692 pack f f 0 s;
#X connect 0 0 1 0;
#X connect 1 0 2 1;
#X connect 2 0 22 0;
#X connect 2 1 30 2;
#X connect 3 0 4 0;
#X connect 4 0 9 0;
#X connect 4 0 5 0;
#X connect 5 0 4 1;
#X connect 6 0 3 0;
#X connect 6 1 7 0;
#X connect 7 0 4 1;
#X connect 8 0 23 0;
#X connect 9 0 30 0;
#X connect 9 1 8 0;
#X connect 10 0 6 0;
#X connect 11 1 16 0;
#X connect 12 0 13 0;
#X connect 13 0 26 0;
#X connect 14 0 28 0;
#X connect 16 0 19 0;
#X connect 16 1 18 0;
#X connect 17 0 30 3;
#X connect 18 0 24 0;
#X connect 18 1 17 0;
#X connect 19 0 25 0;
#X connect 19 1 30 3;
#X connect 21 0 2 0;
#X connect 21 1 0 0;
#X connect 22 0 10 0;
#X connect 22 1 23 1;
#X connect 23 0 30 1;
#X connect 24 0 21 0;
#X connect 25 0 24 0;
#X connect 26 0 11 1;
#X connect 26 1 27 0;
#X connect 27 0 25 0;
#X connect 28 0 11 0;
#X connect 28 1 12 0;
#X connect 28 2 24 1;
#X connect 30 0 15 0;
#X restore 1226 311 pd set_ramped_sequence;
#X obj 918 880 t a a;
#X obj 888 935 outlet;
#X obj 950 935 s;
#X obj 1018 880 r \$0-sender-name;
#X obj 1661 45 route pos-abs;
#X obj 950 909 spigot;
#X msg 1000 909 1, f 1;
#X obj 1018 909 t b s;
#X text 1520 100 right inlet for absolute position only \; (to connect
multiple sequencers easily);
#X text 948 958 send to defined sender name;
#X text 749 496 receiving signal from sequencer hradio;
#X text 1063 910 only let through if sender name is defined;
#N canvas 1008 90 659 477 position 0;
#X obj 47 339 * 15;
#X obj 47 411 s \$0-vsl-mark-receiver;
#X obj 47 363 + 101;
#X msg 47 387 pos \$1 101;
#X obj 47 180 s \$0-radio-receiver;
#X obj 70 98 v \$0-pos;
#X obj 47 307 r \$0-radio-sender;
#X obj 47 39 r \$0-pos-abs;
#X text 180 308 mark position;
#X obj 47 67 t f f b;
#X obj 94 136 v \$0-length;
#X obj 47 155 mod;
#X connect 0 0 2 0;
#X connect 2 0 3 0;
#X connect 3 0 1 0;
#X connect 6 0 0 0;
#X connect 7 0 9 0;
#X connect 9 0 11 0;
#X connect 9 1 5 0;
#X connect 9 2 10 0;
#X connect 10 0 11 1;
#X connect 11 0 4 0;
#X restore 1226 203 pd position;
#X obj 1116 624 v \$0-pos;
#N canvas 204 158 576 586 reset_values 0;
#X obj 47 279 until;
#X obj 47 322 f;
#X obj 76 322 + 1;
#X obj 47 246 t f b;
#X msg 91 279 0;
#X obj 47 81 r \$0-reset;
#X msg 162 322 0;
#X obj 162 246 list length;
#X msg 195 322 symbol linear;
#X obj 47 506 s \$0-set-ramped-value;
#X obj 47 105 t b l;
#X text 241 271 if duration and/or ease mode not given;
#X text 43 38 great reset;
#X obj 130 124 t l l;
#X obj 162 270 sel 0 1, f 10;
#X obj 130 361 pack 0 s;
#X obj 130 385 unpack 0 s;
#X obj 47 478 pack f 0 0 s;
#X obj 47 184 v \$0-length;
#X connect 0 0 1 0;
#X connect 1 0 2 0;
#X connect 1 0 17 0;
#X connect 2 0 1 1;
#X connect 3 0 0 0;
#X connect 3 1 4 0;
#X connect 4 0 1 1;
#X connect 5 0 10 0;
#X connect 6 0 15 0;
#X connect 7 0 14 0;
#X connect 8 0 15 1;
#X connect 10 0 18 0;
#X connect 10 1 13 0;
#X connect 13 0 15 0;
#X connect 13 1 7 0;
#X connect 14 0 8 0;
#X connect 14 0 6 0;
#X connect 14 1 8 0;
#X connect 15 0 16 0;
#X connect 16 0 17 2;
#X connect 16 1 17 3;
#X connect 17 0 9 0;
#X connect 18 0 3 0;
#X restore 1226 392 pd reset_values;
#X obj 1360 624 v \$0-duration;
#X obj 621 541 t f f b b;
#X obj 1360 648 sel 0;
#X obj 1360 672 v \$0-last-duration;
#N canvas 627 191 441 252 measure_last_duration 0;
#X obj 73 50 r \$0-radio-sender;
#X obj 73 110 timer;
#X obj 73 76 t b b;
#X obj 73 135 v \$0-last-duration;
#X connect 0 0 2 0;
#X connect 1 0 3 0;
#X connect 2 0 1 0;
#X connect 2 1 1 1;
#X restore 939 45 pd measure_last_duration;
#X obj 1570 804 t b b;
#X msg 1667 823 0;
#X obj 1667 847 v \$0-duration;
#X text 1405 648 fallback to last;
#X msg 719 837 hit \$1;
#X obj 621 801 t f f;
#X text 1299 739 output edited value;
#X obj 1300 761 r \$0-edit-value;
#X obj 103 537 t l l;
#X obj 621 655 expr if($f2 > 0 \, int($f1+0.5) \, $f1);
#X obj 803 624 r \$0-grid;
#X obj 1300 809 list trim;
#X obj 1300 785 list prepend edit;
#X obj 621 624 array get \$0-seq 0 1;
#X obj 380 568 array get \$0-seq 0 -1;
#X obj 1573 660 array get \$0-seq 0 -1;
#X obj 1139 702 div;
#X msg 1139 766 cycle \$1;
#N canvas 558 142 675 747 sort 0;
#X obj 54 38 r \$0-sort;
#X obj 451 37 array define \$0-sort-temp;
#X obj 358 220 array get \$0-seq;
#X obj 358 244 array set \$0-sort-temp;
#X obj 450 133 array size \$0-sort-temp;
#X obj 185 488 array min \$0-sort-temp;
#X obj 54 274 until;
#X obj 54 307 f;
#X obj 84 307 + 1;
#X obj 54 245 t f b;
#X msg 98 275 0;
#X obj 54 331 t b f, f 9;
#X obj 261 536 array set \$0-sort-temp;
#X obj 54 648 f;
#X obj 54 548 t b l;
#X obj 54 671 s;
#X msg 86 648 symbol \$1-\$2-vsl-receiver;
#X obj 54 457 pack \$0 f;
#X obj 54 60 t b f b;
#X obj 185 512 t b f;
#X obj 511 536 array set \$0-sort-temp;
#X obj 435 512 t b f;
#X obj 185 457 spigot;
#X obj 253 335 t f f, f 12;
#X obj 435 457 spigot;
#X obj 54 392 t b b b;
#X obj 435 488 array max \$0-sort-temp;
#X msg 511 512 0;
#X text 380 360 select path for asc/desc;
#X text 481 220 copy to temporary table;
#X obj 253 359 != -1;
#X obj 334 359 == -1;
#X msg 261 512 1e+09;
#X obj 450 110 v \$0-length;
#X obj 54 198 v \$0-length;
#X obj 450 87 r \$0-init-done;
#X connect 0 0 18 0;
#X connect 2 0 3 0;
#X connect 5 0 19 0;
#X connect 5 1 12 1;
#X connect 6 0 7 0;
#X connect 7 0 8 0;
#X connect 7 0 11 0;
#X connect 8 0 7 1;
#X connect 9 0 6 0;
#X connect 9 1 10 0;
#X connect 10 0 7 1;
#X connect 11 0 25 0;
#X connect 11 1 17 1;
#X connect 13 0 15 0;
#X connect 14 0 13 0;
#X connect 14 1 16 0;
#X connect 16 0 15 1;
#X connect 17 0 14 0;
#X connect 18 0 34 0;
#X connect 18 1 23 0;
#X connect 18 2 2 0;
#X connect 19 0 32 0;
#X connect 19 1 13 1;
#X connect 21 0 27 0;
#X connect 21 1 13 1;
#X connect 22 0 5 0;
#X connect 23 0 30 0;
#X connect 23 1 31 0;
#X connect 24 0 26 0;
#X connect 25 0 17 0;
#X connect 25 1 22 0;
#X connect 25 2 24 0;
#X connect 26 0 21 0;
#X connect 26 1 20 1;
#X connect 27 0 20 0;
#X connect 30 0 22 1;
#X connect 31 0 24 1;
#X connect 32 0 12 0;
#X connect 33 0 4 0;
#X connect 34 0 9 0;
#X connect 35 0 33 0;
#X restore 1226 338 pd sort;
#X obj 1157 675 v \$0-length;
#X obj 1116 648 t f f b;
#X obj 1139 742 change -1;
#X text 1427 202 TODOS \; random run and stumble via additional "random"
param? \;;
#N canvas 488 145 1026 760 permute+shuffle 0;
#X obj 209 210 array get \$0-seq;
#X obj 54 264 until;
#X obj 54 297 f;
#X obj 84 297 + 1;
#X obj 54 234 t f b;
#X msg 98 265 0;
#X obj 54 657 f;
#X obj 54 609 t b l;
#X obj 54 681 s;
#X msg 86 657 symbol \$1-\$2-vsl-receiver;
#X obj 54 380 pack \$0 f;
#X text 332 210 copy to temporary table;
#X obj 54 38 r \$0-permute;
#X obj 775 38 array define \$0-permute-temp;
#X obj 209 234 array set \$0-permute-temp;
#X obj 429 530 random;
#X obj 209 379 * -1;
#X obj 209 454 +;
#X obj 429 497 t b f;
#X obj 429 553 t f f;
#X obj 209 520 - 1;
#X obj 209 478 t f f;
#X obj 429 609 t f f;
#X text 672 577 output value;
#X obj 429 633 + 1;
#X obj 429 657 array get \$0-permute-temp 0 -1;
#X obj 429 681 array set \$0-permute-temp;
#X obj 209 544 array size \$0-permute-temp;
#X obj 461 577 array get \$0-permute-temp 0 1;
#X obj 54 103 t b b b;
#X obj 209 147 array size \$0-permute-temp;
#X obj 715 118 list length;
#X obj 715 142 > 0;
#X obj 54 321 t b f f f;
#X obj 54 62 t b l;
#X obj 683 81 t l l;
#X obj 683 340 spigot;
#X msg 616 389 get \$1;
#X obj 616 340 spigot;
#X obj 616 413 list store;
#X obj 209 355 spigot;
#X obj 248 305 == 0;
#X text 827 437 output value;
#X obj 616 437 array get \$0-permute-temp 0 1;
#X text 260 355 permute randomly if no argument given;
#X obj 248 281 r \$0-permute-list-given;
#X obj 722 306 r \$0-permute-list-given;
#X obj 715 166 s \$0-permute-list-given;
#X text 690 362 permute by index list if given;
#X obj 54 182 v \$0-length;
#X obj 209 122 v \$0-length;
#X obj 227 430 v \$0-length;
#X obj 209 403 t f b;
#X obj 475 497 r \$0-seed;
#X connect 0 0 14 0;
#X connect 1 0 2 0;
#X connect 2 0 3 0;
#X connect 2 0 33 0;
#X connect 3 0 2 1;
#X connect 4 0 1 0;
#X connect 4 1 5 0;
#X connect 5 0 2 1;
#X connect 6 0 8 0;
#X connect 7 0 6 0;
#X connect 7 1 9 0;
#X connect 9 0 8 1;
#X connect 10 0 7 0;
#X connect 12 0 34 0;
#X connect 15 0 19 0;
#X connect 16 0 52 0;
#X connect 17 0 21 0;
#X connect 18 0 15 0;
#X connect 18 1 15 1;
#X connect 19 0 22 0;
#X connect 19 1 28 0;
#X connect 20 0 27 0;
#X connect 21 0 20 0;
#X connect 21 1 18 0;
#X connect 22 0 24 0;
#X connect 22 1 26 1;
#X connect 24 0 25 0;
#X connect 25 0 26 0;
#X connect 28 0 6 1;
#X connect 29 0 49 0;
#X connect 29 1 0 0;
#X connect 29 2 50 0;
#X connect 31 0 32 0;
#X connect 32 0 47 0;
#X connect 33 0 10 0;
#X connect 33 1 10 1;
#X connect 33 2 40 0;
#X connect 33 3 38 0;
#X connect 34 0 29 0;
#X connect 34 1 35 0;
#X connect 35 0 36 0;
#X connect 35 1 31 0;
#X connect 36 0 39 1;
#X connect 37 0 39 0;
#X connect 38 0 37 0;
#X connect 39 0 43 0;
#X connect 40 0 16 0;
#X connect 41 0 40 1;
#X connect 43 0 6 1;
#X connect 45 0 41 0;
#X connect 46 0 36 1;
#X connect 46 0 38 1;
#X connect 49 0 4 0;
#X connect 50 0 30 0;
#X connect 51 0 17 1;
#X connect 52 0 17 0;
#X connect 52 1 51 0;
#X connect 53 0 15 0;
#X restore 1226 365 pd permute+shuffle;
#X text 1427 301 TODOS maybe \; "normalize" option for values (0..1
if no grid given)? \; allow min/max value setting? \; optional dyn-route?
\; stable duration despite stumble_mode transitions? \; addon for markov
chains \; addon for signal output? (needs output of next values) \;
;
#X connect 0 0 47 0;
#X connect 2 0 16 1;
#X connect 2 1 102 0;
#X connect 6 0 7 0;
#X connect 7 0 8 0;
#X connect 7 0 25 0;
#X connect 8 0 7 1;
#X connect 9 0 10 0;
#X connect 10 0 11 1;
#X connect 11 0 15 0;
#X connect 12 0 13 0;
#X connect 13 0 14 0;
#X connect 14 0 11 0;
#X connect 14 1 21 0;
#X connect 16 0 28 0;
#X connect 17 0 18 0;
#X connect 18 0 6 0;
#X connect 18 1 19 0;
#X connect 19 0 7 1;
#X connect 21 0 15 1;
#X connect 22 0 84 0;
#X connect 25 0 12 0;
#X connect 25 1 13 1;
#X connect 25 2 9 0;
#X connect 27 0 96 0;
#X connect 29 0 16 0;
#X connect 30 0 93 0;
#X connect 31 0 30 1;
#X connect 32 0 30 0;
#X connect 32 1 53 0;
#X connect 32 2 34 0;
#X connect 33 0 68 0;
#X connect 34 0 68 0;
#X connect 38 0 68 0;
#X connect 39 0 68 0;
#X connect 40 0 39 0;
#X connect 41 0 103 0;
#X connect 49 0 68 0;
#X connect 50 0 72 0;
#X connect 52 0 53 1;
#X connect 53 0 31 0;
#X connect 56 0 68 0;
#X connect 57 0 88 0;
#X connect 58 0 88 0;
#X connect 59 0 60 0;
#X connect 60 0 68 0;
#X connect 68 0 69 0;
#X connect 68 1 73 0;
#X connect 71 0 75 0;
#X connect 72 0 51 0;
#X connect 73 0 70 0;
#X connect 74 0 73 1;
#X connect 75 0 74 0;
#X connect 75 1 70 1;
#X connect 81 0 108 0;
#X connect 83 0 85 0;
#X connect 84 0 101 0;
#X connect 84 1 33 0;
#X connect 84 2 81 0;
#X connect 84 3 83 0;
#X connect 85 0 86 0;
#X connect 85 1 38 0;
#X connect 86 0 38 0;
#X connect 88 0 56 0;
#X connect 88 1 89 0;
#X connect 89 0 90 0;
#X connect 92 0 68 0;
#X connect 93 0 20 0;
#X connect 93 1 92 0;
#X connect 95 0 100 0;
#X connect 96 0 17 0;
#X connect 96 1 10 1;
#X connect 97 0 32 0;
#X connect 98 0 97 1;
#X connect 99 0 68 0;
#X connect 100 0 99 0;
#X connect 101 0 97 0;
#X connect 102 0 2 0;
#X connect 103 0 40 0;
#X connect 104 0 109 0;
#X connect 105 0 68 0;
#X connect 107 0 104 1;
#X connect 108 0 49 0;
#X connect 108 1 104 0;
#X connect 108 2 107 0;
#X connect 109 0 105 0;
#X coords 0 -1 1 1 120 49 2 100 100;
