#N canvas 78 78 331 429 12;
#X obj 73 45 inlet;
#X obj 73 143 sel 10 11 12 13 14 15;
#X msg 73 173 a, f 1;
#X msg 97 173 b, f 1;
#X msg 121 173 c, f 1;
#X msg 145 173 d, f 1;
#X msg 169 173 e, f 1;
#X msg 193 173 f, f 1;
#X obj 73 243 symbol;
#X obj 81 208 makefilename %i;
#X obj 73 337 outlet;
#X connect 0 0 1 0;
#X connect 1 0 2 0;
#X connect 1 1 3 0;
#X connect 1 2 4 0;
#X connect 1 3 5 0;
#X connect 1 4 6 0;
#X connect 1 5 7 0;
#X connect 1 6 9 0;
#X connect 2 0 8 0;
#X connect 3 0 8 0;
#X connect 4 0 8 0;
#X connect 5 0 8 0;
#X connect 6 0 8 0;
#X connect 7 0 8 0;
#X connect 8 0 10 0;
#X connect 9 0 8 0;
